<svg width="52" height="52" viewBox="0 0 52 52" fill="none" xmlns="http://www.w3.org/2000/svg">
<circle cx="26" cy="26" r="25.4341" stroke="#E6E6E6" stroke-width="1.13178"/>
<path d="M26.0186 36.5564C25.9474 36.5564 25.8762 36.5564 25.8045 36.556C24.1189 36.5601 22.5614 36.5173 21.0467 36.4251C19.6581 36.3406 18.3905 35.8608 17.3808 35.0375C16.4066 34.2431 15.7413 33.169 15.4035 31.8454C15.1095 30.693 15.0939 29.5618 15.079 28.4677C15.0681 27.6826 15.057 26.7524 15.0547 25.8064C15.057 24.8565 15.0681 23.9263 15.079 23.1413C15.0939 22.0473 15.1095 20.9161 15.4035 19.7636C15.7413 18.4399 16.4066 17.3658 17.3808 16.5714C18.3905 15.7482 19.6581 15.2683 21.0469 15.1838C22.5616 15.0918 24.1194 15.0488 25.8086 15.0529C27.4947 15.0493 29.0517 15.0918 30.5664 15.1838C31.9551 15.2683 33.2226 15.7482 34.2323 16.5714C35.2067 17.3658 35.8718 18.4399 36.2096 19.7636C36.5036 20.9159 36.5192 22.0473 36.5342 23.1413C36.545 23.9263 36.5563 24.8565 36.5584 25.8025V25.8064C36.5563 26.7524 36.545 27.6826 36.5342 28.4677C36.5192 29.5616 36.5038 30.6928 36.2096 31.8454C35.8718 33.169 35.2067 34.2431 34.2323 35.0375C33.2226 35.8608 31.9551 36.3406 30.5664 36.4251C29.1159 36.5134 27.6258 36.5564 26.0186 36.5564ZM25.8045 34.8761C27.4627 34.88 28.9853 34.8382 30.4643 34.7483C31.5144 34.6844 32.4248 34.3437 33.1706 33.7355C33.86 33.1733 34.3348 32.3976 34.5818 31.43C34.8266 30.4707 34.8407 29.4407 34.8543 28.4447C34.8649 27.6649 34.8761 26.7413 34.8784 25.8045C34.8761 24.8675 34.8649 23.944 34.8543 23.1642C34.8407 22.1682 34.8266 21.1382 34.5818 20.1788C34.3348 19.2112 33.86 18.4355 33.1706 17.8733C32.4248 17.2652 31.5144 16.9245 30.4643 16.8607C28.9853 16.7706 27.4627 16.7291 25.8085 16.7327C24.1506 16.7288 22.6279 16.7706 21.1488 16.8607C20.0988 16.9245 19.1884 17.2652 18.4425 17.8733C17.7531 18.4355 17.2783 19.2112 17.0314 20.1788C16.7866 21.1382 16.7725 22.168 16.7589 23.1642C16.7482 23.9447 16.737 24.8688 16.7347 25.8064C16.737 26.7399 16.7482 27.6643 16.7589 28.4447C16.7725 29.4407 16.7866 30.4707 17.0314 31.43C17.2783 32.3976 17.7531 33.1733 18.4425 33.7355C19.1884 34.3435 20.0988 34.6843 21.1488 34.7481C22.6279 34.8382 24.1509 34.8802 25.8045 34.8761ZM25.7645 31.0544C22.8697 31.0544 20.5143 28.6993 20.5143 25.8045C20.5143 22.9096 22.8697 20.5545 25.7645 20.5545C28.6594 20.5545 31.0146 22.9096 31.0146 25.8045C31.0146 28.6993 28.6594 31.0544 25.7645 31.0544ZM25.7645 22.2345C23.796 22.2345 22.1944 23.8361 22.1944 25.8045C22.1944 27.7729 23.796 29.3744 25.7645 29.3744C27.7331 29.3744 29.3346 27.7729 29.3346 25.8045C29.3346 23.8361 27.7331 22.2345 25.7645 22.2345ZM31.6026 18.8745C30.9068 18.8745 30.3426 19.4386 30.3426 20.1345C30.3426 20.8305 30.9068 21.3945 31.6026 21.3945C32.2986 21.3945 32.8627 20.8305 32.8627 20.1345C32.8627 19.4386 32.2986 18.8745 31.6026 18.8745Z" fill="black"/>
</svg>
