<svg width="52" height="52" viewBox="0 0 52 52" fill="none" xmlns="http://www.w3.org/2000/svg">
<circle cx="26" cy="26" r="25.4341" stroke="#E6E6E6" stroke-width="1.13178"/>
<path d="M26.1361 34.5296C26.1341 34.5296 26.1318 34.5296 26.1295 34.5296C25.3782 34.5244 18.7362 34.4634 16.8545 33.9512C15.5393 33.5955 14.5012 32.5518 14.1467 31.228C13.6543 29.3676 13.6856 25.7858 13.6891 25.4998C13.6858 25.2152 13.6541 21.6037 14.1452 19.728C14.1457 19.7263 14.1461 19.7244 14.1467 19.7227C14.4972 18.414 15.5587 17.3381 16.8512 16.9813C16.8545 16.9804 16.8579 16.9796 16.8611 16.9786C18.7216 16.4865 25.3767 16.4263 26.1295 16.4211H26.143C26.8962 16.4263 33.5558 16.4873 35.4203 17.0002C36.732 17.3551 37.7694 18.3974 38.1248 19.7194C38.6356 21.5965 38.5883 25.2157 38.5832 25.5212C38.5868 25.8222 38.6166 29.3718 38.1271 31.2416C38.1267 31.2435 38.1262 31.2452 38.1258 31.247C37.7711 32.5707 36.7331 33.6144 35.4165 33.9706C35.4148 33.9711 35.4129 33.9715 35.4112 33.9721C33.5509 34.464 26.8956 34.5242 26.143 34.5296C26.1407 34.5296 26.1384 34.5296 26.1361 34.5296ZM16.0254 20.2301C15.5931 21.8857 15.6339 25.4511 15.6343 25.487V25.5128C15.6214 26.5016 15.6668 29.3652 16.0256 30.7214C16.1996 31.3709 16.7116 31.8853 17.3609 32.061C18.7494 32.439 24.159 32.5579 26.1361 32.5719C28.1184 32.5579 33.536 32.4422 34.9142 32.0794C35.5614 31.9031 36.0717 31.3904 36.2468 30.7401C36.6061 29.364 36.6511 26.5144 36.638 25.5319C36.638 25.5216 36.638 25.5113 36.6382 25.501C36.656 24.5003 36.6209 21.6033 36.2485 20.2362C36.2482 20.2349 36.2478 20.2335 36.2476 20.2322C36.0728 19.5799 35.5607 19.0654 34.9114 18.8897C33.5364 18.5113 28.118 18.3928 26.1361 18.3789C24.1552 18.3928 18.7429 18.5083 17.3605 18.8708C16.7236 19.0486 16.2 19.5814 16.0254 20.2301ZM23.6569 29.4395V21.511L30.4653 25.4754L23.6569 29.4395Z" fill="black"/>
</svg>
