<svg width="52" height="52" viewBox="0 0 52 52" fill="none" xmlns="http://www.w3.org/2000/svg">
<circle cx="26" cy="26" r="25.4341" stroke="#E6E6E6" stroke-width="1.13178"/>
<path d="M18.9064 16.421C17.4041 16.421 16.4219 17.4075 16.4219 18.7041C16.4219 19.9721 17.3748 20.9867 18.8488 20.9867H18.8773C20.409 20.9867 21.3622 19.9721 21.3622 18.7041C21.3335 17.4075 20.409 16.421 18.9064 16.421Z" fill="black"/>
<path d="M16.6797 22.7932H21.0715V36.0063H16.6797V22.7932Z" fill="black"/>
<path d="M31.8499 22.4819C29.4807 22.4819 27.892 24.7082 27.892 24.7082V22.792H23.5V36.0051H27.8917V28.6264C27.8917 28.2314 27.9204 27.837 28.0364 27.5545C28.3539 26.7658 29.0764 25.9486 30.2897 25.9486C31.8789 25.9486 32.5145 27.1603 32.5145 28.9365V36.0051H36.906V28.429C36.906 24.3705 34.7392 22.4819 31.8499 22.4819Z" fill="black"/>
</svg>
