<svg width="116" height="36" viewBox="0 0 116 36" fill="none" xmlns="http://www.w3.org/2000/svg">
<rect x="0.461914" y="0.248535" width="114.769" height="35.5623" rx="6.71218" fill="white" fill-opacity="0.12"/>
<path d="M28.8147 18.2807C28.8147 16.0186 30.6868 14.8485 30.7648 14.8485C29.7508 13.3664 28.0347 13.0544 27.4887 13.0544C26.0846 12.8984 24.7585 13.9124 24.1345 13.9124C23.3544 13.9124 22.3404 13.0544 21.0923 13.1324C19.6103 13.1324 18.2062 13.9905 17.4261 15.3945C15.8661 18.1247 17.0361 22.1809 18.5182 24.443C19.2982 25.613 20.2343 26.7051 21.3263 26.7051C22.4184 26.6271 22.8864 25.9251 24.2125 25.9251C25.5386 25.9251 26.0066 26.7051 27.0986 26.5491C28.3467 26.5491 29.0487 25.379 29.8288 24.365C30.6868 23.1169 31.0768 21.9469 31.0768 21.7908C31.1548 21.9469 28.8147 21.0108 28.8147 18.2807Z" fill="white"/>
<path d="M26.5523 11.6499C27.1763 10.8699 27.5663 9.85585 27.4883 8.8418C26.6303 8.8418 25.5382 9.46583 24.8362 10.1679C24.2902 10.7919 23.8221 11.962 23.9001 12.898C24.9142 12.976 26.0062 12.43 26.5523 11.6499Z" fill="white"/>
<path d="M43.1689 23.9741H39.3467L38.4107 26.7042H36.6946L40.4388 16.4857H42.1549L45.821 26.7042H44.105L43.1689 23.9741ZM39.6587 22.648H42.7789L41.2968 18.1238L39.6587 22.648ZM53.7774 23.038C53.7774 25.3781 52.5294 26.7822 50.6573 26.7822C49.6432 26.7822 48.7852 26.3142 48.3172 25.4562V29.1223H46.8351V19.2158H48.3172V20.4639C48.7852 19.6839 49.6432 19.1378 50.6573 19.1378C52.4514 19.1378 53.7774 20.6199 53.7774 23.038ZM52.2174 23.038C52.2174 21.556 51.4373 20.4639 50.2673 20.4639C49.1752 20.4639 48.3172 21.478 48.3172 23.038C48.3172 24.5981 49.0972 25.6122 50.2673 25.6122C51.4373 25.4562 52.2174 24.5201 52.2174 23.038ZM61.9678 23.038C61.9678 25.3781 60.7198 26.7822 58.8477 26.7822C57.8336 26.7822 56.9756 26.3142 56.5076 25.4562V29.1223H55.0255V19.2158H56.4296V20.4639C56.8976 19.6839 57.7556 19.1378 58.7697 19.1378C60.6418 19.1378 61.9678 20.6199 61.9678 23.038ZM60.3298 23.038C60.3298 21.556 59.5497 20.4639 58.3797 20.4639C57.2876 20.4639 56.4296 21.478 56.4296 23.038C56.4296 24.5981 57.2096 25.6122 58.3797 25.6122C59.6277 25.4562 60.3298 24.5201 60.3298 23.038ZM67.2721 23.8181C67.3501 24.8321 68.3642 25.5342 69.6902 25.5342C71.0163 25.5342 71.9524 24.9101 71.9524 23.8961C71.9524 23.116 71.4063 22.648 70.0803 22.258L68.7542 21.946C66.8821 21.478 66.0241 20.6199 66.0241 19.2158C66.0241 17.4217 67.5061 16.1737 69.6902 16.1737C71.8744 16.1737 73.3564 17.4217 73.3564 19.2158H71.8744C71.7963 18.2018 70.9383 17.5778 69.6902 17.5778C68.4422 17.5778 67.6621 18.2018 67.6621 19.0598C67.6621 19.8399 68.2082 20.2299 69.5342 20.5419L70.6263 20.8539C72.6544 21.3219 73.5124 22.18 73.5124 23.6621C73.5124 25.5342 72.0304 26.7822 69.5342 26.7822C67.2721 26.7822 65.79 25.6122 65.712 23.7401C65.79 23.9741 67.2721 23.8181 67.2721 23.8181ZM76.8666 17.4997V19.2938H78.2707V20.4639H76.8666V24.5981C76.8666 25.2221 77.1786 25.5342 77.8027 25.5342H78.2707V26.7822C78.1147 26.7822 77.8027 26.8602 77.4126 26.8602C75.9306 26.8602 75.3845 26.3142 75.3845 24.9101V20.4639H74.2925V19.2158H75.3065V17.4217L76.8666 17.4997ZM79.0507 23.038C79.0507 20.6979 80.4548 19.2938 82.5609 19.2938C84.745 19.2938 86.0711 20.7759 86.0711 23.038C86.0711 25.3781 84.667 26.7822 82.5609 26.7822C80.4548 26.7822 79.0507 25.3781 79.0507 23.038ZM84.589 23.038C84.589 21.3999 83.8089 20.4639 82.6389 20.4639C81.3908 20.4639 80.6888 21.3999 80.6888 23.038C80.6888 24.6761 81.4688 25.6122 82.6389 25.6122C83.8089 25.5342 84.589 24.5981 84.589 23.038ZM87.3971 19.2158H88.8012V20.4639C88.9572 19.6059 89.7372 19.1378 90.5953 19.1378C90.7513 19.1378 90.9853 19.1378 91.1413 19.2158V20.6199C91.0633 20.5419 90.7513 20.5419 90.5173 20.5419C89.5812 20.5419 88.9572 21.1659 88.9572 22.258V26.7042H87.4751C87.3971 26.7042 87.3971 19.2158 87.3971 19.2158ZM98.2397 24.5201C98.0837 25.8462 96.7576 26.7822 95.0415 26.7822C92.8574 26.7822 91.5313 25.3781 91.5313 23.038C91.5313 20.6979 92.8574 19.1378 95.0415 19.1378C97.0696 19.1378 98.3957 20.5419 98.3957 22.804V23.35H93.0134V23.5061C93.0134 24.8321 93.7935 25.6122 94.9635 25.6122C95.8216 25.6122 96.4456 25.2221 96.6796 24.5981C96.6796 24.5201 98.2397 24.5201 98.2397 24.5201ZM93.0134 22.258H96.7576C96.7576 21.0879 95.9776 20.3859 94.9635 20.3859C93.8715 20.3859 93.1694 21.0879 93.0134 22.258ZM39.5027 8.76331C40.9068 8.76331 41.8428 9.62135 41.8428 11.1814C41.8428 12.7415 40.9848 13.5996 39.5027 13.5996H37.7086V8.68531H39.5027V8.76331ZM38.5667 12.9755H39.5027C40.5168 12.9755 41.0628 12.3515 41.0628 11.1814C41.0628 10.0114 40.5168 9.38734 39.5027 9.38734H38.5667V12.9755ZM42.7009 11.8835C42.7009 10.6354 43.3249 10.0114 44.495 10.0114C45.509 10.0114 46.2891 10.7914 46.2891 11.8835C46.2891 13.1315 45.665 13.7556 44.495 13.7556C43.3249 13.7556 42.7009 12.9755 42.7009 11.8835ZM45.431 11.8835C45.431 11.0254 45.041 10.5574 44.417 10.5574C43.7929 10.5574 43.4029 11.0254 43.4029 11.8835C43.4029 12.7415 43.7929 13.2095 44.417 13.2095C45.041 13.0535 45.431 12.5855 45.431 11.8835ZM50.7353 13.6776H49.9552L49.1752 10.9474H49.0972L48.3172 13.6776H47.5371L46.5231 10.0114H47.3031L47.9271 12.8195H48.0052L48.7852 10.0114H49.4092L50.1893 12.8195H50.2673L50.8913 10.0114H51.6713C51.8273 10.0114 50.7353 13.6776 50.7353 13.6776ZM52.6854 10.0114H53.3094V10.5574H53.3874C53.5434 10.1674 53.9334 9.93337 54.4795 9.93337C55.3375 9.93337 55.8055 10.4014 55.8055 11.3374V13.6776H55.0255V11.4154C55.0255 10.8694 54.7135 10.5574 54.2455 10.5574C53.6994 10.5574 53.3874 10.9474 53.3874 11.4934V13.6776H52.5294C52.6854 13.6776 52.6854 10.0114 52.6854 10.0114ZM56.9756 8.5293H57.7556V13.7556H56.9756V8.5293ZM58.6917 11.8835C58.6917 10.6354 59.3157 10.0114 60.4858 10.0114C61.4998 10.0114 62.2799 10.7914 62.2799 11.8835C62.2799 13.1315 61.6558 13.7556 60.4858 13.7556C59.3937 13.7556 58.6917 12.9755 58.6917 11.8835ZM61.4998 11.8835C61.4998 11.0254 61.1098 10.5574 60.4858 10.5574C59.8617 10.5574 59.4717 11.0254 59.4717 11.8835C59.4717 12.7415 59.8617 13.2095 60.4858 13.2095C61.1098 13.0535 61.4998 12.5855 61.4998 11.8835ZM62.9819 12.5855C62.9819 11.9615 63.4499 11.5715 64.386 11.4154L65.4 11.3374V11.0254C65.4 10.6354 65.088 10.4794 64.62 10.4794C64.23 10.4794 63.996 10.6354 63.8399 10.8694H63.0599C63.1379 10.2454 63.6839 9.85536 64.542 9.85536C65.478 9.85536 65.9461 10.3234 65.9461 11.1034V13.6776H65.322V13.1315H65.244C65.088 13.5216 64.62 13.6776 64.152 13.6776C63.4499 13.7556 62.9819 13.2875 62.9819 12.5855ZM65.322 12.3515V12.0395L64.386 12.1175C63.918 12.1175 63.6059 12.2735 63.6059 12.6635C63.6059 13.0535 63.9179 13.2095 64.23 13.2095C64.932 13.0535 65.322 12.8195 65.322 12.3515ZM67.0381 11.8835C67.0381 10.7134 67.5841 10.0114 68.5202 10.0114C68.9882 10.0114 69.4562 10.3234 69.6122 10.6354H69.6902V8.5293H70.4703V13.7556H69.8462V13.2095H69.7682C69.6122 13.5996 69.1442 13.8336 68.6762 13.8336C67.5841 13.7556 67.0381 12.9755 67.0381 11.8835ZM67.7401 11.8835C67.7401 12.6635 68.1302 13.1315 68.7542 13.1315C69.3782 13.1315 69.7682 12.6635 69.7682 11.8835C69.7682 11.1034 69.3782 10.6354 68.7542 10.6354C68.1302 10.5574 67.7401 11.0254 67.7401 11.8835ZM73.5124 11.8835C73.5124 10.6354 74.1365 10.0114 75.3065 10.0114C76.3206 10.0114 77.1006 10.7914 77.1006 11.8835C77.1006 13.1315 76.4766 13.7556 75.3065 13.7556C74.1365 13.7556 73.5124 12.9755 73.5124 11.8835ZM76.2426 11.8835C76.2426 11.0254 75.8526 10.5574 75.2285 10.5574C74.6045 10.5574 74.2145 11.0254 74.2145 11.8835C74.2145 12.7415 74.6045 13.2095 75.2285 13.2095C75.8526 13.0535 76.2426 12.5855 76.2426 11.8835ZM77.8807 10.0114H78.5047V10.5574H78.5827C78.7387 10.1674 79.1287 9.93337 79.6747 9.93337C80.5328 9.93337 81.0008 10.4014 81.0008 11.3374V13.6776H80.2208V11.4154C80.2208 10.8694 79.9088 10.5574 79.4407 10.5574C78.8947 10.5574 78.5827 10.9474 78.5827 11.4934V13.6776H77.8027L77.8807 10.0114ZM85.135 8.99732V9.93337H85.9931V10.5574H85.135V12.4295C85.135 12.8195 85.291 12.9755 85.6811 12.9755H85.9931V13.5216H85.603C84.745 13.5216 84.511 13.2095 84.511 12.5075V10.5574H83.965V9.93337H84.511V8.99732H85.135ZM87.0071 8.5293H87.7872V10.6354H87.8652C88.0212 10.2454 88.4112 10.0114 88.9572 10.0114C89.7373 10.0114 90.2833 10.4794 90.2833 11.4154V13.7556H89.5032V11.5715C89.5032 11.0254 89.1912 10.7134 88.7232 10.7134C88.1772 10.7134 87.7872 11.1034 87.7872 11.6495V13.8336H87.0071C87.0851 13.8336 87.0071 8.5293 87.0071 8.5293ZM94.4175 12.7415C94.2615 13.3655 93.6375 13.7556 92.8574 13.7556C91.8434 13.7556 91.1413 12.9755 91.1413 11.8835C91.1413 10.6354 91.7654 9.93337 92.8574 9.93337C93.8715 9.93337 94.5735 10.5574 94.5735 11.8055V12.1175H91.9214C91.9214 12.7415 92.3114 13.1315 92.8574 13.1315C93.3254 13.1315 93.6374 12.9755 93.7155 12.6635C93.7155 12.5855 94.4175 12.7415 94.4175 12.7415ZM91.8434 11.4934H93.7155C93.7155 10.9474 93.3254 10.5574 92.7794 10.5574C92.3114 10.5574 91.9214 10.9474 91.8434 11.4934Z" fill="white"/>
</svg>
