<svg width="116" height="36" viewBox="0 0 116 36" fill="none" xmlns="http://www.w3.org/2000/svg">
<rect x="0.620605" y="0.248535" width="114.769" height="35.5623" rx="6.71218" fill="white" fill-opacity="0.12"/>
<path d="M43.8 11.2223C43.8 11.7599 43.6655 12.2975 43.2623 12.6335C42.8591 13.0368 42.3887 13.3056 41.7166 13.3056C41.0446 13.3056 40.5742 13.0368 40.1709 12.6335C39.7677 12.2303 39.4989 11.6927 39.4989 11.0878C39.4989 10.4158 39.7677 9.94538 40.1709 9.54216C40.5742 9.13893 41.1118 8.87012 41.7166 8.87012C42.0527 8.87012 42.2543 8.93732 42.5903 9.00452C42.8591 9.07173 43.0607 9.27334 43.2623 9.47495L42.8591 9.87818C42.5903 9.54216 42.1871 9.40775 41.7166 9.40775C41.2462 9.40775 40.9102 9.54216 40.5742 9.87818C40.2381 10.2142 40.1037 10.6174 40.1037 11.0878C40.1037 11.5583 40.2381 11.9615 40.5742 12.2975C40.9102 12.6335 41.3134 12.7679 41.7166 12.7679C42.1871 12.7679 42.5903 12.6335 42.9263 12.2975C43.1951 12.0287 43.2623 11.8271 43.2623 11.4239H41.7166V10.8862H43.7328C43.8 11.0878 43.8 11.1551 43.8 11.2223ZM47.0257 9.54216H45.0768V10.9534H46.8913V11.3567H45.0768V12.7007H47.0257V13.1712H44.5392V8.93732H47.0257V9.54216ZM49.3779 13.1712H48.8403V9.54216H47.6306V9.00452H50.5204V9.47495H49.3107V13.2384H49.3779V13.1712ZM52.6037 13.1712V8.93732H53.1413V13.1712H52.6037ZM55.6279 13.1712H55.0902V9.54216H53.9478V9.00452H56.8375V9.47495H55.6279V13.1712ZM62.3483 12.7007C61.945 13.104 61.4074 13.3728 60.8026 13.3728C60.1305 13.3728 59.6601 13.104 59.2569 12.7007C58.8537 12.2975 58.5848 11.7599 58.5848 11.155C58.5848 10.6174 58.8537 10.0126 59.2569 9.60936C59.5929 9.13893 60.1305 8.87012 60.7354 8.87012C61.4074 8.87012 61.8778 9.13893 62.2811 9.54216C62.6843 9.94538 62.9531 10.483 62.9531 11.0878C62.9531 11.6927 62.7515 12.1631 62.3483 12.7007ZM59.5929 12.2975C59.9289 12.6335 60.3321 12.7679 60.7354 12.7679C61.1386 12.7679 61.5418 12.6335 61.8778 12.2975C62.2139 11.9615 62.3483 11.5583 62.3483 11.0878C62.3483 10.6174 62.2139 10.2142 61.8778 9.87818C61.5418 9.54216 61.1386 9.40775 60.7354 9.40775C60.3321 9.40775 59.9289 9.54216 59.5929 9.87818C59.2569 10.2142 59.1225 10.6174 59.1225 11.0878C59.1225 11.5583 59.2569 11.9615 59.5929 12.2975ZM63.7595 13.1712V8.93732H64.4316L66.4477 12.2975V8.93732H66.9853V13.1712H66.4477L64.23 9.67656V13.1712H63.7595Z" fill="white"/>
<path d="M58.4519 19.4222C56.7718 19.4222 55.4277 20.6991 55.4277 22.4464C55.4277 24.1265 56.7718 25.4706 58.4519 25.4706C60.132 25.4706 61.4761 24.1937 61.4761 22.4464C61.4761 20.6319 60.0648 19.4222 58.4519 19.4222ZM58.4519 24.1937C57.5783 24.1937 56.7718 23.4545 56.7718 22.3792C56.7718 21.3039 57.5783 20.5647 58.4519 20.5647C59.3256 20.5647 60.132 21.3039 60.132 22.3792C60.1992 23.4545 59.3256 24.1937 58.4519 24.1937ZM51.9331 19.4222C50.253 19.4222 48.9089 20.6991 48.9089 22.4464C48.9089 24.1265 50.253 25.4706 51.9331 25.4706C53.6132 25.4706 54.9573 24.1937 54.9573 22.4464C54.8901 20.6319 53.546 19.4222 51.9331 19.4222ZM51.9331 24.1937C51.0595 24.1937 50.253 23.4545 50.253 22.3792C50.253 21.3039 51.0595 20.5647 51.9331 20.5647C52.8068 20.5647 53.6132 21.3039 53.6132 22.3792C53.6132 23.4545 52.8068 24.1937 51.9331 24.1937ZM44.0703 20.2959V21.5727H47.1616C47.0944 22.312 46.8256 22.7824 46.4224 23.1856C46.0192 23.5889 45.2799 24.1265 44.0703 24.1265C42.1885 24.1265 40.7773 22.5808 40.7773 20.6991C40.7773 18.8174 42.2557 17.2717 44.0703 17.2717C45.1455 17.2717 45.8848 17.6749 46.3552 18.1453L47.2288 17.2717C46.4896 16.6668 45.4143 16.062 43.9358 16.062C41.3149 16.062 39.2316 18.1453 39.2316 20.7663C39.2316 23.3872 41.4493 25.4706 43.9358 25.4706C45.2799 25.4706 46.3552 25.0001 47.1616 24.1937C47.9681 23.3872 48.3041 22.1776 48.3041 21.1695C48.3041 20.8335 48.3041 20.6319 48.2369 20.3631L44.0703 20.2959ZM76.0594 21.3039C75.7905 20.6319 75.1185 19.4222 73.5728 19.4222C72.0271 19.4222 70.7502 20.6319 70.7502 22.4464C70.7502 24.1265 72.0271 25.4706 73.7744 25.4706C75.1185 25.4706 75.9922 24.6641 76.261 24.1937L75.1857 23.5217C74.8497 23.9921 74.3793 24.3281 73.7072 24.3281C73.0352 24.3281 72.5647 23.9921 72.2287 23.4545L76.261 21.7744L76.0594 21.3039ZM72.0271 22.312C72.0271 21.1695 72.9008 20.4975 73.5728 20.4975C74.0432 20.4975 74.5137 20.7663 74.7153 21.1695L72.0271 22.312ZM68.6669 25.269H69.9438V16.398H68.6669V25.269ZM66.5836 20.0943C66.2476 19.7582 65.7099 19.4222 64.9707 19.4222C63.425 19.4222 62.0809 20.6991 62.0809 22.4464C62.0809 24.1265 63.425 25.4706 64.9707 25.4706C65.7099 25.4706 66.2476 25.1346 66.5836 24.7985H66.6508V25.2018C66.6508 26.3442 65.9788 27.0163 65.0379 27.0163C64.2315 27.0163 63.761 26.4786 63.4922 25.941L62.3497 26.4114C62.6858 27.2179 63.5594 28.2259 65.0379 28.2259C66.5836 28.2259 67.8605 27.3523 67.8605 25.0673V19.6238H66.6508L66.5836 20.0943ZM65.0379 24.1937C64.1642 24.1937 63.3578 23.4545 63.3578 22.3792C63.3578 21.3039 64.097 20.4975 65.0379 20.4975C65.9116 20.4975 66.6508 21.3039 66.6508 22.3792C66.6508 23.4545 65.9116 24.1937 65.0379 24.1937ZM82.3093 16.398H79.1507V25.269H80.4276V21.8416H82.3093C83.7878 21.8416 85.1991 20.7663 85.1991 19.0862C85.1991 17.4061 83.7206 16.398 82.3093 16.398ZM82.3093 20.6319H80.4276V17.6077H82.3093C83.2502 17.6077 83.855 18.4142 83.855 19.1534C83.7878 19.8254 83.2502 20.6319 82.3093 20.6319ZM90.441 19.4222C89.5001 19.4222 88.4921 19.8254 88.0889 20.8335L89.2313 21.3039C89.5001 20.8335 89.9706 20.6319 90.441 20.6319C91.113 20.6319 91.7851 21.0351 91.7851 21.7744V21.8416C91.5163 21.7071 91.0458 21.5055 90.441 21.5055C89.1641 21.5055 87.9545 22.2448 87.9545 23.5217C87.9545 24.7313 89.0297 25.4706 90.1722 25.4706C91.0458 25.4706 91.5163 25.0673 91.8523 24.5969H91.9195V25.269H93.1964V21.8416C93.1292 20.2287 91.9195 19.4222 90.441 19.4222ZM90.3066 24.1937C89.9034 24.1937 89.2313 23.9249 89.2313 23.4545C89.2313 22.7824 89.9706 22.5136 90.5754 22.5136C91.113 22.5136 91.4491 22.648 91.7851 22.8496C91.7851 23.6561 91.0458 24.1937 90.3066 24.1937ZM97.7662 19.5566L96.2206 23.3872H96.1533L94.6076 19.5566H93.1292L95.4813 24.9329L94.1372 27.9571H95.4813L99.1103 19.6238H97.7662V19.5566ZM85.9383 25.269H87.2152V16.398H85.9383V25.269Z" fill="white"/>
<path d="M17.6585 9.40723C17.5241 9.54163 17.3225 9.94486 17.3225 10.3481V25.9394C17.3225 26.3426 17.4569 26.7459 17.6585 26.8803L17.7257 26.9475L26.4623 18.2109V18.0765L17.6585 9.40723Z" fill="url(#paint0_linear_903_1534)"/>
<path d="M29.4207 21.1683L26.5309 18.2786V18.1442L29.4207 15.2544H29.4879L32.9825 17.2033C33.9233 17.7409 33.9233 18.6818 32.9825 19.2194L29.4207 21.1683Z" fill="url(#paint1_linear_903_1534)"/>
<path d="M29.4861 21.1023L26.4619 18.0781L17.6582 26.8818C17.9942 27.2179 18.5319 27.2851 19.1367 26.9491L29.4861 21.1023Z" fill="url(#paint2_linear_903_1534)"/>
<path d="M29.4861 15.1879L19.1367 9.27397C18.5991 8.93795 17.9942 8.93795 17.6582 9.34118L26.4619 18.1449L29.4861 15.1879Z" fill="url(#paint3_linear_903_1534)"/>
<path opacity="0.2" d="M29.4198 21.1025L19.1376 26.9493C18.6 27.2853 18.0623 27.2853 17.7935 26.9493L17.7263 27.0165L17.7935 27.0837C18.1295 27.4197 18.6 27.4197 19.1376 27.0837L29.4198 21.1025Z" fill="black"/>
<path opacity="0.12" d="M17.6585 26.8801C17.5241 26.6113 17.3225 26.3424 17.3225 25.9392V26.0064C17.3225 26.4096 17.4569 26.8129 17.6585 26.9473V26.8801ZM32.981 19.0844L29.4192 21.1005L29.4864 21.1677L32.981 19.2188C33.4515 18.95 33.7203 18.5468 33.7203 18.1436C33.6531 18.5468 33.3843 18.8156 32.981 19.0844Z" fill="black"/>
<path opacity="0.25" d="M19.1364 9.47575L32.9133 17.3386C33.3837 17.6074 33.6525 17.8762 33.6525 18.2123C33.6525 17.809 33.3837 17.473 32.9133 17.137L19.1364 9.27414C18.1956 8.73651 17.3891 9.20693 17.3891 10.3494V10.4166C17.3219 9.27414 18.1956 8.87091 19.1364 9.47575Z" fill="black"/>
<defs>
<linearGradient id="paint0_linear_903_1534" x1="25.7299" y1="10.1885" x2="13.8762" y2="22.0423" gradientUnits="userSpaceOnUse">
<stop stop-color="#00A0FF"/>
<stop offset="0.007" stop-color="#00A1FF"/>
<stop offset="0.26" stop-color="#00BEFF"/>
<stop offset="0.512" stop-color="#00D2FF"/>
<stop offset="0.76" stop-color="#00DFFF"/>
<stop offset="1" stop-color="#00E3FF"/>
</linearGradient>
<linearGradient id="paint1_linear_903_1534" x1="34.2322" y1="18.201" x2="17.1423" y2="18.201" gradientUnits="userSpaceOnUse">
<stop stop-color="#FFE000"/>
<stop offset="0.409" stop-color="#FFBD00"/>
<stop offset="0.775" stop-color="#FFA500"/>
<stop offset="1" stop-color="#FF9C00"/>
</linearGradient>
<linearGradient id="paint2_linear_903_1534" x1="27.8475" y1="19.7666" x2="11.7733" y2="35.8407" gradientUnits="userSpaceOnUse">
<stop stop-color="#FF3A44"/>
<stop offset="1" stop-color="#C31162"/>
</linearGradient>
<linearGradient id="paint3_linear_903_1534" x1="15.4714" y1="4.17944" x2="22.649" y2="11.3579" gradientUnits="userSpaceOnUse">
<stop stop-color="#32A071"/>
<stop offset="0.069" stop-color="#2DA771"/>
<stop offset="0.476" stop-color="#15CF74"/>
<stop offset="0.801" stop-color="#06E775"/>
<stop offset="1" stop-color="#00F076"/>
</linearGradient>
</defs>
</svg>
