<svg width="24" height="30" viewBox="0 0 24 30" fill="none" xmlns="http://www.w3.org/2000/svg">
<path d="M12 0.237305C5.66748 0.237305 0.515625 5.38916 0.515625 11.7217C0.515625 14.7979 2.37932 18.7482 6.0549 23.4626C7.7389 25.6169 9.5625 27.6583 11.514 29.5736C11.6449 29.6987 11.8189 29.7685 12 29.7685C12.1811 29.7685 12.3551 29.6987 12.486 29.5736C14.4375 27.6583 16.2611 25.6169 17.9451 23.4626C21.6207 18.7482 23.4844 14.7979 23.4844 11.7217C23.4844 5.38916 18.3325 0.237305 12 0.237305ZM12 28.0758C9.9247 25.9839 1.92188 17.5382 1.92188 11.7217C1.92188 6.16459 6.44291 1.64355 12 1.64355C17.5571 1.64355 22.0781 6.16459 22.0781 11.7217C22.0781 17.5382 14.0753 25.9839 12 28.0758Z" fill="white"/>
<path d="M17.6292 10.7327L12.4729 6.04516C12.3435 5.9275 12.1749 5.8623 12 5.8623C11.8251 5.8623 11.6564 5.9275 11.527 6.04516L6.37076 10.7327C6.26576 10.8281 6.1921 10.9531 6.15947 11.0912C6.12683 11.2293 6.13676 11.3741 6.18793 11.5065C6.2391 11.6388 6.32913 11.7526 6.44618 11.8328C6.56323 11.9131 6.70182 11.956 6.84373 11.956H7.5469V15.4717C7.5469 15.6581 7.6209 15.837 7.7528 15.9688C7.8847 16.1007 8.0635 16.1748 8.25 16.1748H10.8281C11.0146 16.1748 11.1934 16.1007 11.3253 15.9688C11.4571 15.837 11.5312 15.6581 11.5312 15.4717V13.3623H12.4687V15.4717C12.4687 15.6581 12.5428 15.837 12.6747 15.9688C12.8065 16.1007 12.9854 16.1748 13.1719 16.1748H15.75C15.9365 16.1748 16.1153 16.1007 16.2472 15.9688C16.379 15.837 16.4531 15.6581 16.4531 15.4717V11.956H17.1562C17.2981 11.956 17.4367 11.9131 17.5538 11.8328C17.6708 11.7526 17.7609 11.6388 17.812 11.5065C17.8632 11.3741 17.8731 11.2293 17.8405 11.0912C17.8079 10.9531 17.7342 10.8281 17.6292 10.7327ZM15.0469 11.2529V14.7685H13.875V12.6592C13.875 12.4727 13.8009 12.2938 13.669 12.162C13.5372 12.0301 13.3583 11.956 13.1719 11.956H10.8281C10.6416 11.956 10.4628 12.0301 10.3309 12.162C10.1991 12.2938 10.125 12.4727 10.125 12.6592V14.7685H8.9531V11.2529C8.9531 11.1243 8.9179 10.9982 8.8512 10.8882C8.7846 10.7783 8.689 10.6887 8.575 10.6292L12 7.51562L15.425 10.6292C15.3109 10.6887 15.2154 10.7783 15.1487 10.8882C15.0821 10.9982 15.0468 11.1243 15.0469 11.2529Z" fill="white"/>
</svg>
