<svg width="18" height="18" viewBox="0 0 18 18" fill="none" xmlns="http://www.w3.org/2000/svg">
<path d="M1.18248 8.88894C1.18179 9.37182 1.57268 9.76381 2.05557 9.76449L16.069 9.78423C16.5519 9.78491 16.9439 9.39407 16.9446 8.91118C16.9452 8.4283 16.5543 8.03628 16.0714 8.03559L2.05803 8.01585C1.57515 8.01517 1.18315 8.40606 1.18248 8.88894Z" fill="white"/>
<path d="M8.02584 16.9358C8.36679 17.2777 8.92039 17.2785 9.26232 16.9376L16.6917 9.52909C17.0336 9.18813 17.0344 8.63452 16.6934 8.2926L9.28496 0.863232C8.944 0.5213 8.3904 0.520537 8.04848 0.86149C7.70649 1.20252 7.70577 1.75604 8.04674 2.09797L14.8378 8.90823L8.02758 15.6993C7.68565 16.0403 7.6848 16.5938 8.02584 16.9358Z" fill="white"/>
</svg>
