<svg width="30" height="24" viewBox="0 0 30 24" fill="none" xmlns="http://www.w3.org/2000/svg">
<path d="M24.5077 0.63623C21.9419 0.63623 19.7814 2.40482 19.1812 4.78695H2.19469C1.62064 4.78695 1.07824 5.00697 0.666211 5.40676L0.664922 5.40799L0.660762 5.41197C0.234668 5.82846 0 6.38592 0 6.9816V21.1749C0 21.7794 0.253008 22.3629 0.693984 22.7758L0.696621 22.7783C1.10455 23.1596 1.63652 23.3696 2.19469 23.3696H22.899C23.4554 23.3696 23.9858 23.161 24.393 22.7821C24.396 22.7795 24.3988 22.7768 24.4017 22.774C24.8415 22.3609 25.0936 21.7784 25.0936 21.1749V11.5898C27.8477 11.2964 30 8.9591 30 6.12852C30 3.1001 27.5362 0.63623 24.5077 0.63623ZM2.19469 5.95883H19.0181C19.0164 6.0152 19.0155 6.07174 19.0155 6.12852C19.0155 7.1779 19.3113 8.1594 19.8239 8.9942L12.9298 15.5111H12.1639L2.06695 5.96668C2.10902 5.96146 2.15168 5.95883 2.19469 5.95883ZM1.17188 6.9816C1.17188 6.9049 1.18025 6.8296 1.19654 6.7566L9.40494 14.5158L1.21734 21.4777C1.18764 21.3811 1.17188 21.2795 1.17188 21.1749V6.9816ZM22.899 22.1977H2.19469C2.18988 22.1977 2.1852 22.1971 2.18045 22.197L10.2616 15.3256L11.5283 16.5229C11.6371 16.6258 11.7812 16.683 11.9309 16.683H13.1629C13.3126 16.683 13.4566 16.6257 13.5654 16.5229L14.8321 15.3256L22.9139 22.1976C22.9089 22.1976 22.9039 22.1977 22.899 22.1977ZM23.9218 21.1749C23.9218 21.2795 23.9064 21.3813 23.8766 21.4779L15.6887 14.5157L20.5437 9.9264C21.4169 10.8374 22.6 11.449 23.9218 11.5898V21.1749ZM24.5077 10.449C22.1254 10.449 20.1873 8.5108 20.1873 6.12852C20.1873 3.74621 22.1254 1.80811 24.5077 1.80811C26.89 1.80811 28.8281 3.74621 28.8281 6.12852C28.8281 8.5108 26.89 10.449 24.5077 10.449Z" fill="white"/>
<path d="M24.7045 4.25195H24.0781C23.7545 4.25195 23.4922 4.51434 23.4922 4.83789C23.4922 5.16144 23.7545 5.42383 24.0781 5.42383H24.1186V7.7671C24.1186 8.0906 24.3809 8.353 24.7045 8.353C25.0281 8.353 25.2904 8.0906 25.2904 7.7671V4.83789C25.2904 4.51428 25.0281 4.25195 24.7045 4.25195Z" fill="white"/>
</svg>
