<svg width="30" height="32" viewBox="0 0 30 32" fill="none" xmlns="http://www.w3.org/2000/svg">
<path d="M19.7836 30.253C19.659 30.253 19.5335 30.2421 19.4089 30.2197C15.1192 29.4475 10.843 27.1092 7.36841 23.6346C3.89385 20.16 1.55548 15.8838 0.783285 11.5941C0.6378 10.7845 0.97707 9.94247 1.64766 9.44888C2.50643 8.81688 3.43177 8.22934 4.39745 7.70365C5.0377 7.35525 5.79252 7.33581 6.41805 7.65093C8.55645 8.72882 9.9739 10.5241 10.6309 12.9868C10.8091 13.6532 10.6504 14.3759 10.2066 14.9196L8.78969 16.6534C8.56263 16.9314 8.53495 17.3148 8.72107 17.6076C9.92648 19.5042 11.4988 21.0765 13.3955 22.2816C13.6879 22.4681 14.0713 22.4401 14.3497 22.2133L16.0831 20.7967C16.6271 20.3526 17.3489 20.1942 18.0165 20.3721C20.4789 21.0294 22.2742 22.4469 23.3521 24.5853C23.6675 25.2102 23.6481 25.9653 23.2997 26.6056C22.7737 27.5712 22.1861 28.4966 21.5538 29.3554C21.1365 29.9226 20.4695 30.253 19.7836 30.253ZM5.46974 8.78448C5.32808 8.78448 5.18201 8.82159 5.04654 8.89551C4.13446 9.39204 3.26184 9.94601 2.45224 10.5418C2.19514 10.7312 2.06438 11.0498 2.11916 11.3537C2.84246 15.3737 5.04742 19.3943 8.32791 22.6751C11.6087 25.9556 15.6293 28.1605 19.6493 28.8838C19.9538 28.9383 20.2718 28.8076 20.4609 28.5508C21.057 27.7412 21.611 26.8686 22.1078 25.9565C22.243 25.7079 22.2553 25.4237 22.1405 25.1964C21.2313 23.3931 19.768 22.2439 17.6664 21.6832C17.4202 21.6178 17.1486 21.6788 16.9416 21.8478L15.2084 23.2641C14.476 23.8625 13.4544 23.9279 12.6674 23.427C10.6018 22.1144 8.88865 20.4012 7.57574 18.3356C7.07509 17.5481 7.14047 16.5267 7.7389 15.7946L9.15547 14.0611C9.32422 13.8544 9.38577 13.5837 9.3198 13.3369C8.75907 11.2351 7.60991 9.77166 5.80695 8.86252C5.70328 8.8104 5.58813 8.78448 5.46974 8.78448Z" fill="white"/>
<path d="M28.5623 16.7157C28.5526 16.7157 28.5429 16.7154 28.5334 16.7151C28.1588 16.6995 27.8682 16.3832 27.8838 16.0089C28.0287 12.5511 26.7131 9.16933 24.2746 6.73024C21.8358 4.29174 18.4611 2.96941 14.9959 3.12108C14.6355 3.13051 14.3053 2.84631 14.2897 2.4714C14.2741 2.09709 14.5648 1.78079 14.9391 1.76518C18.7756 1.60261 22.5273 3.06424 25.2341 5.77074C27.9406 8.47724 29.4005 12.2298 29.2397 16.0657C29.2243 16.4303 28.924 16.7157 28.5623 16.7157Z" fill="white"/>
<path d="M24.952 16.7158C24.9387 16.7158 24.9252 16.7155 24.9116 16.7147C24.5373 16.6926 24.2519 16.3716 24.274 15.9975C24.4213 13.4957 23.4924 11.0472 21.7251 9.27989C19.9578 7.51257 17.5078 6.58606 15.0074 6.73095C14.6313 6.75599 14.3124 6.46767 14.2903 6.09335C14.2682 5.71933 14.5536 5.39832 14.9279 5.37623C17.8129 5.20453 20.6437 6.27918 22.6846 8.3204C24.7258 10.3616 25.799 13.1889 25.6287 16.0771C25.6075 16.4378 25.3086 16.7158 24.952 16.7158Z" fill="white"/>
<path d="M21.3457 16.7159C21.3245 16.7159 21.3033 16.7151 21.2818 16.713C20.9086 16.6782 20.6344 16.3475 20.6692 15.9744C20.8129 14.4335 20.2687 12.9227 19.1755 11.8295C18.0823 10.7366 16.5726 10.1918 15.0306 10.3358C14.6578 10.3696 14.3264 10.0963 14.292 9.72321C14.2572 9.35008 14.5314 9.01935 14.9045 8.9846C16.8506 8.80348 18.7555 9.49056 20.135 10.87C21.5147 12.2495 22.2018 14.1561 22.0204 16.1004C21.9877 16.4521 21.692 16.7159 21.3457 16.7159Z" fill="white"/>
</svg>
