<svg width="277" height="81" viewBox="0 0 277 81" fill="none" xmlns="http://www.w3.org/2000/svg">
<g clip-path="url(#clip0_796_3047)">
<path d="M0 2.65244C0 1.79319 0.690277 1.10205 1.54846 1.10205C2.40664 1.10205 3.09692 1.79319 3.09692 2.65244C3.09692 3.51169 2.40664 4.20283 1.54846 4.20283C0.690277 4.20283 0 3.51169 0 2.65244ZM0.167905 10.1865H2.87926V37.8755H0.167905V10.1865Z" fill="white"/>
<path d="M12.389 24.0282C12.389 15.8341 18.4709 9.52051 26.8227 9.52051C31.6919 9.52051 35.8398 11.6811 38.2713 14.8379V15.1181L36.6109 16.4443H36.3373C34.0675 13.7296 30.8089 12.0111 26.8786 12.0111C20.0194 12.0111 15.1501 17.1604 15.1501 24.0842C15.1501 31.008 19.8515 36.0452 27.0403 36.0452C30.6907 36.0452 34.0675 34.5509 36.3311 31.612H36.6047L38.2651 32.9382V33.2184C35.8336 36.3752 31.6857 38.5358 26.8164 38.5358C18.4647 38.5358 12.3828 32.2222 12.3828 24.0282" fill="white"/>
<path d="M70.577 20.7591V37.8694H67.8656V20.9771C67.8656 15.5476 64.3831 12.0047 59.0164 12.0047C53.6496 12.0047 49.6137 15.8278 49.6137 21.195V37.8632H46.9023V0.435959L49.3339 0.105957L49.6137 0.274071V14.5078C51.5477 11.463 54.9804 9.52036 59.4019 9.52036C66.1493 9.52036 70.577 14.0595 70.577 20.7654" fill="white"/>
<path d="M102.547 20.2609V37.8693H99.8914V33.6042C97.6776 36.705 93.8095 38.5356 89.7114 38.5356C83.4056 38.5356 79.0898 34.9927 79.0898 29.7313C79.0898 24.47 83.7352 20.703 90.5385 20.703C94.1329 20.703 97.3418 21.7553 99.8852 23.1375V19.8126C99.8852 15.1614 96.5084 12.0046 91.3656 12.0046C87.9391 12.0046 84.5623 13.4429 82.1308 15.6596H81.8572L80.6383 13.9411V13.7169C83.2937 11.1703 87.3296 9.50781 91.3656 9.50781C98.4487 9.50781 102.541 13.6609 102.541 20.2547M99.8852 27.8945V25.6779C97.8392 24.5136 94.2448 23.1313 90.5945 23.1313C85.3956 23.1313 81.9131 25.79 81.9131 29.7749C81.9131 33.4859 85.122 36.0325 89.8793 36.0325C94.9662 36.0325 99.8914 33.0438 99.8914 27.8883" fill="white"/>
<path d="M127.763 10.5167L126.824 12.6213L126.6 12.7334C125.773 12.2352 124.827 12.0671 123.776 12.0671C119.684 12.0671 116.364 16.1641 116.364 21.9796V37.8758H113.652V10.1867H116.252V14.8939C117.856 11.569 120.673 9.52051 124.162 9.52051C125.431 9.52051 126.593 9.74466 127.644 10.2926L127.756 10.5167H127.763Z" fill="white"/>
<path d="M157.747 10.1869V34.1089C157.747 42.5831 151.938 46.7362 144.638 46.7362C139.327 46.7362 134.737 44.4075 132.194 40.6467V40.3727L133.91 38.9344H134.128C136.286 42.1473 139.88 44.2518 144.694 44.2518C150.782 44.2518 154.979 40.765 154.979 34.1712V30.1302C152.709 33.287 149.003 35.2795 144.47 35.2795C136.839 35.2795 131.305 29.6881 131.305 22.4281C131.305 15.168 136.833 9.52686 144.526 9.52686C149.115 9.52686 152.877 11.5754 155.091 14.7882V10.1931H157.747V10.1869ZM155.091 22.4281C155.091 16.5005 150.775 12.0174 144.582 12.0174C138.388 12.0174 134.128 16.5005 134.128 22.4281C134.128 28.3557 138.332 32.7827 144.582 32.7827C150.831 32.7827 155.091 28.4055 155.091 22.4281Z" fill="white"/>
<path d="M167.426 26.0763C168.987 32.832 174.696 36.157 180.535 35.1919C184.248 34.5754 188.097 32.0911 189.789 28.7786L190.062 28.735L191.928 29.8309L191.972 30.1048C189.994 34.0835 185.467 36.9041 180.996 37.6451C173.521 38.8841 166.021 34.5692 164.56 25.7152C163.204 17.5212 167.806 10.4168 175.722 9.10299C180.032 8.38694 183.769 9.62601 186.493 12.2038C188.912 14.2709 190.653 17.353 191.238 20.9021C191.331 21.4501 191.331 21.7863 191.325 22.1225L167.426 26.0763ZM167.066 23.5546L188.24 20.0491C187.637 17.7391 186.53 15.784 185.063 14.4017C182.88 12.0668 179.839 10.946 176.126 11.5562C170.125 12.5524 166.556 17.4091 167.066 23.5546Z" fill="white"/>
<path d="M277 3.34961V39.9051H275.507L251.609 8.89116V39.351H248.848V3.34961H250.34L274.232 34.4196V3.34961H277Z" fill="#6ABE55"/>
<path d="M227.039 26.5477C228.964 21.8934 226.757 16.5575 222.108 14.6296C217.46 12.7017 212.131 14.9119 210.205 19.5662C208.28 24.2206 210.487 29.5565 215.136 31.4844C219.784 33.4123 225.114 31.2021 227.039 26.5477Z" stroke="#6ABE55" stroke-width="1.84925" stroke-miterlimit="10"/>
<path d="M224.909 4.47705V7.75839C231.127 10.0497 235.58 16.0458 235.58 23.0568C235.58 32.0416 228.279 39.3514 219.306 39.3514C210.332 39.3514 203.031 32.0416 203.031 23.0568C203.031 16.8615 206.501 11.4694 211.594 8.71104V5.25536C204.729 8.24406 199.922 15.0994 199.922 23.0568C199.922 33.7601 208.616 42.4647 219.306 42.4647C229.996 42.4647 238.689 33.7601 238.689 23.0568C238.689 14.3086 232.875 6.89292 224.909 4.47705Z" fill="#6ABE55"/>
<path d="M217.141 0L215.848 8.5178H218.068V14.4454L221.488 6.48174L219.305 6.66854L221.488 0H217.141Z" fill="#6ABE55"/>
<path d="M24.9753 74.8169C24.1855 74.4557 23.5636 73.9514 23.1159 73.3039C22.6619 72.6563 22.4256 71.934 22.3945 71.137H24.0611C24.1358 71.9029 24.4716 72.5754 25.0748 73.1544C25.678 73.7335 26.5549 74.0199 27.7115 74.0199C28.7811 74.0199 29.6207 73.7459 30.2488 73.198C30.8706 72.6501 31.1878 71.9527 31.1878 71.1121C31.1878 70.4335 31.0137 69.8918 30.6716 69.4746C30.3234 69.0636 29.8943 68.7523 29.3844 68.5468C28.8744 68.3414 28.1655 68.1234 27.2638 67.8806C26.2128 67.5942 25.3795 67.314 24.7639 67.0463C24.1482 66.7785 23.6196 66.3551 23.1843 65.7823C22.749 65.2095 22.5313 64.4374 22.5313 63.4598C22.5313 62.6442 22.7428 61.9219 23.1594 61.2806C23.5823 60.6392 24.1731 60.1411 24.938 59.78C25.7029 59.4189 26.5859 59.2383 27.5747 59.2383C29.0299 59.2383 30.2115 59.5932 31.1007 60.3092C31.9962 61.0253 32.5124 61.9468 32.643 63.0738H30.9328C30.8271 62.4262 30.4726 61.8534 29.8756 61.3491C29.2724 60.8447 28.464 60.5956 27.4441 60.5956C26.4989 60.5956 25.7091 60.8447 25.0748 61.3491C24.4405 61.8534 24.1296 62.5383 24.1296 63.4162C24.1296 64.0762 24.3037 64.6117 24.6457 65.0164C24.994 65.4212 25.423 65.7325 25.9392 65.9442C26.4553 66.1559 27.1581 66.38 28.0473 66.6229C29.0672 66.9093 29.8943 67.1895 30.5286 67.4697C31.1567 67.7499 31.6915 68.1733 32.1268 68.7461C32.5621 69.3189 32.7798 70.0848 32.7798 71.0499C32.7798 71.7846 32.5808 72.4882 32.1952 73.1482C31.8034 73.8082 31.2251 74.3437 30.4602 74.7546C29.6953 75.1593 28.7749 75.3648 27.7115 75.3648C26.6481 75.3648 25.7651 75.1842 24.9753 74.8231" fill="white"/>
<path d="M37.8771 64.2074V71.8597C37.8771 72.6131 38.0201 73.1299 38.3062 73.4163C38.5922 73.7028 39.0959 73.846 39.8173 73.846H41.26V75.1971H39.5686C38.4554 75.1971 37.6283 74.9356 37.0873 74.4188C36.5463 73.902 36.2789 73.049 36.2789 71.8597V64.2074H34.5625V62.8749H36.2789V59.7866H37.8771V62.8749H41.26V64.2074H37.8771Z" fill="white"/>
<path d="M43.8855 65.683C44.3892 64.7304 45.0857 63.9894 45.9812 63.4726C46.8767 62.9558 47.8841 62.6943 49.0159 62.6943C50.1477 62.6943 51.1987 62.9621 52.0506 63.5038C52.9026 64.0455 53.512 64.7366 53.8851 65.5772V62.8687H55.4647V75.1908H53.8851V72.4574C53.4934 73.298 52.8777 73.9954 52.0258 74.5433C51.18 75.0912 50.1664 75.3652 48.991 75.3652C47.8157 75.3652 46.8767 75.1037 45.9812 74.5744C45.0857 74.0452 44.3892 73.3042 43.8855 72.3391C43.3817 71.374 43.133 70.2657 43.133 69.0017C43.133 67.7378 43.3817 66.6295 43.8855 65.6706M53.2757 66.4053C52.8715 65.6519 52.318 65.0728 51.6215 64.6681C50.925 64.2634 50.1539 64.0579 49.3082 64.0579C48.4624 64.0579 47.654 64.2572 46.9637 64.6432C46.2734 65.0355 45.7262 65.6021 45.3282 66.3493C44.9302 67.0964 44.7312 67.9806 44.7312 69.0017C44.7312 70.0229 44.9302 70.8946 45.3282 71.6542C45.7262 72.4138 46.2734 72.9929 46.9637 73.3914C47.654 73.7899 48.4376 73.9891 49.3082 73.9891C50.1788 73.9891 50.9188 73.7837 51.6215 73.3789C52.318 72.9742 52.8715 72.3952 53.2757 71.6418C53.6799 70.8884 53.8851 70.0167 53.8851 69.0266C53.8851 68.0366 53.6799 67.1587 53.2757 66.4053Z" fill="white"/>
<path d="M69.2119 62.875L61.9049 81.0002H60.257L62.6512 75.1349L57.6016 62.875H59.3366L63.528 73.3915L67.5888 62.875H69.2119Z" fill="white"/>
<path d="M79.1108 73.9143H84.7698V75.1969H77.5312V59.4253H79.1108V73.9143Z" fill="white"/>
<path d="M86.9997 60.21C86.7759 59.9858 86.6639 59.7057 86.6639 59.3757C86.6639 59.0456 86.7759 58.7717 86.9997 58.5538C87.2236 58.3358 87.4972 58.23 87.8082 58.23C88.1191 58.23 88.3927 58.3358 88.6166 58.5538C88.8405 58.7717 88.9524 59.0456 88.9524 59.3757C88.9524 59.7057 88.8405 59.9858 88.6166 60.21C88.3927 60.4341 88.1191 60.5462 87.8082 60.5462C87.4972 60.5462 87.2236 60.4341 86.9997 60.21ZM88.598 75.1971H87.0184V62.8749H88.598V75.1971Z" fill="white"/>
<path d="M96.5516 73.6654L100.7 62.875H102.372L97.4347 75.1972H95.6499L90.7185 62.875H92.4038L96.5516 73.6654Z" fill="white"/>
<path d="M115.598 69.6489H105.387C105.431 70.5829 105.655 71.3799 106.065 72.0399C106.469 72.6999 107.004 73.2042 107.663 73.5405C108.323 73.8767 109.044 74.051 109.827 74.051C110.847 74.051 111.712 73.802 112.408 73.3039C113.105 72.8057 113.571 72.1395 113.795 71.2927H115.462C115.163 72.4944 114.516 73.4782 113.534 74.2378C112.551 74.9975 111.314 75.3773 109.827 75.3773C108.671 75.3773 107.632 75.1158 106.718 74.599C105.804 74.0822 105.083 73.3412 104.566 72.3886C104.05 71.4359 103.789 70.3152 103.789 69.0387C103.789 67.7623 104.044 66.6415 104.554 65.6764C105.064 64.7113 105.779 63.9766 106.693 63.4661C107.607 62.9555 108.652 62.7002 109.827 62.7002C111.003 62.7002 112.029 62.9555 112.906 63.4661C113.783 63.9766 114.46 64.6678 114.933 65.5332C115.406 66.3987 115.642 67.3576 115.642 68.4099C115.642 68.9516 115.629 69.3687 115.598 69.6489ZM113.49 66.0127C113.105 65.3651 112.582 64.8795 111.923 64.5432C111.264 64.2132 110.543 64.0451 109.759 64.0451C108.59 64.0451 107.589 64.4187 106.762 65.1721C105.935 65.9255 105.474 66.984 105.387 68.3538H114.044C114.056 67.4385 113.876 66.654 113.49 66.0064" fill="white"/>
<path d="M119.977 72.582L117.633 78.4972H116.551L118.217 72.582H119.977Z" fill="white"/>
<path d="M130.651 74.8169C129.861 74.4557 129.239 73.9514 128.792 73.3039C128.338 72.6563 128.101 71.934 128.07 71.137H129.737C129.812 71.9029 130.154 72.5754 130.751 73.1544C131.354 73.7335 132.231 74.0199 133.387 74.0199C134.451 74.0199 135.296 73.7459 135.925 73.198C136.546 72.6501 136.857 71.9527 136.857 71.1121C136.857 70.4335 136.683 69.8918 136.341 69.4746C135.999 69.0636 135.57 68.7523 135.054 68.5468C134.544 68.3414 133.835 68.1234 132.933 67.8806C131.882 67.5942 131.049 67.314 130.433 67.0463C129.818 66.7785 129.289 66.3551 128.854 65.7823C128.419 65.2095 128.201 64.4374 128.201 63.4598C128.201 62.6442 128.412 61.9219 128.829 61.2806C129.252 60.6392 129.843 60.1411 130.608 59.78C131.372 59.4189 132.255 59.2383 133.244 59.2383C134.699 59.2383 135.881 59.5932 136.77 60.3092C137.666 61.0253 138.182 61.9468 138.319 63.0738H136.602C136.497 62.4262 136.142 61.8534 135.545 61.3491C134.942 60.8447 134.134 60.5956 133.107 60.5956C132.162 60.5956 131.372 60.8447 130.738 61.3491C130.104 61.8534 129.793 62.5383 129.793 63.4162C129.793 64.0762 129.967 64.6117 130.309 65.0164C130.651 65.4212 131.086 65.7325 131.603 65.9442C132.119 66.1559 132.821 66.38 133.711 66.6229C134.731 66.9093 135.558 67.1895 136.192 67.4697C136.826 67.7499 137.355 68.1733 137.79 68.7461C138.225 69.3189 138.443 70.0848 138.443 71.0499C138.443 71.7846 138.244 72.4882 137.859 73.1482C137.467 73.8082 136.888 74.3437 136.124 74.7546C135.359 75.1593 134.438 75.3648 133.375 75.3648C132.311 75.3648 131.428 75.1842 130.639 74.8231" fill="white"/>
<path d="M143.554 64.2074V71.8597C143.554 72.6131 143.697 73.1299 143.984 73.4163C144.27 73.7028 144.773 73.846 145.495 73.846H146.937V75.1971H145.246C144.133 75.1971 143.306 74.9356 142.765 74.4188C142.224 73.902 141.956 73.049 141.956 71.8597V64.2074H140.246V62.8749H141.956V59.7866H143.554V62.8749H146.937V64.2074H143.554Z" fill="white"/>
<path d="M149.557 65.683C150.061 64.7304 150.757 63.9894 151.653 63.4726C152.548 62.9558 153.556 62.6943 154.688 62.6943C155.819 62.6943 156.87 62.9621 157.722 63.5038C158.574 64.0455 159.184 64.7366 159.557 65.5772V62.8687H161.136V75.1908H159.557V72.4574C159.165 73.298 158.549 73.9954 157.697 74.5433C156.852 75.0912 155.838 75.3652 154.663 75.3652C153.487 75.3652 152.548 75.1037 151.653 74.5744C150.757 74.0452 150.061 73.3042 149.557 72.3391C149.053 71.374 148.805 70.2657 148.805 69.0017C148.805 67.7378 149.053 66.6295 149.557 65.6706M158.947 66.4053C158.543 65.6519 157.99 65.0728 157.293 64.6681C156.597 64.2634 155.826 64.0579 154.98 64.0579C154.134 64.0579 153.326 64.2572 152.635 64.6432C151.945 65.0355 151.398 65.6021 151 66.3493C150.602 67.0964 150.403 67.9806 150.403 69.0017C150.403 70.0229 150.602 70.8946 151 71.6542C151.398 72.4138 151.939 72.9929 152.635 73.3914C153.326 73.7899 154.109 73.9891 154.98 73.9891C155.85 73.9891 156.591 73.7837 157.293 73.3789C157.99 72.9742 158.543 72.3952 158.947 71.6418C159.352 70.8884 159.557 70.0167 159.557 69.0266C159.557 68.0366 159.352 67.1587 158.947 66.4053Z" fill="white"/>
<path d="M174.892 62.875L167.585 81.0002H165.937L168.331 75.1349L163.281 62.875H165.016L169.208 73.3915L173.268 62.875H174.892Z" fill="white"/>
<path d="M192.332 71.4549H185.162L183.788 75.2032H182.121L187.867 59.6309H189.646L195.373 75.2032H193.707L192.332 71.4549ZM191.86 70.1474L188.75 61.6171L185.641 70.1474H191.866H191.86Z" fill="white"/>
<path d="M206.273 63.2359C207.019 63.6282 207.604 64.2259 208.033 65.0291C208.462 65.8323 208.673 66.8161 208.673 67.9742V75.1969H207.118V68.1548C207.118 66.8161 206.783 65.795 206.117 65.0852C205.446 64.3753 204.538 64.0267 203.381 64.0267C202.224 64.0267 201.248 64.4002 200.539 65.1536C199.83 65.907 199.482 67.0091 199.482 68.4723V75.1969H197.902V58.4976H199.482V64.9731C199.874 64.2384 200.446 63.6655 201.204 63.2546C201.963 62.8499 202.815 62.6444 203.76 62.6444C204.706 62.6444 205.533 62.8374 206.273 63.2297" fill="white"/>
<path d="M223.262 69.6489H213.051C213.095 70.5829 213.319 71.3799 213.729 72.0399C214.133 72.6999 214.668 73.2042 215.327 73.5405C215.987 73.8767 216.708 74.051 217.491 74.051C218.511 74.051 219.376 73.802 220.072 73.3039C220.769 72.8057 221.235 72.1395 221.459 71.2927H223.126C222.827 72.4944 222.18 73.4782 221.198 74.2378C220.215 74.9975 218.978 75.3773 217.491 75.3773C216.335 75.3773 215.296 75.1158 214.382 74.599C213.468 74.0822 212.747 73.3412 212.23 72.3886C211.714 71.4359 211.453 70.3152 211.453 69.0387C211.453 67.7623 211.708 66.6415 212.218 65.6764C212.728 64.7113 213.443 63.9766 214.357 63.4661C215.271 62.9555 216.316 62.7002 217.491 62.7002C218.667 62.7002 219.687 62.9555 220.57 63.4661C221.447 63.9766 222.124 64.6678 222.597 65.5332C223.07 66.3987 223.306 67.3576 223.306 68.4099C223.306 68.9516 223.294 69.3687 223.262 69.6489ZM221.154 66.0127C220.769 65.3651 220.246 64.8795 219.587 64.5432C218.928 64.2132 218.207 64.0451 217.423 64.0451C216.248 64.0451 215.253 64.4187 214.426 65.1721C213.599 65.9255 213.138 66.984 213.051 68.3538H221.708C221.72 67.4385 221.54 66.654 221.154 66.0064" fill="white"/>
<path d="M226.225 65.683C226.729 64.7304 227.425 63.9894 228.321 63.4726C229.216 62.9558 230.224 62.6943 231.356 62.6943C232.487 62.6943 233.538 62.9621 234.39 63.5038C235.242 64.0455 235.852 64.7366 236.225 65.5772V62.8687H237.804V75.1908H236.225V72.4574C235.833 73.298 235.217 73.9954 234.365 74.5433C233.52 75.0912 232.506 75.3652 231.331 75.3652C230.155 75.3652 229.216 75.1037 228.321 74.5744C227.425 74.0452 226.729 73.3042 226.225 72.3391C225.721 71.374 225.473 70.2657 225.473 69.0017C225.473 67.7378 225.721 66.6295 226.225 65.6706M235.615 66.4053C235.211 65.6519 234.658 65.0728 233.961 64.6681C233.265 64.2634 232.494 64.0579 231.648 64.0579C230.802 64.0579 229.994 64.2572 229.303 64.6432C228.613 65.0355 228.066 65.6021 227.668 66.3493C227.27 67.0964 227.071 67.9806 227.071 69.0017C227.071 70.0229 227.27 70.8946 227.668 71.6542C228.066 72.4138 228.613 72.9929 229.303 73.3914C229.994 73.7899 230.777 73.9891 231.648 73.9891C232.518 73.9891 233.258 73.7837 233.961 73.3789C234.658 72.9742 235.211 72.3952 235.615 71.6418C236.02 70.8884 236.225 70.0167 236.225 69.0266C236.225 68.0366 236.02 67.1587 235.615 66.4053Z" fill="white"/>
<path d="M241.452 65.6829C241.962 64.7302 242.665 63.9893 243.561 63.4725C244.456 62.9557 245.463 62.6942 246.595 62.6942C247.727 62.6942 248.654 62.9557 249.524 63.485C250.395 64.0142 251.035 64.6991 251.44 65.5397V58.4976H253.019V75.2032H251.44V72.4511C251.067 73.3103 250.451 74.0139 249.593 74.5618C248.734 75.1098 247.727 75.3837 246.57 75.3837C245.414 75.3837 244.431 75.1222 243.536 74.593C242.64 74.0637 241.944 73.3228 241.44 72.3577C240.936 71.3926 240.688 70.2842 240.688 69.0203C240.688 67.7563 240.942 66.648 241.452 65.6891M250.83 66.4238C250.426 65.6704 249.873 65.0914 249.176 64.6867C248.48 64.2819 247.708 64.0765 246.863 64.0765C246.017 64.0765 245.209 64.2757 244.518 64.6618C243.828 65.054 243.281 65.6206 242.883 66.3678C242.485 67.115 242.286 67.9991 242.286 69.0203C242.286 70.0414 242.485 70.9131 242.883 71.6727C243.281 72.4324 243.828 73.0114 244.518 73.4099C245.209 73.8084 245.992 74.0077 246.863 74.0077C247.733 74.0077 248.473 73.8022 249.176 73.3975C249.873 72.9928 250.426 72.4137 250.83 71.6603C251.234 70.9069 251.44 70.0352 251.44 69.0452C251.44 68.0552 251.234 67.1772 250.83 66.4238Z" fill="white"/>
</g>
<defs>
<clipPath id="clip0_796_3047">
<rect width="277" height="81" fill="white"/>
</clipPath>
</defs>
</svg>
