<svg width="18" height="19" viewBox="0 0 18 19" fill="none" xmlns="http://www.w3.org/2000/svg">
<path d="M12.6373 11.9367C13.5238 9.79643 12.5074 7.34267 10.3671 6.45612C8.22679 5.56957 5.77303 6.58596 4.88649 8.72627C3.99994 10.8666 5.01632 13.3203 7.15663 14.2069C9.29695 15.0934 11.7507 14.0771 12.6373 11.9367Z" stroke="#6ABE55" stroke-width="1.84925" stroke-miterlimit="10"/>
<path d="M11.6015 2V3.46845C14.4889 4.49385 16.5563 7.17718 16.5563 10.3147C16.5563 14.3355 13.1665 17.6068 9 17.6068C4.83349 17.6068 1.4437 14.3355 1.4437 10.3147C1.4437 7.54221 3.05486 5.12916 5.41963 3.89477V2.3483C2.23195 3.68579 0 6.75365 0 10.3147C0 15.1046 4.03657 19 9 19C13.9634 19 18 15.1046 18 10.3147C18 6.39977 15.3003 3.08113 11.6015 2Z" fill="#6ABE55"/>
<path d="M7.68799 0L7 3.53793H8.18082V6L10 2.69224L8.83903 2.76983L10 0H7.68799Z" fill="#6ABE55"/>
</svg>
