<svg width="38" height="38" viewBox="0 0 38 38" fill="none" xmlns="http://www.w3.org/2000/svg">
<circle cx="19" cy="19" r="19" fill="white" fill-opacity="0.12"/>
<circle cx="19" cy="19" r="18.5865" stroke="white" stroke-opacity="0.6" stroke-width="0.827068"/>
<path d="M13.8156 12C12.7178 12 12 12.7209 12 13.6684C12 14.595 12.6964 15.3365 13.7735 15.3365H13.7943C14.9136 15.3365 15.6102 14.595 15.6102 13.6684C15.5893 12.7209 14.9136 12 13.8156 12Z" fill="white"/>
<path d="M12.1875 16.6566H15.3969V26.3123H12.1875V16.6566Z" fill="white"/>
<path d="M23.2777 16.4291C21.5463 16.4291 20.3853 18.056 20.3853 18.056V16.6557H17.1758V26.3114H20.3851V20.9193C20.3851 20.6307 20.4061 20.3424 20.4909 20.136C20.7229 19.5596 21.2509 18.9624 22.1375 18.9624C23.2989 18.9624 23.7633 19.8479 23.7633 21.1459V26.3114H26.9725V20.775C26.9725 17.8092 25.3891 16.4291 23.2777 16.4291Z" fill="white"/>
</svg>
