<svg width="112" height="36" viewBox="0 0 112 36" fill="none" xmlns="http://www.w3.org/2000/svg">
<path d="M8.49669 4.37477C8.49669 5.37472 8.2467 6.37466 7.49674 6.99963C6.74678 7.74959 5.87182 8.24957 4.62188 8.24957C3.37195 8.24957 2.497 7.74959 1.74704 6.99963C0.997079 6.24967 0.497105 5.24972 0.497105 4.12478C0.497105 2.87484 0.997079 1.9999 1.74704 1.24993C2.497 0.499974 3.49694 0 4.62188 0C5.24685 0 5.62184 0.12499 6.2468 0.249983C6.74678 0.374977 7.12176 0.749953 7.49674 1.12493L6.74678 1.8749C6.2468 1.24993 5.49684 0.999942 4.62188 0.999942C3.74693 0.999942 3.12197 1.24993 2.497 1.8749C1.87203 2.49987 1.62205 3.24982 1.62205 4.12478C1.62205 4.99973 1.87203 5.7497 2.497 6.37466C3.12197 6.99963 3.87192 7.24961 4.62188 7.24961C5.49684 7.24961 6.2468 6.99963 6.87177 6.37466C7.37174 5.87469 7.49674 5.49971 7.49674 4.74975H4.62188V3.7498H8.37169C8.49668 4.12478 8.49669 4.24978 8.49669 4.37477ZM14.4964 1.24993H10.8716V3.8748H14.2464V4.62475H10.8716V7.12462H14.4964V7.99957H9.87162V0.124992H14.4964V1.24993ZM18.8711 7.99957H17.8712V1.24993H15.6213V0.249983H20.996V1.12493H18.7462V8.12458H18.8711V7.99957ZM24.8708 7.99957V0.124992H25.8708V7.99957H24.8708ZM30.4955 7.99957H29.4956V1.24993H27.3707V0.249983H32.7454V1.12493H30.4955V7.99957ZM42.9949 7.12462C42.2449 7.87458 41.245 8.37456 40.12 8.37456C38.8701 8.37456 37.9952 7.87458 37.2452 7.12462C36.4952 6.37466 35.9953 5.37471 35.9953 4.24977C35.9953 3.24982 36.4952 2.12489 37.2452 1.37493C37.8702 0.499972 38.8701 0 39.995 0C41.245 0 42.1199 0.499974 42.8699 1.24993C43.6199 1.9999 44.1198 2.99984 44.1198 4.12478C44.1198 5.24972 43.7448 6.12468 42.9949 7.12462ZM37.8702 6.37466C38.4951 6.99963 39.2451 7.24961 39.995 7.24961C40.745 7.24961 41.495 6.99963 42.1199 6.37466C42.7449 5.7497 42.9949 4.99973 42.9949 4.12478C42.9949 3.24982 42.7449 2.49987 42.1199 1.8749C41.495 1.24993 40.745 0.999942 39.995 0.999942C39.2451 0.999942 38.4951 1.24993 37.8702 1.8749C37.2452 2.49987 36.9952 3.24982 36.9952 4.12478C36.9952 4.99973 37.2452 5.7497 37.8702 6.37466ZM45.6197 7.99957V0.124992H46.8697L50.6195 6.37466V0.124992H51.6194V7.99957H50.6195L46.4947 1.49992V7.99957H45.6197Z" fill="#262323"/>
<path d="M35.7481 19.6257C32.6233 19.6257 30.1234 22.0006 30.1234 25.2504C30.1234 28.3752 32.6233 30.8751 35.7481 30.8751C38.873 30.8751 41.3728 28.5002 41.3728 25.2504C41.3728 21.8756 38.748 19.6257 35.7481 19.6257ZM35.7481 28.5002C34.1232 28.5002 32.6233 27.1253 32.6233 25.1254C32.6233 23.1255 34.1232 21.7506 35.7481 21.7506C37.373 21.7506 38.873 23.1255 38.873 25.1254C38.998 27.1253 37.373 28.5002 35.7481 28.5002ZM23.6238 19.6257C20.4989 19.6257 17.9991 22.0006 17.9991 25.2504C17.9991 28.3752 20.4989 30.8751 23.6238 30.8751C26.7486 30.8751 29.2485 28.5002 29.2485 25.2504C29.1235 21.8756 26.6236 19.6257 23.6238 19.6257ZM23.6238 28.5002C21.9989 28.5002 20.4989 27.1253 20.4989 25.1254C20.4989 23.1255 21.9989 21.7506 23.6238 21.7506C25.2487 21.7506 26.7486 23.1255 26.7486 25.1254C26.7486 27.1253 25.2487 28.5002 23.6238 28.5002ZM8.99952 21.2506V23.6255H14.7492C14.6242 25.0004 14.1243 25.8754 13.3743 26.6253C12.6243 27.3753 11.2494 28.3752 8.99952 28.3752C5.49971 28.3752 2.87485 25.5004 2.87485 22.0006C2.87485 18.5007 5.6247 15.6259 8.99952 15.6259C10.9994 15.6259 12.3744 16.3759 13.2493 17.2508L14.8742 15.6259C13.4993 14.501 11.4994 13.376 8.74954 13.376C3.8748 13.376 0 17.2508 0 22.1256C0 27.0003 4.12478 30.8751 8.74954 30.8751C11.2494 30.8751 13.2493 30.0001 14.7492 28.5002C16.2492 27.0003 16.8741 24.7504 16.8741 22.8755C16.8741 22.2505 16.8741 21.8756 16.7491 21.3756L8.99952 21.2506ZM68.4964 23.1255C67.9964 21.8756 66.7465 19.6257 63.8717 19.6257C60.9968 19.6257 58.6219 21.8756 58.6219 25.2504C58.6219 28.3752 60.9968 30.8751 64.2466 30.8751C66.7465 30.8751 68.3714 29.3752 68.8714 28.5002L66.8715 27.2503C66.2465 28.1252 65.3716 28.7502 64.1216 28.7502C62.8717 28.7502 61.9968 28.1252 61.3718 27.1253L68.8714 24.0005L68.4964 23.1255ZM60.9968 25.0004C60.9968 22.8755 62.6217 21.6256 63.8717 21.6256C64.7466 21.6256 65.6216 22.1256 65.9966 22.8755L60.9968 25.0004ZM54.7471 30.5001H57.122V14.001H54.7471V30.5001ZM50.8723 20.8756C50.2474 20.2507 49.2474 19.6257 47.8725 19.6257C44.9976 19.6257 42.4978 22.0006 42.4978 25.2504C42.4978 28.3752 44.9976 30.8751 47.8725 30.8751C49.2474 30.8751 50.2474 30.2501 50.8723 29.6252H50.9973V30.3751C50.9973 32.5 49.7474 33.75 47.9975 33.75C46.4976 33.75 45.6226 32.75 45.1226 31.75L42.9977 32.625C43.6227 34.1249 45.2476 35.9998 47.9975 35.9998C50.8723 35.9998 53.2472 34.3749 53.2472 30.1251V20.0007H50.9973L50.8723 20.8756ZM47.9975 28.5002C46.3726 28.5002 44.8727 27.1253 44.8727 25.1254C44.8727 23.1255 46.2476 21.6256 47.9975 21.6256C49.6224 21.6256 50.9973 23.1255 50.9973 25.1254C50.9973 27.1253 49.6224 28.5002 47.9975 28.5002ZM80.1208 14.001H74.2461V30.5001H76.621V24.1254H80.1208C82.8707 24.1254 85.4955 22.1256 85.4955 19.0007C85.4955 15.8759 82.7457 14.001 80.1208 14.001ZM80.1208 21.8756H76.621V16.2509H80.1208C81.8707 16.2509 82.9956 17.7508 82.9956 19.1257C82.8707 20.3756 81.8707 21.8756 80.1208 21.8756ZM95.245 19.6257C93.4951 19.6257 91.6202 20.3756 90.8702 22.2505L92.9951 23.1255C93.4951 22.2506 94.3701 21.8756 95.245 21.8756C96.4949 21.8756 97.7449 22.6255 97.7449 24.0005V24.1254C97.2449 23.8755 96.37 23.5005 95.245 23.5005C92.8701 23.5005 90.6203 24.8754 90.6203 27.2503C90.6203 29.5002 92.6202 30.8751 94.745 30.8751C96.37 30.8751 97.2449 30.1251 97.8699 29.2502H97.9949V30.5001H100.37V24.1254C100.245 21.1256 97.9949 19.6257 95.245 19.6257ZM94.995 28.5002C94.2451 28.5002 92.9951 28.0002 92.9951 27.1253C92.9951 25.8754 94.3701 25.3754 95.495 25.3754C96.4949 25.3754 97.1199 25.6254 97.7449 26.0004C97.7449 27.5003 96.37 28.5002 94.995 28.5002ZM108.869 19.8757L105.994 27.0003H105.869L102.995 19.8757H100.245L104.62 29.8751L102.12 35.4999H104.62L111.369 20.0007H108.869V19.8757ZM86.8705 30.5001H89.2453V14.001H86.8705V30.5001Z" fill="#262323"/>
</svg>
