<svg width="74" height="74" viewBox="0 0 74 74" fill="none" xmlns="http://www.w3.org/2000/svg">
<g id="fi_3775203">
<path id="Vector" d="M57.7736 23.8649C57.2452 23.2035 56.6786 22.5606 56.0889 21.9536L54.4297 23.5631C54.9673 24.1181 55.4853 24.7055 55.9675 25.3091L57.7736 23.8649Z" fill="#2D2929"/>
<path id="Vector_2" d="M58.5142 29.1988L60.5619 28.1246C60.1664 27.3719 59.7317 26.6319 59.2703 25.9277L57.3359 27.1996C57.7568 27.8379 58.1534 28.512 58.5142 29.1988Z" fill="#2D2929"/>
<path id="Vector_3" d="M54.2299 20.2112C53.5847 19.6631 52.9071 19.1393 52.2145 18.656L50.8906 20.5499C51.5219 20.9928 52.1417 21.4749 52.7314 21.9733L54.2299 20.2112Z" fill="#2D2929"/>
<path id="Vector_4" d="M61.166 38.0637L63.4681 37.8324C63.3848 36.9849 63.26 36.1362 63.0969 35.3083L60.8284 35.7558C60.9741 36.5155 61.0885 37.2902 61.166 38.0637Z" fill="#2D2929"/>
<path id="Vector_5" d="M60.2657 33.5033L62.4811 32.8396C62.2394 32.0302 61.9538 31.2208 61.6347 30.4369L59.4922 31.3087C59.7847 32.0279 60.0449 32.7633 60.2657 33.5033Z" fill="#2D2929"/>
<path id="Vector_6" d="M61.1794 42.7129L63.4815 42.9245C63.5555 42.1151 63.5972 41.2884 63.5972 40.3807L61.2812 40.4686C61.2812 41.2179 61.2465 41.9717 61.1794 42.7129Z" fill="#2D2929"/>
<path id="Vector_7" d="M31.3359 66.4566C32.0771 66.6174 32.8333 66.748 33.5848 66.844L33.8774 64.5511C33.1929 64.4621 32.5026 64.343 31.8273 64.1962L31.3359 66.4566Z" fill="#2D2929"/>
<path id="Vector_8" d="M35.9443 64.7267L35.8438 67.0392C36.2269 67.0547 36.6111 67.0624 36.9965 67.0624C37.3746 67.0624 37.7504 67.0543 38.1262 67.0381L38.0279 64.7256C37.3353 64.758 36.6346 64.7568 35.9443 64.7267Z" fill="#2D2929"/>
<path id="Vector_9" d="M26.9766 65.1084C27.6819 65.3951 28.4045 65.6541 29.1249 65.8761L29.8071 63.6665C29.1515 63.4642 28.4924 63.2283 27.8484 62.9658L26.9766 65.1084Z" fill="#2D2929"/>
<path id="Vector_10" d="M44.1719 63.6734L44.8529 65.883C45.5767 65.6598 46.2994 65.4008 47.0024 65.1153L46.1375 62.9739C45.4958 63.234 44.8356 63.4699 44.1719 63.6734Z" fill="#2D2929"/>
<path id="Vector_11" d="M40.1094 64.5521L40.4019 66.8461C41.1523 66.7502 41.905 66.6149 42.6508 66.4599L42.1617 64.1995C41.4842 64.3463 40.7939 64.4654 40.1094 64.5521Z" fill="#2D2929"/>
<path id="Vector_12" d="M12.8193 42.6863C12.7523 41.9544 12.7188 41.2075 12.7188 40.4687V40.353L10.4062 40.4687C10.4062 41.278 10.4433 42.0932 10.5219 42.8968L12.8193 42.6863Z" fill="#2D2929"/>
<path id="Vector_13" d="M14.5135 31.2903L12.3721 30.415C12.053 31.1967 11.7674 32.0049 11.5234 32.8166L13.7388 33.4814C13.9608 32.7403 14.2221 32.0037 14.5135 31.2903Z" fill="#2D2929"/>
<path id="Vector_14" d="M23.1217 20.5419L21.7989 18.6456C21.1052 19.1313 20.4241 19.655 19.7812 20.2019L21.2717 21.9687C21.8637 21.4634 22.4822 20.9847 23.1217 20.5419Z" fill="#2D2929"/>
<path id="Vector_15" d="M13.1834 35.7372L10.9125 35.2886C10.7483 36.1188 10.6235 36.9674 10.5391 37.8092L12.8412 38.0405C12.9163 37.2692 13.0319 36.4945 13.1834 35.7372Z" fill="#2D2929"/>
<path id="Vector_16" d="M16.6712 27.1787L14.738 25.9069C14.2755 26.6156 13.8384 27.3545 13.4453 28.1037L15.4919 29.1802C15.8515 28.5003 16.2481 27.8262 16.6712 27.1787Z" fill="#2D2929"/>
<path id="Vector_17" d="M19.5783 23.5538L17.9202 21.942C17.3317 22.5467 16.7639 23.1896 16.2344 23.8498L18.0381 25.2975C18.5238 24.6927 19.0418 24.1065 19.5783 23.5538Z" fill="#2D2929"/>
<path id="Vector_18" d="M60.1236 45.0936C58.3458 45.0945 56.5882 45.4696 54.9649 46.1943C53.3416 46.919 51.8889 47.9771 50.7013 49.3L43.1591 43.6436C43.6617 42.675 43.928 41.6011 43.9362 40.5099C43.9443 39.4186 43.6942 38.3409 43.2061 37.3648C42.7181 36.3887 42.006 35.542 41.1281 34.8937C40.2502 34.2455 39.2313 33.8142 38.1548 33.6351V28.8471C41.4143 28.5496 44.4336 27.0069 46.5847 24.54C48.7358 22.0731 49.8531 18.8719 49.7042 15.6023C49.5552 12.3327 48.1516 9.2463 45.7851 6.98518C43.4187 4.72407 40.2716 3.46228 36.9986 3.46228C33.7256 3.46228 30.5785 4.72407 28.2121 6.98518C25.8456 9.2463 24.4419 12.3327 24.293 15.6023C24.1441 18.8719 25.2614 22.0731 27.4125 24.54C29.5636 27.0069 32.5829 28.5496 35.8423 28.8471V33.6351C34.7658 33.8144 33.747 34.2459 32.8691 34.8942C31.9911 35.5425 31.2791 36.3894 30.7911 37.3655C30.303 38.3417 30.0529 39.4195 30.0611 40.5108C30.0692 41.6021 30.3355 42.6761 30.8381 43.6448L23.297 49.3C21.0972 46.8629 18.0424 45.3677 14.7682 45.1255C11.494 44.8833 8.25247 45.9129 5.71802 47.9999C3.18357 50.0869 1.55133 53.0707 1.16088 56.3305C0.770438 59.5904 1.65184 62.8753 3.62173 65.5018C5.59162 68.1283 8.49832 69.8942 11.7371 70.4322C14.9759 70.9701 18.2974 70.2386 21.0105 68.3899C23.7237 66.5412 25.6197 63.7176 26.304 60.5066C26.9883 57.2955 26.4082 53.9443 24.6845 51.15L32.2267 45.4948C33.5114 46.7229 35.2202 47.4082 36.9974 47.4082C38.7747 47.4082 40.4834 46.7229 41.7681 45.4948L49.3103 51.15C47.8385 53.5465 47.2033 56.3637 47.5044 59.1599C47.8055 61.9561 49.0258 64.5735 50.9741 66.6017C52.9224 68.6299 55.4886 69.9545 58.2705 70.3677C61.0523 70.781 63.8927 70.2596 66.3464 68.8852C68.8002 67.5109 70.7286 65.3613 71.8295 62.7734C72.9304 60.1854 73.1416 57.3053 72.4299 54.5844C71.7183 51.8635 70.124 49.4557 67.897 47.7381C65.6699 46.0206 62.936 45.0905 60.1236 45.0936ZM9.24859 67.1201V64.7498C9.24859 63.5232 9.73586 62.3468 10.6032 61.4795C11.4706 60.6121 12.647 60.1248 13.8736 60.1248C15.1002 60.1248 16.2766 60.6121 17.144 61.4795C18.0113 62.3468 18.4986 63.5232 18.4986 64.7498V67.1201C17.0637 67.842 15.4798 68.218 13.8736 68.218C12.2674 68.218 10.6834 67.842 9.24859 67.1201ZM11.5611 55.4998V54.3436C11.5611 53.7303 11.8047 53.1421 12.2384 52.7084C12.6721 52.2747 13.2603 52.0311 13.8736 52.0311C14.4869 52.0311 15.0751 52.2747 15.5088 52.7084C15.9425 53.1421 16.1861 53.7303 16.1861 54.3436V55.4998C16.1861 56.1131 15.9425 56.7013 15.5088 57.135C15.0751 57.5687 14.4869 57.8123 13.8736 57.8123C13.2603 57.8123 12.6721 57.5687 12.2384 57.135C11.8047 56.7013 11.5611 56.1131 11.5611 55.4998ZM20.8111 65.5465V64.7498C20.8104 63.5086 20.4767 62.2904 19.8448 61.222C19.2129 60.1537 18.306 59.2745 17.2186 58.676C18.0382 57.8215 18.4966 56.6838 18.4986 55.4998V54.3436C18.4986 53.117 18.0113 51.9406 17.144 51.0732C16.2766 50.2059 15.1002 49.7186 13.8736 49.7186C12.647 49.7186 11.4706 50.2059 10.6032 51.0732C9.73586 51.9406 9.24859 53.117 9.24859 54.3436V55.4998C9.25053 56.6838 9.70899 57.8215 10.5286 58.676C9.44117 59.2745 8.53426 60.1537 7.90238 61.222C7.2705 62.2904 6.93681 63.5086 6.93609 64.7498V65.5465C5.36523 64.1415 4.25801 62.2926 3.76093 60.2445C3.26385 58.1965 3.40035 56.0457 4.15236 54.0769C4.90437 52.1082 6.23645 50.4141 7.97233 49.2189C9.70821 48.0238 11.7661 47.3839 13.8736 47.3839C15.9811 47.3839 18.039 48.0238 19.7749 49.2189C21.5107 50.4141 22.8428 52.1082 23.5948 54.0769C24.3468 56.0457 24.4833 58.1965 23.9862 60.2445C23.4892 62.2926 22.3819 64.1415 20.8111 65.5465ZM34.6861 13.8748V12.7186C34.6861 12.1053 34.9297 11.5171 35.3634 11.0834C35.7971 10.6497 36.3853 10.4061 36.9986 10.4061C37.6119 10.4061 38.2001 10.6497 38.6338 11.0834C39.0675 11.5171 39.3111 12.1053 39.3111 12.7186V13.8748C39.3111 14.4881 39.0675 15.0763 38.6338 15.51C38.2001 15.9437 37.6119 16.1873 36.9986 16.1873C36.3853 16.1873 35.7971 15.9437 35.3634 15.51C34.9297 15.0763 34.6861 14.4881 34.6861 13.8748ZM36.9986 18.4998C38.2252 18.4998 39.4016 18.9871 40.269 19.8545C41.1363 20.7218 41.6236 21.8982 41.6236 23.1248V25.4951C40.1887 26.217 38.6048 26.593 36.9986 26.593C35.3924 26.593 33.8084 26.217 32.3736 25.4951V23.1248C32.3736 21.8982 32.8609 20.7218 33.7282 19.8545C34.5956 18.9871 35.772 18.4998 36.9986 18.4998ZM26.5923 16.1873C26.5886 14.4506 27.0197 12.7405 27.8462 11.213C28.6727 9.6855 29.8683 8.38915 31.3242 7.44211C32.78 6.49508 34.4497 5.92748 36.1811 5.79105C37.9125 5.65463 39.6506 5.95372 41.2368 6.66106C42.823 7.3684 44.2069 8.46149 45.2624 9.8407C46.3179 11.2199 47.0115 12.8414 47.2798 14.5573C47.5482 16.2732 47.3828 18.029 46.7988 19.6646C46.2147 21.3002 45.2306 22.7636 43.9361 23.9215V23.1248C43.9354 21.8836 43.6017 20.6654 42.9698 19.5971C42.3379 18.5287 41.431 17.6495 40.3436 17.0511C41.1632 16.1965 41.6216 15.0589 41.6236 13.8748V12.7186C41.6236 11.492 41.1363 10.3156 40.269 9.44821C39.4016 8.58086 38.2252 8.09358 36.9986 8.09358C35.772 8.09358 34.5956 8.58086 33.7282 9.44821C32.8609 10.3156 32.3736 11.492 32.3736 12.7186V13.8748C32.3755 15.0589 32.834 16.1965 33.6536 17.0511C32.5662 17.6495 31.6593 18.5287 31.0274 19.5971C30.3955 20.6654 30.0618 21.8836 30.0611 23.1248V23.9215C28.9709 22.9492 28.0984 21.7577 27.5006 20.4249C26.9029 19.0921 26.5934 17.6481 26.5923 16.1873ZM36.9986 45.0936C36.0838 45.0936 35.1897 44.8223 34.4291 44.3141C33.6685 43.8059 33.0757 43.0836 32.7256 42.2385C32.3756 41.3934 32.284 40.4634 32.4625 39.5663C32.6409 38.6691 33.0814 37.845 33.7282 37.1982C34.375 36.5514 35.1991 36.1109 36.0963 35.9324C36.9935 35.754 37.9234 35.8456 38.7685 36.1956C39.6136 36.5457 40.3359 37.1385 40.8441 37.8991C41.3523 38.6596 41.6236 39.5538 41.6236 40.4686C41.6236 41.6952 41.1363 42.8716 40.269 43.7389C39.4016 44.6063 38.2252 45.0936 36.9986 45.0936ZM55.4986 67.1201V64.7498C55.4986 63.5232 55.9859 62.3468 56.8532 61.4795C57.7206 60.6121 58.897 60.1248 60.1236 60.1248C61.3502 60.1248 62.5266 60.6121 63.394 61.4795C64.2613 62.3468 64.7486 63.5232 64.7486 64.7498V67.1201C63.3137 67.842 61.7298 68.218 60.1236 68.218C58.5174 68.218 56.9334 67.842 55.4986 67.1201ZM57.8111 55.4998V54.3436C57.8111 53.7303 58.0547 53.1421 58.4884 52.7084C58.9221 52.2747 59.5103 52.0311 60.1236 52.0311C60.7369 52.0311 61.3251 52.2747 61.7588 52.7084C62.1924 53.1421 62.4361 53.7303 62.4361 54.3436V55.4998C62.4361 56.1131 62.1924 56.7013 61.7588 57.135C61.3251 57.5687 60.7369 57.8123 60.1236 57.8123C59.5103 57.8123 58.9221 57.5687 58.4884 57.135C58.0547 56.7013 57.8111 56.1131 57.8111 55.4998ZM67.0611 65.5465V64.7498C67.0604 63.5086 66.7267 62.2904 66.0948 61.222C65.4629 60.1537 64.556 59.2745 63.4686 58.676C64.2882 57.8215 64.7466 56.6838 64.7486 55.4998V54.3436C64.7486 53.117 64.2613 51.9406 63.394 51.0732C62.5266 50.2059 61.3502 49.7186 60.1236 49.7186C58.897 49.7186 57.7206 50.2059 56.8532 51.0732C55.9859 51.9406 55.4986 53.117 55.4986 54.3436V55.4998C55.5005 56.6838 55.959 57.8215 56.7786 58.676C55.6912 59.2745 54.7843 60.1537 54.1524 61.222C53.5205 62.2904 53.1868 63.5086 53.1861 64.7498V65.5465C51.6152 64.1415 50.508 62.2926 50.0109 60.2445C49.5138 58.1965 49.6503 56.0457 50.4024 54.0769C51.1544 52.1082 52.4864 50.4141 54.2223 49.2189C55.9582 48.0238 58.0161 47.3839 60.1236 47.3839C62.2311 47.3839 64.289 48.0238 66.0248 49.2189C67.7607 50.4141 69.0928 52.1082 69.8448 54.0769C70.5968 56.0457 70.7333 58.1965 70.2362 60.2445C69.7392 62.2926 68.6319 64.1415 67.0611 65.5465Z" fill="#6ABE55"/>
</g>
</svg>
