<svg width="97" height="13" viewBox="0 0 97 13" fill="none" xmlns="http://www.w3.org/2000/svg">
<mask id="mask0_796_3081" style="mask-type:luminance" maskUnits="userSpaceOnUse" x="0" y="0" width="97" height="13">
<path d="M97 0H0V12.6305H97V0Z" fill="white"/>
</mask>
<g mask="url(#mask0_796_3081)">
<path d="M2.20846 9.90891L1.48332 10.3859L1.17402 9.65815L1.89916 9.18111L2.20846 9.90891Z" fill="#F7D909"/>
<mask id="mask1_796_3081" style="mask-type:luminance" maskUnits="userSpaceOnUse" x="6" y="4" width="5" height="4">
<path d="M9.17882 4.3908L6.93811 5.86369L7.79899 7.91593L10.0397 6.4416L9.17882 4.3908Z" fill="white"/>
</mask>
<g mask="url(#mask1_796_3081)">
<path d="M6.93811 7.65469L10.0397 7.82763V7.91699H6.93811V7.65469Z" fill="#E7C012"/>
<path d="M6.93811 7.57714L10.0397 7.75009V7.82647L6.93811 7.65353V7.57714Z" fill="#E7C012"/>
<path d="M6.93811 7.50156L10.0397 7.6745V7.75088L6.93811 7.57794V7.50156Z" fill="#E7C112"/>
<path d="M6.93811 7.42499L10.0397 7.59793V7.67432L6.93811 7.50137V7.42499Z" fill="#E8C211"/>
<path d="M6.93811 7.34646L10.0397 7.52085V7.59723L6.93811 7.42429V7.34646Z" fill="#E8C311"/>
<path d="M6.93811 7.27088L10.0397 7.44382V7.52164L6.93811 7.34726V7.27088Z" fill="#E9C411"/>
<path d="M6.93811 7.19529L10.0397 7.36823V7.44462L6.93811 7.27168V7.19529Z" fill="#E9C510"/>
<path d="M6.93811 7.11774L10.0397 7.29069V7.36707L6.93811 7.19413V7.11774Z" fill="#EAC610"/>
<path d="M6.93811 7.0402L10.0397 7.21314V7.28952L6.93811 7.11658V7.0402Z" fill="#EAC710"/>
<path d="M6.93811 6.96265L10.0397 7.13703V7.21341L6.93811 7.04047V6.96265Z" fill="#EBC810"/>
<path d="M6.93811 6.88706L10.0397 7.06001V7.13783L6.93811 6.96345V6.88706Z" fill="#EBC90F"/>
<path d="M6.93811 6.80951L10.0397 6.98246V7.05884L6.93811 6.8859V6.80951Z" fill="#ECCA0F"/>
<path d="M6.93811 6.73393L10.0397 6.90687V6.98325L6.93811 6.81031V6.73393Z" fill="#ECCB0F"/>
<path d="M6.93811 6.65834L10.0397 6.83129V6.90767L6.93811 6.73473V6.65834Z" fill="#ECCC0E"/>
<path d="M6.93811 6.57883L10.0397 6.75178V6.8296L6.93811 6.65666V6.57883Z" fill="#EDCD0E"/>
<path d="M6.93811 6.50325L10.0397 6.67619V6.75257L6.93811 6.57963V6.50325Z" fill="#EDCE0E"/>
<path d="M6.93811 6.42766L10.0397 6.60061V6.67699L6.93811 6.50405V6.42766Z" fill="#EECF0D"/>
<path d="M6.93811 6.35208L10.0397 6.52502V6.6014L6.93811 6.42846V6.35208Z" fill="#EED00D"/>
<path d="M6.93811 6.27257L10.0397 6.44695V6.52333L6.93811 6.35039V6.27257Z" fill="#EFD20D"/>
<path d="M6.93811 6.19698L10.0397 6.36992V6.44775L6.93811 6.27336V6.19698Z" fill="#EFD30D"/>
<path d="M6.93811 6.11943L10.0397 6.29238V6.36876L6.93811 6.19582V6.11943Z" fill="#F0D40C"/>
<path d="M6.93811 6.04385L10.0397 6.21679V6.29317L6.93811 6.12023V6.04385Z" fill="#F0D50C"/>
<path d="M6.93811 5.96826L10.0397 6.14121V6.21759L6.93811 6.04465V5.96826Z" fill="#F1D60C"/>
<path d="M6.93811 5.89072L10.0397 6.0651V6.14148L6.93811 5.96854V5.89072Z" fill="#F1D70B"/>
<path d="M6.93811 5.81317L10.0397 5.98611V6.06393L6.93811 5.88955V5.81317Z" fill="#F1D80B"/>
<path d="M6.93811 5.73562L10.0397 5.90856V5.98494L6.93811 5.812V5.73562Z" fill="#F2D90B"/>
<path d="M6.93811 5.66003L10.0397 5.83298V5.90936L6.93811 5.73642V5.66003Z" fill="#F2DA0A"/>
<path d="M6.93811 5.58445L10.0397 5.75739V5.83377L6.93811 5.66083V5.58445Z" fill="#F3DB0A"/>
<path d="M6.93811 5.50592L10.0397 5.67886V5.7567L6.93811 5.58376V5.50592Z" fill="#F3DC0A"/>
<path d="M6.93811 5.42935L10.0397 5.6023V5.67868L6.93811 5.50574V5.42935Z" fill="#F4DD0A"/>
<path d="M6.93811 5.35377L10.0397 5.52671V5.60309L6.93811 5.43015V5.35377Z" fill="#F4DE09"/>
<path d="M6.93811 5.27622L10.0397 5.44916V5.52555L6.93811 5.3526V5.27622Z" fill="#F5DF09"/>
<path d="M6.93811 5.19965L10.0397 5.37404V5.45042L6.93811 5.27748V5.19965Z" fill="#F5E009"/>
<path d="M6.93811 5.12309L10.0397 5.29603V5.37385L6.93811 5.19947V5.12309Z" fill="#F6E108"/>
<path d="M6.93811 5.0475L10.0397 5.22044V5.29683L6.93811 5.12389V5.0475Z" fill="#F6E208"/>
<path d="M10.0397 5.21948L6.93811 5.04654V4.3908H10.0397V5.21948Z" fill="#F6E208"/>
</g>
<path d="M6.57494 6.10569L2.22239 8.96932L2.52826 9.69856L6.88424 6.83349L6.57494 6.10569Z" fill="#C1C1C1"/>
<mask id="mask2_796_3081" style="mask-type:luminance" maskUnits="userSpaceOnUse" x="1" y="4" width="4" height="5">
<path d="M3.26945 4.6686L1.02874 6.14293L2.03568 8.53962L4.27639 7.06529L3.26945 4.6686Z" fill="white"/>
</mask>
<g mask="url(#mask2_796_3081)">
<path d="M4.2753 4.76227L3.98146 4.6686H4.2753V4.76227Z" fill="#8E8E90"/>
<path d="M4.2759 4.89342L3.57311 4.6686H3.98207L4.2759 4.76227V4.89342Z" fill="#8F8F91"/>
<path d="M4.27651 5.02313L3.16475 4.6686H3.57371L4.27651 4.89342V5.02313Z" fill="#909092"/>
<path d="M4.27712 5.15428L2.7564 4.6686H3.16536L4.27712 5.02313V5.15428Z" fill="#919193"/>
<path d="M4.27773 5.28542L2.34804 4.6686H2.757L4.27773 5.15428V5.28542Z" fill="#919193"/>
<path d="M4.27834 5.41513L1.93969 4.6686H2.34865L4.27834 5.28542V5.41513Z" fill="#929294"/>
<path d="M4.27723 5.54628L1.53133 4.6686H1.93858L4.27723 5.41513V5.54628Z" fill="#939395"/>
<path d="M4.27631 5.67598L1.30359 4.72768L1.33109 4.6686H1.53041L4.27631 5.54628V5.67598Z" fill="#949496"/>
<path d="M4.27682 5.80694L1.25255 4.84135L1.3041 4.72749L4.27682 5.67579V5.80694Z" fill="#959597"/>
<path d="M4.27732 5.93666L1.20151 4.95521L1.25306 4.84136L4.27732 5.80695V5.93666Z" fill="#969698"/>
<path d="M4.2739 6.06782L1.14653 5.06908L1.19809 4.95523L4.2739 5.93668V6.06782Z" fill="#979799"/>
<path d="M4.27834 6.19755L1.09942 5.18295L1.15097 5.0691L4.27834 6.06784V6.19755Z" fill="#98989A"/>
<path d="M4.27492 6.32969L1.04445 5.2978L1.096 5.18395L4.27492 6.19854V6.32969Z" fill="#99999B"/>
<path d="M4.27639 6.46085L1.02874 5.4232V5.33385L1.04592 5.29782L4.27639 6.3297V6.46085Z" fill="#9A9A9C"/>
<path d="M4.27639 6.58984L1.02874 5.55363V5.42248L4.27639 6.46013V6.58984Z" fill="#9B9B9D"/>
<path d="M4.27639 6.7204L1.02874 5.68419V5.55304L4.27639 6.58925V6.7204Z" fill="#9C9C9E"/>
<path d="M4.27639 6.85049L1.02874 5.81428V5.68458L4.27639 6.72079V6.85049Z" fill="#9D9D9F"/>
<path d="M4.27639 6.98151L1.02874 5.9453V5.81415L4.27639 6.85036V6.98151Z" fill="#9E9EA0"/>
<path d="M4.27639 7.11062L1.02874 6.07441V5.94471L4.27639 6.98092V7.11062Z" fill="#9F9FA1"/>
<path d="M4.27639 7.24262L1.02874 6.20641V6.07526L4.27639 7.11147V7.24262Z" fill="#A0A0A2"/>
<path d="M4.27639 7.37416L1.02874 6.3365V6.2068L4.27639 7.24301V7.37416Z" fill="#A1A1A3"/>
<path d="M4.27639 7.50373L1.02874 6.46752V6.33637L4.27639 7.37403V7.50373Z" fill="#A2A3A5"/>
<path d="M4.27639 7.63429L1.02874 6.59664V6.46693L4.27639 7.50314V7.63429Z" fill="#A3A4A6"/>
<path d="M4.27639 7.76386L1.02874 6.72765V6.5965L4.27639 7.63416V7.76386Z" fill="#A4A5A7"/>
<path d="M4.27639 7.87522L4.26952 7.89252L1.02874 6.85919V6.72804L4.27639 7.76425V7.87522Z" fill="#A5A6A8"/>
<path d="M4.26952 7.89389L4.21797 8.00774L1.02874 6.99027V6.86056L4.26952 7.89389Z" fill="#A6A7A9"/>
<path d="M4.21797 8.00565L4.1647 8.1195L1.02874 7.11932V6.98817L4.21797 8.00565Z" fill="#A8A8AA"/>
<path d="M4.1647 8.12087L4.11315 8.23472L1.02874 7.2504V7.12069L4.1647 8.12087Z" fill="#A9AAAC"/>
<path d="M4.11315 8.23459L4.0616 8.34989L1.02874 7.38141V7.25026L4.11315 8.23459Z" fill="#AAABAD"/>
<path d="M4.0616 8.34929L4.01005 8.46315L1.02874 7.51053V7.38082L4.0616 8.34929Z" fill="#ABACAE"/>
<path d="M4.01005 8.46302L3.97568 8.5394H3.84165L1.02874 7.64154V7.51039L4.01005 8.46302Z" fill="#ACADAF"/>
<path d="M3.43269 8.53881L1.02874 7.7721V7.64095L3.84165 8.53881H3.43269Z" fill="#ADAEB0"/>
<path d="M3.02373 8.5392L1.02874 7.90219V7.77249L3.43269 8.5392H3.02373Z" fill="#AFB0B2"/>
<path d="M2.61476 8.53906L1.02874 8.03321V7.90206L3.02373 8.53906H2.61476Z" fill="#B0B1B3"/>
<path d="M2.2058 8.53847L1.02874 8.16232V8.03262L2.61476 8.53847H2.2058Z" fill="#B1B2B4"/>
<path d="M1.02874 8.16415L2.2058 8.5403H1.02874V8.16415Z" fill="#B1B2B4"/>
</g>
<mask id="mask3_796_3081" style="mask-type:luminance" maskUnits="userSpaceOnUse" x="0" y="6" width="12" height="7">
<path d="M10.0423 6.44141L0.636091 12.6299H5.40791L11.0767 8.90007L10.0423 6.44141Z" fill="white"/>
</mask>
<g mask="url(#mask3_796_3081)">
<path d="M1.11035 6.44141H0.636091V12.6284H1.11035V6.44141Z" fill="#F6CC08"/>
<path d="M1.58546 6.44141H1.1112V12.6284H1.58546V6.44141Z" fill="#F6CD08"/>
<path d="M2.06056 6.44141H1.5863V12.6284H2.06056V6.44141Z" fill="#F6CE08"/>
<path d="M2.53567 6.44141H2.06141V12.6284H2.53567V6.44141Z" fill="#F6CF08"/>
<path d="M3.01077 6.44141H2.53651V12.6284H3.01077V6.44141Z" fill="#F6D008"/>
<path d="M3.48195 6.44141H3.00769V12.6284H3.48195V6.44141Z" fill="#F6D108"/>
<path d="M3.96098 6.44141H3.48672V12.6284H3.96098V6.44141Z" fill="#F6D208"/>
<path d="M4.43216 6.44141H3.9579V12.6284H4.43216V6.44141Z" fill="#F6D308"/>
<path d="M4.91119 6.44141H4.43693V12.6284H4.91119V6.44141Z" fill="#F6D408"/>
<path d="M5.38237 6.44141H4.90811V12.6284H5.38237V6.44141Z" fill="#F6D508"/>
<path d="M5.85355 6.44141H5.37929V12.6284H5.85355V6.44141Z" fill="#F6D608"/>
<path d="M6.32866 6.44141H5.8544V12.6284H6.32866V6.44141Z" fill="#F6D808"/>
<path d="M6.80376 6.44141H6.3295V12.6284H6.80376V6.44141Z" fill="#F6D908"/>
<path d="M7.27887 6.44141H6.80461V12.6284H7.27887V6.44141Z" fill="#F6DA08"/>
<path d="M7.75397 6.44141H7.27971V12.6284H7.75397V6.44141Z" fill="#F6DB08"/>
<path d="M8.22908 6.44141H7.75482V12.6284H8.22908V6.44141Z" fill="#F6DC08"/>
<path d="M8.70418 6.44141H8.22992V12.6284H8.70418V6.44141Z" fill="#F6DD08"/>
<path d="M9.17536 6.44141H8.7011V12.6284H9.17536V6.44141Z" fill="#F6DE08"/>
<path d="M9.65439 6.44141H9.18013V12.6284H9.65439V6.44141Z" fill="#F6DF08"/>
<path d="M10.1256 6.44141H9.65131V12.6284H10.1256V6.44141Z" fill="#F6E008"/>
<path d="M10.6007 6.44141H10.1264V12.6284H10.6007V6.44141Z" fill="#F6E108"/>
<path d="M11.0758 6.44141H10.6015V12.6284H11.0758V6.44141Z" fill="#F6E208"/>
</g>
<mask id="mask4_796_3081" style="mask-type:luminance" maskUnits="userSpaceOnUse" x="0" y="0" width="11" height="7">
<path d="M5.60349 0L0 3.68655L1.031 6.14233L10.3684 0H5.60349Z" fill="white"/>
</mask>
<g mask="url(#mask4_796_3081)">
<path d="M10.37 0.384796L9.32865 1.06792L8.33201 0H10.37V0.384796Z" fill="#8E8E90"/>
<path d="M9.32777 1.06792L9.10095 1.21636L7.96685 0H8.33113L9.32777 1.06792Z" fill="#8E8E90"/>
<path d="M9.10179 1.21636L8.87497 1.3648L7.60168 0H7.96769L9.10179 1.21636Z" fill="#8E8E90"/>
<path d="M8.87189 1.3648L8.64507 1.51468L7.23259 0H7.5986L8.87189 1.3648Z" fill="#8F8F91"/>
<path d="M8.64591 1.51468L8.41909 1.66313L6.86743 0H7.23344L8.64591 1.51468Z" fill="#909092"/>
<path d="M8.41981 1.66313L8.19299 1.81157L6.50214 0H6.86815L8.41981 1.66313Z" fill="#919193"/>
<path d="M8.19223 1.81157L7.96369 1.96001L6.1371 0H6.50139L8.19223 1.81157Z" fill="#919193"/>
<path d="M7.96453 1.96001L7.73771 2.10989L5.77194 0H6.13795L7.96453 1.96001Z" fill="#929294"/>
<path d="M7.73856 2.10989L7.51174 2.25834L5.40678 0H5.77278L7.73856 2.10989Z" fill="#939395"/>
<path d="M7.51074 2.25834L7.28392 2.40678L5.04149 0.00144118L5.04493 0H5.40578L7.51074 2.25834Z" fill="#949496"/>
<path d="M5.04126 0L4.81388 0.149164L7.05603 2.55353L7.28343 2.40437L5.04126 0Z" fill="#959597"/>
<path d="M4.81745 0.15117L4.59007 0.300334L6.83222 2.70469L7.05961 2.55553L4.81745 0.15117Z" fill="#969698"/>
<path d="M4.58972 0.299395L4.36233 0.448557L6.60448 2.85292L6.83187 2.70376L4.58972 0.299395Z" fill="#979799"/>
<path d="M4.36198 0.44762L4.13459 0.596782L6.37675 3.00114L6.60413 2.85198L4.36198 0.44762Z" fill="#98989A"/>
<path d="M4.13424 0.595845L3.90686 0.745009L6.14901 3.14937L6.37641 3.00021L4.13424 0.595845Z" fill="#99999B"/>
<path d="M3.91043 0.746033L3.68305 0.895196L5.9252 3.29955L6.15259 3.15039L3.91043 0.746033Z" fill="#9A9A9C"/>
<path d="M3.6827 0.89524L3.45531 1.0444L5.69746 3.44877L5.92485 3.2996L3.6827 0.89524Z" fill="#9B9B9D"/>
<path d="M3.45496 1.04248L3.22757 1.19165L5.46973 3.59601L5.69711 3.44684L3.45496 1.04248Z" fill="#9C9C9E"/>
<path d="M3.22723 1.19169L2.99984 1.34085L5.24199 3.74522L5.46938 3.59606L3.22723 1.19169Z" fill="#9D9D9F"/>
<path d="M2.99949 1.34188L2.7721 1.49104L5.01425 3.89541L5.24164 3.74623L2.99949 1.34188Z" fill="#9E9EA0"/>
<path d="M2.77175 1.4901L2.54437 1.63927L4.78652 4.04364L5.0139 3.89447L2.77175 1.4901Z" fill="#9F9FA1"/>
<path d="M2.54794 1.63833L2.32056 1.78749L4.56271 4.19185L4.79009 4.04268L2.54794 1.63833Z" fill="#A0A0A2"/>
<path d="M2.32021 1.78655L2.09282 1.93572L4.33497 4.34007L4.56236 4.19091L2.32021 1.78655Z" fill="#A1A1A3"/>
<path d="M2.09641 1.93674L1.86901 2.0859L4.11118 4.49026L4.33857 4.3411L2.09641 1.93674Z" fill="#A2A3A5"/>
<path d="M1.86867 2.08398L1.64127 2.23315L3.88343 4.6375L4.11082 4.48834L1.86867 2.08398Z" fill="#A3A4A6"/>
<path d="M1.64093 2.23221L1.41354 2.38137L3.6557 4.78573L3.88308 4.63657L1.64093 2.23221Z" fill="#A4A5A7"/>
<path d="M1.41319 2.38436L1.1858 2.53352L3.42795 4.93788L3.65536 4.78872L1.41319 2.38436Z" fill="#A5A6A8"/>
<path d="M1.18545 2.53259L0.958063 2.68175L3.20022 5.08612L3.42761 4.93694L1.18545 2.53259Z" fill="#A6A7A9"/>
<path d="M0.957718 2.68081L0.730327 2.82997L2.97249 5.23433L3.19987 5.08517L0.957718 2.68081Z" fill="#A8A8AA"/>
<path d="M0.733908 2.82904L0.506517 2.9782L2.74867 5.38255L2.97606 5.23339L0.733908 2.82904Z" fill="#A9AAAC"/>
<path d="M0.502245 2.97726L0.274854 3.12642L2.51701 5.53078L2.7444 5.38162L0.502245 2.97726Z" fill="#AAABAD"/>
<path d="M0.278435 3.12549L0.0510444 3.27465L2.2932 5.679L2.52059 5.52984L0.278435 3.12549Z" fill="#ABACAE"/>
<path d="M2.29398 5.68003L2.06716 5.82847L0 3.61193V3.30784L0.05155 3.27469L2.29398 5.68003Z" fill="#ACADAF"/>
<path d="M2.06716 5.82891L1.83862 5.97735L0 4.00437V3.61237L2.06716 5.82891Z" fill="#ADAEB0"/>
<path d="M1.83862 5.97702L1.6118 6.1269L0 4.39748V4.00404L1.83862 5.97702Z" fill="#AFB0B2"/>
<path d="M1.6118 6.12905L1.58946 6.14346H1.26126L0 4.79163V4.39963L1.6118 6.12905Z" fill="#B0B1B3"/>
<path d="M0.895252 6.14313L0 5.1833V4.7913L1.26126 6.14313H0.895252Z" fill="#B1B2B4"/>
<path d="M0 5.18198L0.895252 6.14181H0V5.18198Z" fill="#B1B2B4"/>
</g>
<path d="M56.2996 5.47645C55.1723 5.36404 54.7325 5.17669 54.7325 4.80774C54.7325 4.36098 55.2651 4.09292 56.1587 4.09292C56.9491 4.09292 57.6158 4.42871 57.8409 4.74433L57.9251 4.86107L59.3805 4.23271L59.3049 4.10445C58.7808 3.20947 57.6777 2.73676 56.114 2.73676C54.54 2.74685 52.9523 3.37953 52.9523 4.77027C52.9523 6.34693 54.5641 6.7202 56.1415 6.87728C57.6038 7.00843 57.7739 7.40188 57.7739 7.68579C57.7739 8.45106 56.547 8.51159 56.1724 8.51159C55.1947 8.51159 54.4421 8.16138 54.1602 7.57626L54.0881 7.42782L52.5639 8.09076L52.6241 8.2147C53.1722 9.34747 54.3269 9.89801 56.1501 9.89801C57.8031 9.89801 59.5678 9.31721 59.5678 7.68867C59.5678 6.06013 57.999 5.65516 56.303 5.48078L56.2996 5.47645Z" fill="white"/>
<path d="M65.9229 5.58928L63.4863 2.77897H61.4535V9.86816H63.3437V5.25204L65.6462 7.89085H66.1291L68.4901 5.25204V9.86816H70.3802V2.77897H68.3612L65.9229 5.58928Z" fill="white"/>
<path d="M74.9993 2.76916L71.2069 9.85834H73.2586L73.9511 8.57857H77.9445L78.6267 9.85834H80.6904L76.898 2.76916H74.9975H74.9993ZM77.1729 7.08118H74.726L75.9495 4.72917L77.1729 7.08118Z" fill="white"/>
<path d="M89.9794 2.76916V4.23772H92.5449V9.85834H94.4351V4.23772H97.0006V2.76916H89.9794Z" fill="white"/>
<path d="M89.4637 9.87092L86.8483 7.40217C88.0546 7.1024 88.7402 6.30543 88.7402 5.18274C88.7402 4.06006 87.7728 2.79182 85.6455 2.78173C85.0046 2.78173 84.3636 2.77885 83.7227 2.77741C83.0818 2.77452 82.4391 2.77308 81.7982 2.77308H81.616V9.87236H83.5062V7.60537H84.7073L87.0649 9.87236H89.4637V9.87092ZM86.8501 5.21157C86.8501 5.66266 86.5339 6.14401 85.6455 6.14401H83.5062V4.27912H85.6455C86.5339 4.27912 86.8501 4.78065 86.8501 5.21157Z" fill="white"/>
<path d="M15.9193 4.91302H14.0411V9.87358H15.9193V4.91302Z" fill="white"/>
<path d="M23.66 9.87236L19.6872 5.59204V9.87236H17.7988V2.78317H19.3058L22.9967 6.70175V2.77308H24.8869V9.87236H23.66Z" fill="white"/>
<path d="M26.1386 4.25147H28.7041V9.87208H30.5943V4.25147H33.158V2.7829H26.1386V4.25147Z" fill="white"/>
<path d="M34.3882 9.87208H40.8062V8.30696H36.2663V7.08195H40.6447V5.58312H36.2663V4.32929H40.8062V2.7829H34.3882V9.87208Z" fill="white"/>
<path d="M50.1752 9.87092L47.5599 7.40217C48.7662 7.1024 49.4518 6.30543 49.4518 5.18274C49.4518 4.06006 48.4843 2.79182 46.3571 2.78173C45.7161 2.78173 45.0752 2.77885 44.4342 2.77741C43.7933 2.77452 43.1506 2.77308 42.5097 2.77308H42.3276V9.87236H44.2177V7.60537H45.4188L47.7764 9.87236H50.1752V9.87092ZM47.5616 5.21157C47.5616 5.66266 47.2454 6.14401 46.3571 6.14401H44.2177V4.27912H46.3571C47.2454 4.27912 47.5616 4.78065 47.5616 5.21157Z" fill="white"/>
<path d="M15.9193 2.77308H14.0411V4.3483H15.9193V2.77308Z" fill="#F6D808"/>
</g>
</svg>
