<svg width="38" height="38" viewBox="0 0 38 38" fill="none" xmlns="http://www.w3.org/2000/svg">
<circle cx="19" cy="19" r="18.5865" fill="white" fill-opacity="0.12" stroke="#B7B5B5" stroke-width="0.827068"/>
<path d="M19.0971 25.2331C19.0956 25.2331 19.0939 25.2331 19.0922 25.2331C18.5432 25.2293 13.6895 25.1847 12.3143 24.8105C11.3533 24.5505 10.5946 23.7878 10.3356 22.8204C9.97574 21.4609 9.99865 18.8434 10.0011 18.6344C9.99879 18.4264 9.9756 15.7873 10.3345 14.4166C10.3349 14.4153 10.3351 14.4139 10.3356 14.4127C10.5917 13.4563 11.3674 12.6701 12.312 12.4094C12.3143 12.4087 12.3168 12.4081 12.3192 12.4074C13.6788 12.0478 18.5421 12.0038 19.0922 12H19.1021C19.6525 12.0038 24.5191 12.0483 25.8817 12.4232C26.8402 12.6825 27.5983 13.4442 27.858 14.4103C28.2313 15.782 28.1968 18.4268 28.193 18.6501C28.1957 18.87 28.2175 21.464 27.8597 22.8303C27.8594 22.8317 27.859 22.833 27.8587 22.8343C27.5996 23.8016 26.841 24.5643 25.8789 24.8246C25.8776 24.825 25.8762 24.8253 25.875 24.8257C24.5155 25.1852 19.6521 25.2292 19.1021 25.2331C19.1004 25.2331 19.0987 25.2331 19.0971 25.2331ZM11.7085 14.7834C11.3925 15.9933 11.4224 18.5988 11.4227 18.6251V18.6439C11.4132 19.3665 11.4464 21.4591 11.7086 22.4502C11.8358 22.9248 12.2099 23.3007 12.6844 23.4291C13.699 23.7054 17.6522 23.7923 19.0971 23.8024C20.5457 23.7923 24.5047 23.7077 25.5118 23.4426C25.9848 23.3137 26.3577 22.939 26.4857 22.4639C26.7482 21.4582 26.7811 19.3759 26.7715 18.6579C26.7715 18.6504 26.7715 18.6428 26.7716 18.6353C26.7847 17.904 26.759 15.787 26.4869 14.7879C26.4866 14.7869 26.4864 14.786 26.4862 14.785C26.3585 14.3083 25.9842 13.9323 25.5098 13.8039C24.505 13.5275 20.5454 13.4408 19.0971 13.4306C17.6495 13.4408 13.6943 13.5252 12.6841 13.7901C12.2187 13.92 11.8361 14.3094 11.7085 14.7834ZM17.2853 21.5134V15.7195L22.2607 18.6165L17.2853 21.5134Z" fill="white"/>
</svg>
