<svg width="256" height="256" viewBox="0 0 256 256" fill="none" xmlns="http://www.w3.org/2000/svg">
<path d="M250.945 169.059H22.8398C27.9678 161.968 30.8057 159.153 35.6529 151.909C43.0396 140.888 55.9998 139.268 60.9183 142.033C65.8368 144.794 69.9891 148.813 74.725 151.914C90.0953 161.968 110.496 152.65 124.868 142.631C137.614 133.752 142.003 147.307 147.866 140.739C161.739 125.205 185.704 139.386 191.041 145.278C209.298 165.41 224.13 138.192 233.664 151.702C239.607 160.131 241.679 164.955 250.945 169.059Z" fill="#F5F5F5"/>
<path d="M25.7705 150.81C25.7676 150.81 25.7649 150.81 25.762 150.81C25.5514 150.784 25.3387 150.739 25.1302 150.673C25.071 150.654 25.0325 150.564 25.0444 150.471C25.0564 150.378 25.1148 150.316 25.1733 150.337C25.3732 150.4 25.5769 150.444 25.7788 150.469C25.8391 150.476 25.8841 150.558 25.8796 150.653C25.8751 150.742 25.8272 150.81 25.7705 150.81ZM26.7062 150.79C26.651 150.79 26.6035 150.725 26.5976 150.636C26.5913 150.543 26.6348 150.458 26.695 150.449C26.8978 150.415 27.1007 150.362 27.2979 150.291C27.3562 150.271 27.4154 150.327 27.429 150.419C27.4426 150.511 27.4059 150.603 27.347 150.624C27.1413 150.699 26.9295 150.754 26.7178 150.789C26.7138 150.79 26.71 150.79 26.7062 150.79ZM24.2547 150.254C24.2409 150.254 24.227 150.25 24.2136 150.242C24.0172 150.118 23.8235 149.973 23.6379 149.811C23.585 149.765 23.566 149.661 23.5953 149.579C23.6244 149.496 23.691 149.466 23.7441 149.512C23.9219 149.667 24.1074 149.806 24.2957 149.925C24.3517 149.96 24.3787 150.06 24.3562 150.147C24.3389 150.214 24.2978 150.254 24.2547 150.254ZM28.2113 150.168C28.1691 150.168 28.129 150.13 28.111 150.065C28.0869 149.979 28.1121 149.878 28.1675 149.84C28.3526 149.713 28.5355 149.567 28.711 149.404C28.7626 149.356 28.8302 149.383 28.8609 149.464C28.8916 149.546 28.8745 149.651 28.8224 149.699C28.6392 149.869 28.4483 150.022 28.2551 150.153C28.2407 150.163 28.2259 150.168 28.2113 150.168ZM22.9172 149.007C22.8926 149.007 22.8679 148.994 22.8475 148.968C22.6846 148.757 22.5277 148.528 22.3813 148.286C22.3396 148.217 22.3414 148.109 22.3854 148.044C22.4291 147.979 22.4989 147.982 22.5401 148.05C22.6803 148.282 22.8307 148.502 22.987 148.704C23.0335 148.764 23.0401 148.872 23.0016 148.945C22.9799 148.986 22.9487 149.007 22.9172 149.007ZM29.5252 148.863C29.4948 148.863 29.4644 148.844 29.4427 148.805C29.4031 148.734 29.4076 148.626 29.4531 148.563C29.6062 148.354 29.7526 148.128 29.8885 147.892C29.9286 147.821 29.9979 147.816 30.043 147.878C30.0878 147.942 30.0916 148.05 30.0512 148.12C29.9095 148.367 29.7567 148.603 29.5972 148.821C29.5765 148.85 29.5508 148.863 29.5252 148.863ZM21.8816 147.188C21.8457 147.188 21.8106 147.161 21.7897 147.11C21.6738 146.832 21.5682 146.54 21.4757 146.242C21.4493 146.157 21.472 146.054 21.5264 146.013C21.5807 145.971 21.6463 146.007 21.6726 146.092C21.7611 146.377 21.8622 146.657 21.9731 146.924C22.0061 147.004 21.9918 147.11 21.9411 147.161C21.9226 147.18 21.902 147.188 21.8816 147.188ZM30.5288 147.001C30.5094 147.001 30.4897 146.993 30.4721 146.976C30.4205 146.927 30.4041 146.821 30.4355 146.74C30.5415 146.469 30.6377 146.184 30.7216 145.895C30.7468 145.809 30.8115 145.77 30.8665 145.81C30.9216 145.848 30.9458 145.95 30.921 146.036C30.8334 146.338 30.7329 146.636 30.6224 146.919C30.6018 146.972 30.5658 147.001 30.5288 147.001ZM21.2434 144.967C21.1953 144.967 21.1512 144.917 21.1379 144.841C21.0817 144.521 21.0376 144.193 21.0068 143.864C20.9979 143.77 21.0393 143.683 21.0991 143.67C21.1579 143.659 21.2143 143.721 21.2232 143.814C21.2528 144.129 21.2949 144.444 21.3488 144.75C21.3649 144.842 21.3307 144.936 21.2724 144.961C21.2628 144.965 21.253 144.967 21.2434 144.967ZM31.1275 144.751C31.1187 144.751 31.1101 144.75 31.1012 144.747C31.0426 144.724 31.0067 144.631 31.0211 144.54C31.0692 144.232 31.1058 143.916 31.1298 143.598C31.1368 143.505 31.1918 143.439 31.2513 143.449C31.3112 143.459 31.3541 143.545 31.3471 143.639C31.3221 143.97 31.2839 144.3 31.2335 144.621C31.2214 144.699 31.1766 144.751 31.1275 144.751ZM21.0609 142.547C21.0005 142.547 20.9515 142.47 20.9515 142.376V141.397C20.9515 141.303 21.0005 141.226 21.0609 141.226C21.1214 141.226 21.1704 141.303 21.1704 141.397V142.376C21.1704 142.47 21.1214 142.547 21.0609 142.547ZM31.274 142.324C31.2135 142.324 31.1646 142.248 31.1646 142.153V141.175C31.1646 141.08 31.2135 141.004 31.274 141.004C31.3344 141.004 31.3834 141.08 31.3834 141.175V142.153C31.3835 142.248 31.3344 142.324 31.274 142.324ZM21.0609 140.101C21.0005 140.101 20.9515 140.024 20.9515 139.93V138.951C20.9515 138.857 21.0005 138.78 21.0609 138.78C21.1214 138.78 21.1704 138.857 21.1704 138.951V139.93C21.1704 140.024 21.1214 140.101 21.0609 140.101ZM31.274 139.878C31.2135 139.878 31.1646 139.802 31.1646 139.707V138.729C31.1646 138.634 31.2135 138.558 31.274 138.558C31.3344 138.558 31.3834 138.634 31.3834 138.729V139.707C31.3835 139.802 31.3344 139.878 31.274 139.878ZM21.0609 137.655C21.0005 137.655 20.9515 137.578 20.9515 137.484V136.505C20.9515 136.411 21.0005 136.334 21.0609 136.334C21.1214 136.334 21.1704 136.411 21.1704 136.505V137.484C21.1704 137.578 21.1214 137.655 21.0609 137.655ZM31.274 137.432C31.2135 137.432 31.1646 137.355 31.1646 137.261V136.283C31.1646 136.188 31.2135 136.111 31.274 136.111C31.3344 136.111 31.3834 136.188 31.3834 136.283V137.261C31.3835 137.355 31.3344 137.432 31.274 137.432ZM21.0609 135.208C21.0005 135.208 20.9515 135.132 20.9515 135.037V134.059C20.9515 133.964 21.0005 133.888 21.0609 133.888C21.1214 133.888 21.1704 133.964 21.1704 134.059V135.037C21.1704 135.132 21.1214 135.208 21.0609 135.208ZM31.274 134.986C31.2135 134.986 31.1646 134.909 31.1646 134.815V133.836C31.1646 133.742 31.2135 133.665 31.274 133.665C31.3344 133.665 31.3834 133.742 31.3834 133.836V134.815C31.3835 134.909 31.3344 134.986 31.274 134.986ZM21.0028 132.768C20.95 132.768 20.9034 132.708 20.8949 132.624C20.863 132.309 20.8172 131.996 20.7589 131.694C20.7414 131.603 20.7742 131.508 20.832 131.48C20.8903 131.451 20.9508 131.504 20.9683 131.595C21.0295 131.912 21.0776 132.24 21.111 132.57C21.1205 132.663 21.0798 132.751 21.0201 132.766C21.0142 132.768 21.0084 132.768 21.0028 132.768ZM31.274 132.54C31.2135 132.54 31.1646 132.463 31.1646 132.369V131.39C31.1646 131.296 31.2135 131.219 31.274 131.219C31.3344 131.219 31.3834 131.296 31.3834 131.39V132.369C31.3835 132.463 31.3344 132.54 31.274 132.54ZM20.505 130.462C20.4661 130.462 20.4284 130.429 20.4086 130.372C20.3124 130.093 20.2031 129.821 20.0837 129.564C20.0481 129.487 20.0591 129.38 20.108 129.324C20.1567 129.269 20.2255 129.286 20.2608 129.362C20.3859 129.632 20.5004 129.917 20.6012 130.21C20.6299 130.293 20.6101 130.397 20.5568 130.441C20.5403 130.456 20.5224 130.462 20.505 130.462ZM31.274 130.093C31.2135 130.093 31.1646 130.017 31.1646 129.922V128.944C31.1646 128.849 31.2135 128.773 31.274 128.773C31.3344 128.773 31.3834 128.849 31.3834 128.944V129.922C31.3835 130.017 31.3344 130.093 31.274 130.093ZM19.5494 128.541C19.523 128.541 19.4964 128.526 19.4754 128.496C19.3261 128.281 19.1661 128.08 18.9996 127.898C18.9501 127.844 18.9381 127.737 18.9727 127.66C19.0071 127.582 19.0752 127.563 19.1251 127.617C19.2994 127.808 19.4672 128.019 19.6235 128.244C19.6679 128.308 19.6709 128.416 19.63 128.485C19.6084 128.522 19.5788 128.541 19.5494 128.541ZM31.274 127.647C31.2135 127.647 31.1646 127.571 31.1646 127.476V126.498C31.1646 126.403 31.2135 126.327 31.274 126.327C31.3344 126.327 31.3834 126.403 31.3834 126.498V127.476C31.3835 127.571 31.3344 127.647 31.274 127.647ZM18.245 127.215C18.2305 127.215 18.2157 127.211 18.2017 127.201C18.0156 127.075 17.8223 126.968 17.6268 126.882C17.5687 126.856 17.5348 126.762 17.5511 126.671C17.5674 126.58 17.6273 126.526 17.6861 126.552C17.8909 126.643 18.0936 126.755 18.2884 126.887C18.344 126.924 18.3694 127.025 18.3455 127.112C18.3276 127.177 18.2873 127.215 18.245 127.215ZM16.7343 126.637C16.7316 126.637 16.729 126.637 16.7263 126.637C16.6162 126.624 16.5051 126.618 16.3933 126.618H16.1094C16.049 126.618 16 126.541 16 126.447C16 126.352 16.049 126.276 16.1094 126.276H16.3933C16.5106 126.276 16.6269 126.282 16.7421 126.296C16.8024 126.302 16.8478 126.385 16.8433 126.479C16.839 126.569 16.7911 126.637 16.7343 126.637ZM31.274 125.201C31.2135 125.201 31.1646 125.125 31.1646 125.03V124.052C31.1646 123.957 31.2135 123.881 31.274 123.881C31.3344 123.881 31.3834 123.957 31.3834 124.052V125.03C31.3835 125.125 31.3344 125.201 31.274 125.201ZM31.274 122.755C31.2135 122.755 31.1646 122.679 31.1646 122.584V121.606C31.1646 121.511 31.2135 121.435 31.274 121.435C31.3344 121.435 31.3834 121.511 31.3834 121.606V122.584C31.3835 122.679 31.3344 122.755 31.274 122.755ZM43.2632 122.623C43.049 122.623 42.8341 122.598 42.6244 122.55C42.5646 122.535 42.5233 122.448 42.5322 122.355C42.5411 122.261 42.5977 122.199 42.6565 122.21C42.8557 122.257 43.0597 122.281 43.2632 122.281C43.3237 122.281 43.3727 122.357 43.3727 122.452C43.3727 122.546 43.3236 122.623 43.2632 122.623ZM41.736 122.174C41.7227 122.174 41.7093 122.171 41.6962 122.163C41.4981 122.041 41.3036 121.895 41.1181 121.728C41.0658 121.681 41.0478 121.576 41.078 121.494C41.1079 121.413 41.1748 121.385 41.2274 121.431C41.4034 121.59 41.5879 121.729 41.7759 121.843C41.8322 121.878 41.86 121.977 41.838 122.065C41.821 122.133 41.7797 122.174 41.736 122.174ZM40.419 120.883C40.3925 120.883 40.3659 120.868 40.3448 120.838C40.1882 120.612 40.0411 120.365 39.9075 120.105C39.8695 120.031 39.877 119.924 39.9242 119.865C39.9713 119.805 40.0402 119.817 40.0779 119.89C40.2049 120.137 40.3447 120.371 40.4932 120.587C40.5377 120.651 40.5404 120.759 40.4995 120.828C40.4778 120.865 40.4485 120.883 40.419 120.883ZM31.274 120.309C31.2135 120.309 31.1646 120.232 31.1646 120.138V119.159C31.1646 119.065 31.2135 118.988 31.274 118.988C31.3344 118.988 31.3834 119.065 31.3834 119.159V120.138C31.3835 120.232 31.3344 120.309 31.274 120.309ZM39.4911 118.933C39.4505 118.933 39.4116 118.898 39.3927 118.837C39.2993 118.538 39.2194 118.224 39.1555 117.905C39.1375 117.815 39.1695 117.719 39.2271 117.691C39.2854 117.664 39.3461 117.713 39.3643 117.803C39.4249 118.105 39.5006 118.403 39.5893 118.687C39.6158 118.772 39.5933 118.875 39.5389 118.916C39.5235 118.928 39.5071 118.933 39.4911 118.933ZM31.274 117.863C31.2135 117.863 31.1646 117.786 31.1646 117.692V116.713C31.1646 116.619 31.2135 116.542 31.274 116.542C31.3344 116.542 31.3834 116.619 31.3834 116.713V117.692C31.3835 117.786 31.3344 117.863 31.274 117.863ZM39.0816 116.589C39.0251 116.589 38.9773 116.521 38.9727 116.431C38.9634 116.252 38.9587 116.07 38.9589 115.887V115.439C38.9589 115.345 39.0078 115.268 39.0683 115.268C39.1287 115.268 39.1777 115.345 39.1777 115.439V115.887C39.1776 116.062 39.182 116.234 39.1907 116.404C39.1956 116.498 39.1507 116.58 39.0906 116.588C39.0875 116.589 39.0846 116.589 39.0816 116.589ZM31.274 115.417C31.2135 115.417 31.1646 115.34 31.1646 115.246V114.267C31.1646 114.172 31.2135 114.096 31.274 114.096C31.3344 114.096 31.3834 114.172 31.3834 114.267V115.246C31.3835 115.34 31.3344 115.417 31.274 115.417ZM39.0683 114.143C39.0079 114.143 38.9589 114.066 38.9589 113.972V112.993C38.9589 112.899 39.0079 112.822 39.0683 112.822C39.1288 112.822 39.1778 112.899 39.1778 112.993V113.972C39.1778 114.066 39.1288 114.143 39.0683 114.143ZM31.274 112.97C31.2135 112.97 31.1646 112.894 31.1646 112.799V111.821C31.1646 111.726 31.2135 111.65 31.274 111.65C31.3344 111.65 31.3834 111.726 31.3834 111.821V112.799C31.3835 112.894 31.3344 112.97 31.274 112.97ZM39.0683 111.697C39.0079 111.697 38.9589 111.62 38.9589 111.526V110.547C38.9589 110.453 39.0079 110.376 39.0683 110.376C39.1288 110.376 39.1778 110.453 39.1778 110.547V111.526C39.1778 111.62 39.1288 111.697 39.0683 111.697ZM31.274 110.524C31.2135 110.524 31.1646 110.448 31.1646 110.353V109.375C31.1646 109.28 31.2135 109.204 31.274 109.204C31.3344 109.204 31.3834 109.28 31.3834 109.375V110.353C31.3835 110.448 31.3344 110.524 31.274 110.524ZM39.0683 109.251C39.0079 109.251 38.9589 109.174 38.9589 109.079V108.101C38.9589 108.006 39.0079 107.93 39.0683 107.93C39.1288 107.93 39.1778 108.006 39.1778 108.101V109.079C39.1778 109.174 39.1288 109.251 39.0683 109.251ZM31.274 108.078C31.2135 108.078 31.1646 108.002 31.1646 107.907V106.929C31.1646 106.834 31.2135 106.758 31.274 106.758C31.3344 106.758 31.3834 106.834 31.3834 106.929V107.907C31.3835 108.002 31.3344 108.078 31.274 108.078ZM39.0683 106.804C39.0079 106.804 38.9589 106.728 38.9589 106.633V105.655C38.9589 105.56 39.0079 105.484 39.0683 105.484C39.1288 105.484 39.1778 105.56 39.1778 105.655V106.633C39.1778 106.728 39.1288 106.804 39.0683 106.804ZM31.274 105.632C31.2135 105.632 31.1646 105.556 31.1646 105.461V104.482C31.1646 104.388 31.2135 104.311 31.274 104.311C31.3344 104.311 31.3834 104.388 31.3834 104.482V105.461C31.3835 105.555 31.3344 105.632 31.274 105.632ZM39.0683 104.358C39.0079 104.358 38.9589 104.282 38.9589 104.187V103.209C38.9589 103.114 39.0079 103.038 39.0683 103.038C39.1288 103.038 39.1778 103.114 39.1778 103.209V104.187C39.1778 104.282 39.1288 104.358 39.0683 104.358ZM31.274 103.186C31.2135 103.186 31.1646 103.109 31.1646 103.015V102.036C31.1646 101.942 31.2135 101.865 31.274 101.865C31.3344 101.865 31.3834 101.942 31.3834 102.036V103.015C31.3835 103.109 31.3344 103.186 31.274 103.186ZM39.0683 101.912C39.0079 101.912 38.9589 101.836 38.9589 101.741V100.763C38.9589 100.668 39.0079 100.592 39.0683 100.592C39.1288 100.592 39.1778 100.668 39.1778 100.763V101.741C39.1778 101.836 39.1288 101.912 39.0683 101.912ZM31.274 100.74C31.2135 100.74 31.1646 100.663 31.1646 100.569V99.5901C31.1646 99.4955 31.2135 99.4191 31.274 99.4191C31.3344 99.4191 31.3834 99.4955 31.3834 99.5901V100.569C31.3835 100.663 31.3344 100.74 31.274 100.74ZM39.0683 99.4659C39.0079 99.4659 38.9589 99.3895 38.9589 99.2949V98.3165C38.9589 98.2218 39.0079 98.1454 39.0683 98.1454C39.1288 98.1454 39.1778 98.2218 39.1778 98.3165V99.2949C39.1778 99.3895 39.1288 99.4659 39.0683 99.4659ZM31.274 98.2935C31.2135 98.2935 31.1646 98.2171 31.1646 98.1225V97.144C31.1646 97.0494 31.2135 96.973 31.274 96.973C31.3344 96.973 31.3834 97.0494 31.3834 97.144V98.1225C31.3835 98.2171 31.3344 98.2935 31.274 98.2935ZM39.0683 97.0198C39.0079 97.0198 38.9589 96.9434 38.9589 96.8488V95.8703C38.9589 95.7757 39.0079 95.6993 39.0683 95.6993C39.1288 95.6993 39.1778 95.7757 39.1778 95.8703V96.8488C39.1778 96.9433 39.1288 97.0198 39.0683 97.0198ZM31.274 95.8473C31.2135 95.8473 31.1646 95.7709 31.1646 95.6763V94.6978C31.1646 94.6032 31.2135 94.5268 31.274 94.5268C31.3344 94.5268 31.3834 94.6032 31.3834 94.6978V95.6763C31.3835 95.7709 31.3344 95.8473 31.274 95.8473ZM39.0683 94.5736C39.0079 94.5736 38.9589 94.4972 38.9589 94.4026V94.3495C38.9589 94.049 38.9444 93.748 38.9158 93.4542C38.9068 93.3606 38.9479 93.2732 39.0076 93.2593C39.0677 93.2435 39.1231 93.3095 39.1323 93.4026C39.1625 93.7137 39.1778 94.0318 39.1778 94.3496V94.4026C39.1778 94.4972 39.1288 94.5736 39.0683 94.5736ZM31.3389 93.4079C31.3323 93.4079 31.3256 93.4074 31.319 93.4055C31.2595 93.3883 31.2203 93.2989 31.2311 93.2058C31.2696 92.8775 31.3258 92.5512 31.398 92.2359C31.4184 92.1471 31.4804 92.0988 31.5379 92.1327C31.5949 92.1643 31.6243 92.2627 31.604 92.3516C31.5358 92.6492 31.4828 92.9573 31.4463 93.2679C31.4367 93.3505 31.3906 93.4079 31.3389 93.4079ZM38.7732 92.1886C38.7304 92.1886 38.6896 92.1489 38.6722 92.083C38.5948 91.7911 38.5017 91.5068 38.3954 91.2374C38.3637 91.1571 38.3797 91.0515 38.431 91.0018C38.4829 90.9521 38.5498 90.9774 38.5817 91.0577C38.694 91.342 38.7925 91.643 38.8743 91.9521C38.8975 92.0395 38.8709 92.1394 38.8152 92.1757C38.8015 92.1848 38.7873 92.1886 38.7732 92.1886ZM31.9201 91.1557C31.8994 91.1557 31.8784 91.1466 31.8598 91.1275C31.8095 91.0754 31.7957 90.9689 31.829 90.8901C31.9467 90.612 32.0799 90.3459 32.2251 90.0998C32.266 90.0296 32.3351 90.0253 32.3797 90.0903C32.4241 90.1543 32.4268 90.2622 32.3859 90.332C32.2487 90.5647 32.1228 90.8165 32.0115 91.0793C31.9905 91.1289 31.9557 91.1557 31.9201 91.1557ZM37.905 90.1739C37.8773 90.1739 37.8496 90.1576 37.8283 90.1251C37.6839 89.9025 37.5274 89.697 37.3633 89.5146C37.314 89.4596 37.3024 89.3531 37.3375 89.2757C37.3723 89.1988 37.4405 89.1802 37.49 89.2356C37.6635 89.4286 37.829 89.6455 37.9818 89.8806C38.0249 89.947 38.0255 90.0555 37.983 90.1228C37.9617 90.1571 37.9333 90.1739 37.905 90.1739ZM33.0173 89.4367C32.9819 89.4367 32.9471 89.41 32.926 89.3608C32.8926 89.2819 32.9062 89.1754 32.9566 89.1233C33.1346 88.938 33.3235 88.7736 33.5183 88.636C33.5733 88.5968 33.6381 88.6351 33.6632 88.7211C33.688 88.807 33.6636 88.9088 33.6087 88.9475C33.4246 89.078 33.246 89.2332 33.0778 89.4081C33.0591 89.4276 33.0381 89.4367 33.0173 89.4367ZM36.6051 88.8485C36.5917 88.8485 36.5781 88.8442 36.5648 88.8361C36.3759 88.7191 36.1806 88.6259 35.9848 88.5595C35.9257 88.5395 35.8883 88.4487 35.901 88.356C35.914 88.2633 35.9737 88.2035 36.0312 88.225C36.2387 88.2953 36.4453 88.3937 36.6454 88.5179C36.7016 88.5528 36.7291 88.6522 36.7068 88.7401C36.6899 88.8074 36.6486 88.8485 36.6051 88.8485ZM34.4558 88.5241C34.4042 88.5241 34.3581 88.4668 34.3483 88.3842C34.3374 88.2915 34.3766 88.2021 34.4359 88.1849C34.646 88.1238 34.8608 88.0889 35.0744 88.0813C35.1483 88.0846 35.1851 88.1544 35.1865 88.2485C35.1879 88.3431 35.1399 88.4215 35.0796 88.4234C34.8775 88.4311 34.6744 88.464 34.4759 88.5213C34.4692 88.5232 34.4625 88.5241 34.4558 88.5241Z" fill="#C2C6C3"/>
<path d="M104.41 175.736C73.9076 175.736 48.0534 150.922 46.7764 120.421C46.1543 105.556 51.3707 91.5725 61.4647 81.0472C71.547 70.5341 85.2777 64.7441 100.127 64.7441C130.63 64.7441 156.484 89.558 157.761 120.059C158.383 134.924 153.166 148.907 143.072 159.433C132.99 169.946 119.259 175.736 104.41 175.736Z" fill="#6ABE55"/>
<path d="M139.604 156.795C158.965 137.024 157.948 104.631 137.332 84.4418C116.717 64.2529 84.3087 63.9141 64.9474 83.6849C45.5861 103.456 46.6031 135.849 67.2189 156.038C87.8348 176.227 120.243 176.566 139.604 156.795Z" fill="white"/>
<path d="M160.663 199.543C160.663 201.797 138.313 203.622 110.736 203.622C83.1631 203.622 60.8086 201.797 60.8086 199.543C60.8086 197.288 83.1631 195.459 110.736 195.459C138.313 195.459 160.663 197.288 160.663 199.543Z" fill="#F5F5F5"/>
<path d="M78.008 199.54H73.1555C69.8316 199.54 66.9326 196.848 66.6781 193.524L56.682 62.5584C56.4276 59.2345 58.914 56.5378 62.238 56.5378H67.0944C63.7705 56.5378 61.284 59.2345 61.5384 62.5584L71.5344 193.524C71.785 196.848 74.6842 199.54 78.008 199.54Z" fill="#41A12A"/>
<path d="M78.0087 199.541H75.2179C71.894 199.541 68.995 196.848 68.7405 193.524L58.7445 62.5586C58.4899 59.2348 60.9765 56.5381 64.3003 56.5381H67.095C63.7712 56.5381 61.2847 59.2348 61.5391 62.5586L71.5351 193.524C71.7857 196.848 74.6849 199.541 78.0087 199.541Z" fill="#6ABE55"/>
<path d="M140.745 62.5183L150.74 193.484C150.994 196.808 148.503 199.5 145.179 199.5H78.1297C74.8059 199.5 71.9076 196.808 71.6539 193.484L61.6584 62.5183C61.4048 59.1945 63.8917 56.4978 67.2156 56.4978H134.265C137.589 56.4978 140.491 59.1945 140.745 62.5183Z" fill="white"/>
<path d="M137.167 66.7964L146.516 189.284C146.641 190.922 145.413 192.247 143.778 192.247H78.1754C76.537 192.247 75.1111 190.922 74.9861 189.284L65.6377 66.7964C65.5129 65.162 66.7366 63.8372 68.375 63.8372H133.978C135.613 63.8372 137.042 65.162 137.167 66.7964Z" fill="white"/>
<path d="M112.561 60.1879C112.592 60.5249 112.458 60.8346 112.215 61.0579C111.972 61.2814 111.624 61.4187 111.222 61.4187H90.8039C90.004 61.4187 89.3012 60.866 89.2388 60.1879C89.2078 59.8508 89.3412 59.5412 89.5843 59.3176C89.8272 59.0943 90.1752 58.957 90.5776 58.957H110.996C111.8 58.9571 112.499 59.5098 112.561 60.1879Z" fill="#F5F5F5"/>
<path d="M130.043 60.2035C130.096 60.8894 129.582 61.4499 128.896 61.4499C128.206 61.4499 127.607 60.8895 127.554 60.2035C127.502 59.5136 128.016 58.957 128.706 58.957C129.392 58.957 129.991 59.5136 130.043 60.2035Z" fill="#F5F5F5"/>
<path d="M61.0812 82.7175C61.1107 83.1422 60.7618 83.5061 60.3336 83.4872C59.9735 83.4757 59.6846 83.1951 59.6582 82.8351L59.5331 81.0571C59.5036 80.6287 59.8525 80.2685 60.2807 80.2837C60.6407 80.2988 60.9296 80.5793 60.956 80.9395L61.0812 82.7175Z" fill="white"/>
<path d="M59.8713 77.7169C59.5113 77.7056 59.2186 77.425 59.1959 77.0647L58.6547 69.5508C58.6213 69.1261 58.9739 68.766 59.3984 68.7812C59.7584 68.7964 60.0473 69.0769 60.0738 69.4332L60.615 76.9474C60.6446 77.3757 60.2957 77.7358 59.8713 77.7169Z" fill="white"/>
<path d="M121.111 80.3673L124.142 141.045C124.196 142.121 123.367 142.994 122.29 142.994H93.0964C92.0196 142.994 91.1032 142.121 91.0494 141.045L88.0181 80.3673C87.9644 79.2923 88.7934 78.4178 89.8703 78.4178H98.5732L98.4126 75.204C98.397 74.8912 98.6372 74.6384 98.9499 74.6384H109.604C109.917 74.6384 110.184 74.8912 110.2 75.204L110.361 78.4178H119.064C120.141 78.4178 121.057 79.2924 121.111 80.3673Z" fill="white"/>
<path d="M90.7148 93.1421L93.0744 140.373C93.0899 140.683 93.354 140.934 93.6643 140.934H121.513C121.823 140.934 122.062 140.683 122.047 140.373L119.687 93.1421H90.7148Z" fill="#6ABE55"/>
<path d="M104.835 99.7078L98.5742 117.549H107.011L103.989 134.987L114.569 114.149L103.723 113.828L104.835 99.7078Z" fill="white"/>
<path d="M123.87 164.25C124.285 172.557 117.891 179.293 109.579 179.293C105.535 179.293 101.781 177.693 98.9452 175.097C95.9602 172.358 93.9976 168.513 93.7846 164.25C93.3694 155.938 99.7689 149.207 108.076 149.207C116.388 149.207 123.455 155.938 123.87 164.25Z" fill="#6ABE55"/>
<path d="M108.076 149.207L108.992 167.544L98.9452 175.096C95.9602 172.357 93.9976 168.513 93.7846 164.25C93.3694 155.938 99.7689 149.207 108.076 149.207Z" fill="white"/>
<path d="M117.269 172.481C121.596 168.044 121.323 160.761 116.659 156.213C111.996 151.664 104.708 151.574 100.381 156.01C96.0542 160.446 96.3273 167.73 100.991 172.278C105.654 176.826 112.942 176.917 117.269 172.481Z" fill="white"/>
<path d="M103.219 166.914C103.154 166.851 103.12 166.774 103.116 166.683C103.114 166.625 103.126 166.568 103.152 166.51L104.957 162.558H102.36C102.274 162.558 102.2 162.528 102.138 162.468C102.076 162.408 102.043 162.334 102.039 162.247C102.036 162.161 102.062 162.086 102.12 162.024C102.177 161.961 102.248 161.93 102.334 161.93H105.253C105.367 161.93 105.464 161.966 105.544 162.038C105.623 162.11 105.665 162.202 105.669 162.312C105.674 162.419 105.654 162.524 105.611 162.631L103.752 166.827C103.725 166.881 103.684 166.924 103.628 166.958C103.572 166.991 103.513 167.008 103.451 167.008C103.361 167.008 103.283 166.977 103.219 166.914Z" fill="#6ABE55"/>
<path d="M107.076 166.343C106.725 165.876 106.533 165.245 106.501 164.45C106.468 163.656 106.608 163.025 106.92 162.558C107.232 162.091 107.703 161.857 108.333 161.857C108.958 161.857 109.447 162.091 109.8 162.558C110.153 163.025 110.346 163.656 110.378 164.45C110.411 165.245 110.27 165.876 109.956 166.343C109.641 166.81 109.171 167.044 108.546 167.044C107.917 167.044 107.427 166.81 107.076 166.343ZM109.455 165.91C109.662 165.558 109.753 165.072 109.727 164.45C109.702 163.834 109.571 163.35 109.335 162.998C109.098 162.647 108.773 162.471 108.358 162.471C107.943 162.471 107.632 162.647 107.425 162.998C107.217 163.35 107.126 163.834 107.152 164.45C107.177 165.072 107.308 165.558 107.544 165.91C107.781 166.261 108.106 166.437 108.521 166.437C108.936 166.437 109.247 166.261 109.455 165.91Z" fill="#6ABE55"/>
<path d="M111.274 164.028C111.064 163.785 110.951 163.475 110.935 163.1C110.92 162.724 111.007 162.414 111.197 162.171C111.388 161.928 111.667 161.807 112.034 161.807C112.401 161.807 112.69 161.928 112.9 162.171C113.11 162.414 113.223 162.724 113.239 163.1C113.254 163.475 113.167 163.785 112.976 164.028C112.786 164.271 112.507 164.392 112.14 164.392C111.773 164.392 111.484 164.271 111.274 164.028ZM112.591 163.692C112.699 163.538 112.748 163.341 112.738 163.1C112.728 162.859 112.663 162.662 112.542 162.507C112.421 162.353 112.258 162.276 112.053 162.276C111.848 162.276 111.691 162.353 111.583 162.507C111.475 162.662 111.426 162.859 111.436 163.1C111.446 163.341 111.511 163.538 111.632 163.692C111.753 163.846 111.916 163.923 112.121 163.923C112.326 163.923 112.483 163.846 112.591 163.692ZM112.082 166.976C112.032 166.93 112.006 166.873 112.003 166.806C112.002 166.762 112.012 166.721 112.034 166.683L114.752 161.98C114.797 161.903 114.862 161.865 114.948 161.865C115.019 161.865 115.079 161.884 115.126 161.922C115.173 161.961 115.197 162.014 115.2 162.081C115.203 162.134 115.188 162.187 115.157 162.24L112.459 166.914C112.436 166.953 112.407 166.984 112.369 167.008C112.332 167.032 112.292 167.044 112.249 167.044C112.187 167.044 112.131 167.021 112.082 166.976ZM114.29 166.737C114.08 166.494 113.967 166.184 113.951 165.809C113.936 165.433 114.023 165.123 114.214 164.881C114.404 164.637 114.683 164.516 115.05 164.516C115.417 164.516 115.706 164.637 115.916 164.881C116.127 165.123 116.24 165.433 116.255 165.809C116.271 166.184 116.183 166.494 115.993 166.737C115.802 166.98 115.524 167.102 115.157 167.102C114.789 167.102 114.5 166.98 114.29 166.737ZM115.607 166.401C115.715 166.247 115.764 166.049 115.754 165.809C115.744 165.568 115.679 165.371 115.558 165.216C115.437 165.062 115.274 164.985 115.069 164.985C114.864 164.985 114.708 165.062 114.6 165.216C114.491 165.371 114.442 165.568 114.452 165.809C114.462 166.05 114.528 166.247 114.648 166.401C114.769 166.555 114.932 166.632 115.137 166.632C115.342 166.632 115.499 166.555 115.607 166.401Z" fill="#6ABE55"/>
<path d="M147.783 154.073C154.885 144.354 158.448 132.514 157.928 120.051C157.335 105.936 151.498 93.0415 142.378 83.2397L140.799 62.548C140.54 59.137 137.555 56.3679 134.149 56.3679H62.2426C58.812 56.3679 56.2488 59.1517 56.5134 62.5725L58.1895 84.5238C50.2353 94.4432 46.1529 106.823 46.5891 119.908C45.9666 119.952 45.3884 120.217 44.9521 120.658C44.712 120.898 44.5209 121.183 44.3934 121.491H43.2809C43.1829 121.491 43.1094 121.57 43.1094 121.663V123.349C43.1094 123.442 43.1829 123.52 43.2809 123.52H44.3983C44.8002 124.476 45.751 125.113 46.7998 125.113H47.0008C48.6426 138.238 54.8324 150.078 63.8746 159.013L66.5114 193.535C66.7711 196.941 69.7558 199.71 73.157 199.71H145.063C148.528 199.71 151.052 196.902 150.793 193.51L147.783 154.073ZM157.585 120.065C158.1 132.308 154.64 143.952 147.744 153.543L147.239 146.952C151.782 138.983 154.003 129.808 153.601 120.232C153.14 109.219 149.224 99.0009 142.941 90.6302L142.422 83.7983C151.322 93.4924 157.002 106.191 157.585 120.065ZM147.19 146.324L142.99 91.2723C149.043 99.5058 152.807 109.494 153.258 120.247C153.65 129.578 151.533 138.522 147.19 146.324ZM47.3438 125.113C47.342 125.103 47.3001 124.77 47.2996 124.765C45.6083 110.605 49.2413 96.3929 58.2287 85.0236L58.6992 91.2233C53.2102 99.7019 50.4902 109.734 50.9313 120.247C51.436 132.259 56.038 143.305 63.3453 152.058L63.8354 158.493C55.0088 149.657 48.9758 138.007 47.3438 125.113ZM58.7434 91.782L63.3012 151.475C56.2193 142.84 51.7644 131.994 51.2743 120.232C50.8479 109.945 53.4601 100.118 58.7434 91.782ZM73.1569 199.367C69.9272 199.367 67.0994 196.74 66.8544 193.51L56.8564 62.5431C56.6114 59.2791 59.0472 56.7111 62.2426 56.7111H65.0802C62.5513 57.6618 61.1742 60.0143 61.3702 62.5726L71.3632 193.535C71.5102 196.054 73.4069 198.514 75.9357 199.357C75.9406 199.362 75.9504 199.367 75.9553 199.367H73.1569ZM145.063 199.372H78.0334C78.0285 199.367 78.0187 199.367 78.0138 199.367C74.7105 199.367 71.9415 196.667 71.7111 193.51L61.7133 62.548V62.5431C61.4731 59.1664 63.9922 56.7111 67.0994 56.7111H134.149C137.379 56.7111 140.211 59.338 140.456 62.5726L150.449 193.535C150.699 196.725 148.313 199.372 145.063 199.372Z" fill="#3C4150"/>
<path d="M137.342 66.7825C137.21 65.0623 135.701 63.6655 133.98 63.6655H68.3766C66.6781 63.6655 65.3359 65.038 65.4704 66.807L74.8164 189.296C74.9487 191.016 76.4582 192.418 78.1785 192.418H143.782C145.518 192.418 146.82 191.005 146.688 189.271L137.342 66.7825ZM143.782 192.075H78.1785C76.6298 192.075 75.2771 190.815 75.1595 189.271L65.8134 66.7825C65.6906 65.2271 66.8586 64.0085 68.3766 64.0085H133.98C135.528 64.0085 136.882 65.263 136.999 66.8069L146.345 189.296C146.467 190.838 145.319 192.075 143.782 192.075Z" fill="#3C4150"/>
<path d="M90.8065 61.5872H111.224C112.158 61.5872 112.803 60.9384 112.733 60.1709C112.665 59.4064 111.885 58.7839 110.998 58.7839H90.5811C89.7123 58.7839 88.9982 59.3877 89.0716 60.2052C89.1402 60.9697 89.9194 61.5872 90.8065 61.5872ZM90.5811 59.1269H110.998C111.686 59.1269 112.34 59.595 112.39 60.2052C112.446 60.7175 111.983 61.2491 111.224 61.2491H90.8065C90.091 61.2491 89.4686 60.7639 89.4098 60.1709C89.3539 59.5456 89.9513 59.1269 90.5811 59.1269Z" fill="#3C4150"/>
<path d="M128.9 61.6215C129.698 61.6215 130.279 60.9705 130.219 60.1904C130.16 59.4161 129.484 58.7839 128.709 58.7839C127.946 58.7839 127.329 59.4102 127.391 60.215C127.45 60.9893 128.126 61.6215 128.9 61.6215ZM128.709 59.1269C129.277 59.1269 129.824 59.5808 129.876 60.215C129.926 60.8032 129.491 61.2785 128.9 61.2785C128.303 61.2785 127.778 60.7883 127.729 60.1904C127.687 59.5675 128.151 59.1269 128.709 59.1269Z" fill="#3C4150"/>
<path d="M119.065 78.2456H110.527L110.375 75.1973C110.356 74.7953 110.008 74.467 109.606 74.467H98.9511C98.7551 74.467 98.5688 74.5454 98.4365 74.6875C98.3042 74.8248 98.2356 75.0158 98.2454 75.212L98.3973 78.2456H89.8746C89.3062 78.2456 88.7817 78.4661 88.3995 78.868C88.0172 79.2748 87.8211 79.809 87.8505 80.3775L90.8793 141.056C90.9381 142.217 91.933 143.168 93.0994 143.168H122.294C123.443 143.168 124.375 142.226 124.313 141.036L121.285 80.3579C121.226 79.1963 120.231 78.2456 119.065 78.2456ZM122.294 142.825H93.0994C92.1144 142.825 91.2714 142.021 91.2224 141.036L88.1936 80.3579C88.1692 79.8873 88.3309 79.4414 88.6494 79.1081C88.9631 78.7748 89.3992 78.5886 89.8746 78.5886H98.5738C98.6228 78.5886 98.6669 78.5689 98.7012 78.5347C98.7306 78.5004 98.7503 78.4562 98.7454 78.4072L98.5885 75.1971C98.5787 75.0942 98.6179 74.9962 98.6866 74.9227C98.7552 74.8492 98.8483 74.81 98.9512 74.81H109.606C109.831 74.81 110.022 74.9913 110.032 75.2119L110.194 78.4269C110.194 78.5201 110.272 78.5886 110.361 78.5886H119.065C119.56 78.5886 120.015 78.7896 120.354 79.1131C120.697 79.4365 120.917 79.8825 120.942 80.3775L123.97 141.056C124.021 142.029 123.267 142.825 122.294 142.825Z" fill="#3C4150"/>
<path d="M119.689 92.9729H90.7145C90.6703 92.9729 90.6213 92.9876 90.592 93.0218C90.5576 93.0562 90.543 93.1052 90.543 93.1493L92.9052 140.379C92.9248 140.781 93.2629 141.105 93.6648 141.105H121.512C121.928 141.105 122.238 140.768 122.218 140.365L119.86 93.1346C119.855 93.0415 119.777 92.9729 119.689 92.9729ZM121.512 140.762H93.6649C93.4443 140.762 93.2581 140.585 93.2483 140.365L90.8958 93.311H119.527L121.875 140.379C121.885 140.597 121.725 140.762 121.512 140.762Z" fill="#3C4150"/>
<path d="M114.575 113.978L103.91 113.66L105.008 99.7215C105.018 99.6382 104.959 99.5598 104.871 99.5402C104.788 99.5206 104.704 99.5696 104.675 99.6529L98.4165 117.492C98.3968 117.546 98.4066 117.605 98.4361 117.649C98.4704 117.693 98.5243 117.723 98.5782 117.723H106.812L103.822 134.959C103.808 135.042 103.857 135.126 103.94 135.15C103.955 135.155 103.974 135.16 103.994 135.16C104.057 135.16 104.116 135.126 104.146 135.067L114.727 114.228C114.751 114.174 114.751 114.111 114.717 114.062C114.687 114.013 114.634 113.978 114.575 113.978ZM104.356 133.891L107.184 117.58C107.194 117.531 107.179 117.478 107.145 117.438C107.111 117.399 107.067 117.38 107.013 117.38H98.8183L104.562 101.01L103.558 113.816C103.553 113.861 103.567 113.91 103.597 113.944C103.631 113.978 103.675 113.998 103.719 113.998L114.295 114.311L104.356 133.891Z" fill="#3C4150"/>
<path d="M108.071 149.035C99.7177 149.035 93.1906 155.791 93.6089 164.257C94.0426 172.852 101.37 179.465 109.576 179.465C117.896 179.465 124.469 172.74 124.039 164.242C123.622 155.857 116.457 149.035 108.071 149.035ZM97.4903 164.242C97.1843 157.939 102 153.002 108.086 152.921C108.14 152.916 108.199 152.916 108.253 152.916C108.312 152.916 108.37 152.916 108.429 152.921C114.593 153.01 119.846 158.049 120.157 164.257C120.47 170.501 115.674 175.583 109.4 175.583C103.12 175.583 97.8053 170.46 97.4903 164.242ZM93.9519 164.242C93.5364 155.817 100.118 149.383 107.91 149.383L108.071 152.578C101.718 152.67 96.835 157.84 97.1473 164.257C97.3188 167.717 98.9901 170.829 101.494 172.966L98.9558 174.872C95.8162 171.918 94.1399 168.152 93.9519 164.242ZM109.576 179.121C105.788 179.121 102.112 177.695 99.2154 175.108L101.764 173.191C103.876 174.897 106.542 175.926 109.4 175.926C115.646 175.926 120.515 171.02 120.515 164.84C120.515 164.639 120.51 164.443 120.5 164.242C120.187 157.861 114.771 152.661 108.41 152.578L108.253 149.383C116.383 149.476 123.289 156.112 123.696 164.257C124.11 172.454 117.808 179.121 109.576 179.121Z" fill="#3C4150"/>
<path d="M133.713 44.8029C141.935 42.7553 150.235 47.7339 152.248 55.8865C152.267 55.9645 152.338 56.0166 152.415 56.0166C152.428 56.0166 152.442 56.0152 152.456 56.0118C152.548 55.9889 152.604 55.896 152.581 55.8041C150.521 47.4601 142.03 42.3798 133.63 44.4698C133.538 44.4927 133.482 44.5861 133.505 44.678C133.528 44.7703 133.623 44.8263 133.713 44.8029Z" fill="#3C4150"/>
<path d="M147.909 56.9675C147.928 57.0455 147.999 57.0977 148.076 57.0977C148.089 57.0977 148.103 57.0962 148.117 57.0929C148.209 57.0699 148.265 56.9771 148.242 56.8852C146.774 50.9377 140.716 47.2921 134.701 48.7886C134.609 48.8115 134.553 48.9049 134.575 48.9968C134.599 49.0891 134.693 49.1451 134.783 49.1217C140.6 47.6718 146.483 51.1927 147.909 56.9675Z" fill="#3C4150"/>
<path d="M135.763 53.1075C135.671 53.1304 135.615 53.2238 135.638 53.3156C135.661 53.408 135.756 53.4626 135.846 53.4405C139.273 52.5852 142.726 54.6629 143.562 58.0486C143.581 58.1266 143.651 58.1787 143.728 58.1787C143.742 58.1787 143.756 58.1773 143.77 58.1739C143.862 58.1514 143.918 58.0581 143.895 57.9662C143.014 54.3976 139.377 52.2076 135.763 53.1075Z" fill="#3C4150"/>
<path d="M182.949 209.724C182.949 210.98 188.64 212 195.659 212C202.677 212 208.368 210.98 208.368 209.724C208.368 208.469 202.677 207.449 195.659 207.449C188.64 207.449 182.949 208.469 182.949 209.724Z" fill="#F5F5F5"/>
<path d="M224.996 209.724C224.996 210.98 230.687 212 237.706 212C244.724 212 250.415 210.98 250.415 209.724C250.415 208.469 244.724 207.449 237.706 207.449C230.687 207.449 224.996 208.469 224.996 209.724Z" fill="#F5F5F5"/>
<path d="M202.79 199.658L199.821 206.556L193.41 203.265L196.802 196.787L202.79 199.658Z" fill="white"/>
<path d="M184.175 203.729C187.38 205.358 197.995 210.639 199.866 209.95C200.959 209.546 201.538 208.422 201.723 207.268C201.916 206.087 201.696 204.871 201.192 204.348C200.95 204.098 200.432 203.909 199.839 203.773C198.553 203.47 196.911 203.396 196.911 203.396C196.911 203.396 196.349 200.485 195.555 200.068C194.444 199.488 191.911 201.056 190.664 201.157C190.01 201.209 189.027 200.963 188.034 200.744C186.893 200.489 185.743 200.261 185.075 200.538C184.724 200.683 184.36 201.148 184.053 201.657C183.925 201.868 183.807 202.087 183.701 202.294C183.433 202.821 183.649 203.462 184.175 203.729Z" fill="white"/>
<path d="M194.599 201.661C194.771 201.49 194.771 201.212 194.599 201.041C194.428 200.869 194.15 200.869 193.978 201.041C193.807 201.212 193.807 201.49 193.978 201.662C194.15 201.833 194.428 201.833 194.599 201.661Z" fill="white"/>
<path d="M192.914 202.23C193.15 202.174 193.296 201.938 193.241 201.702C193.185 201.466 192.948 201.32 192.712 201.376C192.476 201.431 192.33 201.668 192.386 201.904C192.442 202.14 192.678 202.286 192.914 202.23Z" fill="white"/>
<path d="M190.832 202.339C190.832 202.58 191.03 202.778 191.271 202.778C191.513 202.778 191.71 202.58 191.71 202.339C191.71 202.098 191.513 201.9 191.271 201.9C191.03 201.9 190.832 202.098 190.832 202.339Z" fill="white"/>
<path d="M244.856 194.283L247.665 201.247L240.815 203.484L238.602 196.514L244.856 194.283Z" fill="white"/>
<path d="M234.649 210.367C238.062 209.238 249.285 205.416 250.112 203.603C250.595 202.542 250.205 201.34 249.515 200.396C248.812 199.427 247.794 198.727 247.067 198.718C246.72 198.713 246.221 198.948 245.707 199.273C244.586 199.974 243.377 201.087 243.377 201.087C243.377 201.087 240.915 199.437 240.059 199.708C238.866 200.089 238.195 202.991 237.389 203.948C236.966 204.449 236.099 204.975 235.245 205.525C234.261 206.156 233.289 206.813 233.016 207.481C232.871 207.833 232.945 208.419 233.091 208.996C233.151 209.234 233.223 209.473 233.295 209.693C233.481 210.254 234.088 210.553 234.649 210.367Z" fill="white"/>
<path d="M239.774 201.821C239.945 201.991 240.225 201.99 240.395 201.818C240.565 201.647 240.563 201.367 240.392 201.198C240.221 201.027 239.941 201.029 239.771 201.2C239.601 201.372 239.602 201.651 239.774 201.821Z" fill="white"/>
<path d="M239.067 203.203C239.238 203.373 239.518 203.371 239.688 203.2C239.858 203.028 239.856 202.749 239.685 202.579C239.514 202.409 239.234 202.41 239.064 202.582C238.894 202.753 238.895 203.033 239.067 203.203Z" fill="white"/>
<path d="M238.34 204.66C238.512 204.83 238.791 204.829 238.961 204.657C239.131 204.486 239.13 204.206 238.958 204.036C238.787 203.866 238.508 203.868 238.338 204.039C238.168 204.211 238.169 204.49 238.34 204.66Z" fill="white"/>
<path d="M217.086 125.98L220.708 140.988L226.14 163.509L238.21 197.57C238.309 197.843 238.59 197.994 238.87 197.93L244.526 196.56C245.582 196.306 246.29 195.308 246.191 194.226C246.189 194.192 246.182 194.157 246.18 194.122C244.445 176.123 237.041 157.414 237.041 157.414C236.707 145.122 241.414 129.814 233.28 124.15C229.939 121.821 217.086 125.98 217.086 125.98Z" fill="#6ABE55"/>
<path d="M220.711 140.988L226.143 163.509L238.213 197.57C238.313 197.843 238.594 197.994 238.874 197.93L244.529 196.559C245.585 196.306 246.293 195.308 246.194 194.226C246.192 194.191 246.185 194.156 246.183 194.122C244.868 194.49 243.561 195.041 242.311 194.581C240.591 193.949 240.043 191.751 240.223 189.923C240.403 188.1 241.049 186.273 240.698 184.469C240.148 181.662 237.391 179.849 236.201 177.248C234.205 172.896 236.986 167.413 234.852 163.129C233.848 161.102 231.898 159.715 230.662 157.821C229.215 155.599 228.85 152.868 228.416 150.252C227.982 147.632 227.382 144.895 225.599 142.929C224.465 141.681 222.511 140.97 220.711 140.988Z" fill="#5AAE45"/>
<path d="M196.028 198.356L199.525 200.114C200.741 200.725 202.123 200.696 203.271 200.139C203.735 199.914 204.165 199.607 204.526 199.221C204.717 199.02 204.883 198.801 205.034 198.561C214.382 183.636 218.24 159.061 218.24 159.061C218.24 159.061 235.29 143.207 236.989 134.182L222.719 127.696L216.927 125.059L215.373 129.552L205.987 156.667L195.682 197.575C195.594 197.882 195.74 198.215 196.028 198.356Z" fill="#6ABE55"/>
<path d="M196.028 198.356L199.525 200.114C200.741 200.725 202.123 200.696 203.271 200.139C203.735 199.914 204.165 199.607 204.526 199.221C203.901 198.034 203.344 196.837 203.305 195.514C203.213 192.613 205.591 190.273 206.543 187.529C208.712 181.311 203.32 174.24 205.708 168.105C207.286 164.057 211.779 161.815 213.708 157.923C216.536 152.218 213.054 144.863 215.916 139.173C217.649 135.72 221.493 133.474 222.523 129.747C222.709 129.073 222.773 128.38 222.719 127.696L216.927 125.059L215.373 129.552L205.987 156.667L195.682 197.575C195.594 197.882 195.74 198.215 196.028 198.356Z" fill="#5AAE45"/>
<path d="M214.738 131.383C214.738 131.383 223.544 124.79 226.166 126.465C233.624 131.227 241.932 133.229 241.932 133.229C238.821 121.152 240.174 98.1386 238.362 89.1376C236.75 81.1281 228.35 79.7655 226.518 79.5652C226.293 79.5408 226.167 79.531 226.167 79.531L222.572 84.3368C220.877 86.6029 219.803 89.2646 219.451 92.0729L217.82 105.67L216.907 113.288L215.744 123.003L214.738 131.383Z" fill="white"/>
<path d="M214.738 131.383C214.738 131.383 223.544 124.79 226.166 126.465C233.624 131.227 241.932 133.229 241.932 133.229C238.821 121.152 240.174 98.1387 238.362 89.1376C236.75 81.1281 228.35 79.7655 226.518 79.5652C226.157 80.2538 225.932 81.0158 225.957 81.9437C226.01 83.8533 227.133 85.6944 228.809 86.6078C230.518 87.5454 232.681 87.5504 234.215 88.7518C236.432 90.4856 236.354 93.8702 235.563 96.5709C234.772 99.2717 233.463 101.992 233.932 104.766C234.22 106.495 235.177 108.028 236.081 109.528C236.989 111.027 237.888 112.605 238.044 114.353C238.2 116.097 237.409 118.05 235.778 118.7C234.235 119.31 232.442 118.617 230.84 119.056C228.916 119.589 227.783 121.581 226.044 122.568C224.052 123.701 221.58 123.364 219.305 123.095C218.142 122.954 216.907 122.866 215.744 123.002L214.738 131.383Z" fill="#F5F5F5"/>
<path d="M208.1 75.6973L210.137 78.95C210.137 78.95 210.117 81.8412 210.835 82.2612C211.299 82.5298 212.149 81.3235 212.149 81.3235C212.149 81.3235 213.863 84.8595 215.68 84.2686C216.725 83.9266 218.639 81.6264 218.639 81.6264L221.516 85.5237C221.692 85.2551 221.877 84.9914 222.068 84.7324L225.262 80.4639C224.881 80.6105 222.537 75.9855 219.914 72.2346C218.444 70.1345 216.886 68.3079 215.543 67.7462C211.401 66.0223 206.996 73.9342 206.996 73.9342L208.1 75.6973Z" fill="white"/>
<path d="M208.105 75.6964L210.143 78.9524C210.143 78.9524 210.123 81.8433 210.838 82.2591C211.305 82.5279 212.152 81.326 212.152 81.326C212.152 81.326 213.866 84.8609 215.687 84.2675C216.731 83.9277 218.643 81.6252 218.643 81.6252L219.881 83.2989L221.519 85.5254C221.697 85.2566 221.884 84.9928 222.072 84.7342L225.267 80.4638C224.988 80.5703 223.644 78.0953 221.91 75.2805C221.286 74.2712 220.611 73.2214 219.921 72.2324C218.451 70.1327 216.894 68.3069 215.55 67.744C211.406 66.0247 207.004 73.9365 207.004 73.9365L208.105 75.6964Z" fill="#FFBE9D"/>
<path d="M219.879 83.2987L221.517 85.5251C221.694 85.2564 221.882 84.9926 222.07 84.734L225.265 80.4636C224.986 80.5701 223.642 78.0951 221.908 75.2803C221.933 75.468 221.958 75.6556 221.984 75.8433C222.05 76.3657 222.06 76.9235 221.796 77.38C221.639 77.6539 221.385 77.8821 221.299 78.1914C221.172 78.6529 221.466 79.1297 221.471 79.6166C221.482 80.1897 221.091 80.6868 220.797 81.1837C220.472 81.7213 220.249 82.3147 220.026 82.903C219.975 83.0349 219.924 83.1668 219.879 83.2987Z" fill="#F5F5F5"/>
<path d="M207.004 73.9345L208.108 75.6974C208.215 75.6144 208.323 75.5266 208.425 75.4386C209.031 74.9356 209.641 74.413 210.379 74.1395C211.116 73.8709 212.025 73.91 212.591 74.4521C212.83 74.6767 212.992 74.9698 213.206 75.214C213.421 75.4582 213.729 75.6682 214.051 75.6292C214.667 75.5607 215.043 74.667 215.653 74.7988C216.073 74.8916 216.249 75.4338 216.654 75.5802C217.001 75.7023 217.407 75.4631 217.548 75.1212C217.685 74.7793 217.597 74.3789 217.411 74.0614C217.226 73.7439 216.933 73.4558 216.933 73.0895C216.933 72.6646 217.338 72.3374 217.753 72.2495C218.169 72.1615 218.598 72.2446 219.023 72.2739C219.321 72.2935 219.624 72.2836 219.922 72.2348C218.452 70.1348 216.894 68.3082 215.551 67.7465C211.409 66.0225 207.004 73.9345 207.004 73.9345Z" fill="#F5F5F5"/>
<path d="M217.972 75.58C218.145 75.2192 218.252 74.7525 218.258 74.2427C218.269 73.09 217.759 72.1494 217.121 72.1429C216.483 72.1363 215.953 73.0663 215.942 74.219C215.937 74.6923 216.021 75.1303 216.165 75.4822" fill="white"/>
<path d="M184.074 96.581L199.487 105.133V102.085L187.913 95.6678C187.331 95.3454 186.648 95.277 186.018 95.4821L185.236 95.7361L184.118 96.1024C183.898 96.1708 183.874 96.4687 184.074 96.581Z" fill="#6ABE55"/>
<path d="M184.074 96.5806L199.487 105.132V103.496C199.473 103.472 199.453 103.447 199.439 103.428C199.048 102.935 198.467 102.632 197.866 102.441C197.27 102.251 196.645 102.158 196.035 102.002C194.735 101.67 193.514 101.03 192.499 100.156C191.869 99.6134 191.302 98.9737 190.579 98.5585C189.632 98.0214 188.489 97.9138 187.527 97.4059C186.692 96.9664 186.037 96.2436 185.236 95.7356L184.118 96.1019C183.898 96.1703 183.874 96.4683 184.074 96.5806Z" fill="#519D3E"/>
<path d="M189.555 99.6211C189.555 99.6211 190.266 105.89 199.068 107.225C199.77 107.33 200.525 107.405 201.333 107.444L202.062 106.189L203.072 104.441C203.072 104.441 199.963 101.425 199.112 100.82C198.541 100.42 196.46 99.9767 196.46 99.9767C194.941 99.591 194.52 100.204 195.02 101.654L189.555 99.6211Z" fill="#FFBE9D"/>
<path d="M189.906 100.953C189.906 100.953 190.644 102.172 192.974 102.839L189.906 100.953Z" fill="white"/>
<path d="M191.379 103.442C191.859 103.817 192.605 104.255 193.705 104.57L191.379 103.442Z" fill="white"/>
<path d="M201.324 107.511C201.278 108.074 201.659 108.581 202.212 108.693C206.386 109.529 222.762 112.75 225.232 112.217C227.636 111.7 230.664 104.483 232.606 99.1121C233.783 95.8612 234.559 93.2898 234.559 93.2898L224.948 94.8164L221.241 103.565L204.408 102.743C204.21 102.733 204.022 102.743 203.834 102.779C202.602 102.972 201.618 103.991 201.512 105.279L201.324 107.511Z" fill="white"/>
<path d="M201.324 107.511C201.278 108.074 201.659 108.581 202.212 108.692C206.386 109.529 222.762 112.75 225.232 112.217C227.636 111.7 230.664 104.483 232.606 99.112C232.576 99.0715 232.54 99.0308 232.505 98.9902C229.949 102.14 227.271 105.381 223.629 107.171C221.149 108.393 218.35 108.86 215.586 108.9C212.821 108.946 210.068 108.586 207.324 108.221C206.162 108.069 204.828 107.805 204.255 106.78C203.931 106.202 203.931 105.507 203.971 104.843C204.012 104.163 204.093 103.418 203.834 102.779C202.602 102.971 201.618 103.991 201.512 105.279L201.324 107.511Z" fill="#F5F5F5"/>
<rect x="211" y="71" width="8" height="7" fill="#FFBE9D"/>
<path d="M220.5 73.5L225 80L221.5 85.5L218 80.5L220.5 73.5Z" fill="#FFBE9D"/>
<path d="M246.778 198.588L245.749 196.029C246.19 195.549 246.425 194.892 246.362 194.211C244.695 176.686 237.545 158.224 237.216 157.381C237.123 153.901 237.437 150.137 237.741 146.491C238.01 143.281 238.275 140.135 238.275 137.214C238.275 136.66 238.265 136.116 238.241 135.577C239.804 135.381 240.73 134.944 241.284 134.503C241.951 133.969 242.078 133.425 242.098 133.278C242.103 133.259 242.103 133.239 242.103 133.219C242.103 133.209 242.103 133.195 242.098 133.185C242.093 133.175 242.093 133.165 242.088 133.156C240.324 126.265 240.005 115.723 239.721 106.426C239.51 99.5059 239.309 92.968 238.535 89.1061C236.815 80.5736 227.4 79.466 226.287 79.3631C226.082 78.8779 225.533 77.7262 224.998 77.7262H224.979C224.606 77.7458 224.239 77.9173 223.876 78.2065C223.734 77.9663 223.587 77.7262 223.44 77.4811C223.357 77.339 223.268 77.192 223.18 77.045C223.268 77.0107 223.352 76.9617 223.42 76.893C224.033 76.3049 223.489 74.6631 222.925 73.3889C221.019 69.0957 216.348 63.0283 213.226 63.0283C213.173 63.0283 213.119 63.0332 213.065 63.0332C210.011 63.2488 205.4 71.3011 205.233 74.7122C205.228 74.7709 205.228 74.8298 205.228 74.8885C205.228 75.854 205.655 76.1334 206.022 76.1971C206.502 76.2755 207.184 76.0893 207.943 75.7511L209.972 79.0005C209.972 79.4759 210.011 81.9753 210.756 82.4066C211.217 82.6761 211.82 82.0292 212.129 81.6469C212.57 82.4654 214.079 84.9649 215.741 84.4307C216.662 84.1317 218.167 82.4458 218.637 81.9018L220.392 84.2787C220.166 84.8717 219.965 85.4402 219.794 85.9499C219.676 86.2978 219.769 86.6752 220.029 86.9349C220.205 87.1064 220.436 87.2045 220.671 87.2045C219.965 88.7335 219.495 90.3705 219.284 92.0514L217.941 103.23L204.424 102.574C203.614 102.538 202.829 102.816 202.234 103.397C201.244 102.451 199.773 101.074 199.215 100.677C198.622 100.265 196.588 99.8293 196.504 99.8096C196.127 99.7116 195.809 99.6773 195.544 99.7018L187.996 95.5164C187.379 95.1734 186.639 95.0998 185.967 95.3204L184.066 95.9379C183.899 95.9918 183.787 96.134 183.767 96.3104C183.752 96.4819 183.836 96.6437 183.987 96.7319L189.398 99.7313C189.432 99.9077 189.521 100.344 189.741 100.922C189.731 100.961 189.736 101.006 189.761 101.045C189.766 101.05 189.785 101.084 189.829 101.138C189.829 101.138 189.829 101.138 189.829 101.143C190.099 101.8 190.53 102.608 191.216 103.427V103.431C191.207 103.485 191.231 103.544 191.28 103.578C191.334 103.623 191.393 103.667 191.452 103.706C192.853 105.264 195.186 106.808 199.048 107.396C199.71 107.494 200.42 107.568 201.155 107.607C201.155 108.21 201.582 108.739 202.185 108.862C204.954 109.415 211.408 110.685 216.838 111.547L216.74 112.253C216.726 112.327 216.77 112.4 216.838 112.43C216.606 114.365 215.136 126.632 214.569 131.367L205.821 156.626L195.514 197.529C195.431 197.848 195.534 198.181 195.774 198.392L195.049 199.774C194.716 199.754 194.343 199.818 193.941 199.931L193.863 199.749C193.828 199.661 193.73 199.622 193.637 199.656C193.554 199.695 193.51 199.793 193.549 199.882L193.613 200.029C193.24 200.141 192.858 200.288 192.476 200.435L192.388 200.22C192.353 200.136 192.25 200.092 192.162 200.131C192.074 200.166 192.035 200.269 192.069 200.357L192.152 200.553C191.702 200.72 191.28 200.871 190.932 200.94L190.849 200.739C190.809 200.651 190.712 200.607 190.623 200.646C190.535 200.68 190.491 200.783 190.53 200.872L190.579 200.984C190.03 201.014 189.241 200.837 188.413 200.651L188.08 200.578C186.869 200.308 185.722 200.087 185.017 200.381C184.678 200.519 184.306 200.921 183.914 201.568C183.787 201.783 183.664 202.009 183.556 202.214C183.241 202.834 183.503 203.58 184.105 203.881C187.972 205.846 196.798 210.178 199.465 210.178C199.656 210.178 199.813 210.159 199.935 210.11C200.959 209.732 201.675 208.708 201.9 207.297C202.073 206.255 201.973 204.632 201.097 204.047L202.582 200.592C203.626 200.308 204.562 199.641 205.184 198.656C214.221 184.223 218.181 160.503 218.402 159.145C218.794 158.782 220.877 156.817 223.533 154.038L225.405 161.179C225.405 161.184 225.405 161.184 225.41 161.189L225.984 163.566L238.054 197.627C238.179 197.989 238.561 198.188 238.912 198.093L238.927 198.088L239.49 199.862C239.241 200.087 239.025 200.401 238.819 200.764L238.637 200.69C238.55 200.654 238.449 200.697 238.414 200.785C238.379 200.872 238.421 200.972 238.509 201.008L238.657 201.068C238.481 201.415 238.31 201.787 238.148 202.159L237.933 202.072C237.846 202.035 237.746 202.078 237.71 202.167C237.675 202.254 237.717 202.354 237.805 202.39L238.005 202.47C237.809 202.906 237.618 203.312 237.422 203.611L237.421 203.612L237.214 203.529C237.127 203.492 237.026 203.535 236.991 203.623C236.956 203.711 236.998 203.811 237.086 203.847L237.207 203.895C236.834 204.302 236.153 204.738 235.437 205.199L235.153 205.38C234.109 206.052 233.144 206.709 232.86 207.414C232.607 208.024 232.932 209.126 233.134 209.747C233.356 210.423 234.093 210.742 234.702 210.531C239.108 209.071 249.444 205.488 250.268 203.675C250.723 202.68 250.498 201.45 249.655 200.293C249.041 199.447 247.787 198.347 246.778 198.588ZM220.539 83.9013L218.863 81.6321L220.171 80.0247C220.23 79.9512 220.22 79.8434 220.147 79.7845C220.073 79.7258 219.965 79.7356 219.907 79.8091L218.515 81.5195C218.515 81.5244 218.51 81.5244 218.51 81.5293C218.377 81.6764 216.593 83.7935 215.633 84.1023C214.873 84.3522 214.109 83.7691 213.511 83.0683C214.109 82.7791 214.486 81.9754 214.506 81.9362C214.545 81.8528 214.506 81.7499 214.422 81.7107C214.334 81.6715 214.231 81.7058 214.192 81.794C214.187 81.7989 213.81 82.6075 213.281 82.7939C212.702 82.044 212.32 81.2647 212.31 81.2501C212.281 81.1962 212.227 81.1569 212.168 81.152C212.109 81.1471 212.05 81.1765 212.016 81.2255C211.697 81.6765 211.139 82.24 210.928 82.1126C210.472 81.8431 210.311 80.0297 210.315 78.9515C210.315 78.9172 210.306 78.8878 210.291 78.8584L208.252 75.6041C210.154 74.6926 212.408 73.0018 213.197 72.3941C213.227 73.1292 213.477 73.7271 213.942 74.1682C214.491 74.6877 215.231 74.8935 215.844 74.9671C215.878 75.1728 215.937 75.3689 216.01 75.5453C216.045 75.6335 216.148 75.6777 216.231 75.6433C216.319 75.6041 216.363 75.5061 216.324 75.4179C216.27 75.2856 216.226 75.1484 216.201 75.0013C216.182 74.9425 216.172 74.8886 216.162 74.8298C216.152 74.771 216.143 74.7122 216.143 74.6534C216.123 74.5113 216.113 74.3692 216.113 74.2221C216.118 73.6928 216.241 73.1978 216.446 72.8302C216.638 72.497 216.873 72.3156 217.118 72.3156C217.118 72.3156 217.118 72.3156 217.123 72.3156C217.535 72.3205 217.892 72.8498 218.03 73.5703C218.049 73.6584 218.059 73.7516 218.069 73.8447C218.079 73.928 218.083 74.0113 218.083 74.0946C218.088 74.1436 218.088 74.1926 218.088 74.2416C218.083 74.7073 217.99 75.1532 217.819 75.506C217.78 75.5894 217.814 75.6923 217.897 75.7364C217.922 75.7462 217.951 75.7511 217.976 75.7511C218.039 75.7511 218.098 75.7168 218.128 75.6531C218.299 75.3003 218.402 74.864 218.427 74.4082C219.554 75.4277 221.602 77.1135 222.813 77.1135C222.818 77.1135 222.818 77.1135 222.823 77.1135C222.935 77.2998 223.043 77.4811 223.146 77.6527C223.318 77.9369 223.47 78.1967 223.612 78.4319C222.43 79.5542 221.347 81.8331 220.539 83.9013ZM189.633 99.4666L189.619 99.4617L184.154 96.428C184.11 96.4036 184.105 96.3594 184.11 96.3398C184.11 96.3251 184.12 96.2811 184.174 96.2614L186.07 95.6439C186.296 95.5753 186.526 95.5361 186.757 95.5361C187.129 95.5361 187.497 95.6341 187.83 95.8154L195.073 99.8342C195 99.8685 194.936 99.9224 194.882 99.9812C194.623 100.265 194.583 100.721 194.76 101.373L189.633 99.4666ZM199.009 107.039C196.034 106.573 194.005 105.529 192.628 104.368C192.951 104.505 193.294 104.632 193.662 104.735C193.677 104.74 193.696 104.74 193.711 104.74C193.785 104.74 193.853 104.691 193.878 104.617C193.902 104.524 193.848 104.431 193.76 104.407C192.956 104.176 192.26 103.858 191.692 103.456C191.197 102.902 190.824 102.358 190.545 101.848C191.045 102.236 191.809 102.682 192.932 103.005C192.946 103.01 192.961 103.01 192.976 103.01C193.054 103.01 193.123 102.961 193.143 102.888C193.167 102.794 193.118 102.701 193.025 102.672C191.182 102.143 190.359 101.26 190.128 100.961C190.124 100.957 190.124 100.957 190.124 100.952C189.952 100.535 189.854 100.187 189.795 99.9519C189.79 99.9274 189.785 99.9078 189.781 99.8882L191.633 100.579L194.868 101.78C194.873 101.78 194.873 101.785 194.877 101.785L194.886 101.788L197.134 102.906C197.159 102.918 197.184 102.923 197.21 102.923C197.273 102.923 197.334 102.889 197.364 102.829C197.406 102.744 197.372 102.641 197.287 102.599L195.172 101.546L195.172 101.545C194.951 100.888 194.936 100.432 195.137 100.217C195.216 100.133 195.328 100.079 195.48 100.06C195.681 100.021 195.951 100.04 196.284 100.114C196.328 100.119 196.377 100.133 196.426 100.143C197 100.266 198.573 100.648 199.014 100.961C199.548 101.339 201.018 102.711 202.003 103.647C201.861 103.814 201.744 104 201.651 104.196L199.009 107.039ZM215.099 129.833L215.104 129.823C217.938 106.101 216.96 114.283 217.172 112.513C218.804 112.895 220.323 113.424 221.553 113.856C222.852 114.307 223.832 114.65 224.425 114.65C224.508 114.65 224.587 114.645 224.655 114.63C227.488 114.022 231.061 104.691 233.57 96.9083C233.585 96.8588 234.628 93.753 234.732 93.3405C234.756 93.2473 234.707 93.1542 234.614 93.1248C234.521 93.1003 234.428 93.1493 234.403 93.2424C234.309 93.6175 233.339 96.5238 233.217 96.8887H233.212C232.25 99.7332 228.158 111.409 225.204 112.052C222.661 112.588 204.802 109.034 202.253 108.524C201.788 108.43 201.464 107.999 201.504 107.524L201.508 107.489C201.512 107.44 201.576 106.645 201.572 106.696C201.601 106.352 201.696 105.221 201.69 105.294C201.768 103.964 202.973 102.843 204.405 102.917C206.497 103.019 222.516 103.786 221.509 103.735C221.664 103.735 223.951 103.735 223.891 103.735C223.989 103.735 224.063 103.662 224.063 103.564C224.063 103.471 223.989 103.392 223.891 103.392C223.712 103.392 221.399 103.392 221.509 103.392L224.366 96.6486L225.111 94.8842C225.151 94.796 225.111 94.698 225.023 94.6588C224.935 94.6245 224.837 94.6637 224.798 94.7519L221.137 103.387L218.284 103.25L219.622 92.0907C219.843 90.3362 220.353 88.6356 221.122 87.0526L226.258 79.7061C227.327 79.8041 236.526 80.8725 238.197 89.1747C238.966 93.0072 239.167 99.5303 239.378 106.436C239.643 115.11 239.942 124.858 241.417 131.754C241.466 131.994 241.515 132.234 241.574 132.469C241.613 132.646 241.652 132.817 241.696 132.989C241.672 132.984 241.647 132.974 241.623 132.969C241.015 132.808 239.657 132.425 237.859 131.808C237.736 131.764 237.614 131.72 237.486 131.676C233.724 130.344 229.761 128.546 226.342 126.368C226.08 126.211 225.777 126.025 225.082 126.025C221.689 126.025 215.164 130.883 214.962 131.009L215.099 129.833ZM201.528 207.424C201.41 208.017 201.2 208.527 200.906 208.924V208.929C200.901 208.924 200.896 208.924 200.891 208.929C199.68 209.375 194.378 207.311 186.708 203.405C186.624 203.361 186.521 203.396 186.477 203.479C186.433 203.567 186.467 203.67 186.551 203.709C190.815 205.88 197.975 209.326 200.479 209.326H200.553C200.332 209.532 200.087 209.688 199.813 209.791C199.715 209.826 199.592 209.845 199.435 209.845C197.661 209.845 192.108 207.566 184.262 203.577C183.831 203.362 183.634 202.823 183.86 202.371C183.939 202.229 184.017 202.077 184.105 201.925C184.566 202.303 185.149 202.509 185.752 202.509C186.791 202.509 187.732 201.886 188.144 200.94L188.34 200.984C189.232 201.185 190.079 201.376 190.687 201.327C190.697 201.327 190.712 201.327 190.722 201.323L190.932 201.837C190.771 201.95 190.668 202.131 190.668 202.337C190.668 202.675 190.942 202.95 191.28 202.95C191.618 202.95 191.893 202.675 191.893 202.337C191.893 202.004 191.618 201.729 191.28 201.729H191.266L191.069 201.264C191.427 201.18 191.849 201.033 192.285 200.867L192.476 201.323C191.987 201.649 192.221 202.435 192.819 202.435C193.157 202.435 193.432 202.161 193.432 201.822C193.432 201.489 193.157 201.215 192.819 201.215H192.804L192.608 200.749C192.981 200.607 193.373 200.46 193.745 200.347L193.952 200.847C193.79 200.959 193.687 201.141 193.687 201.352C193.687 201.674 193.943 201.965 194.299 201.965C194.816 201.965 195.071 201.368 194.794 200.999C194.683 200.827 194.48 200.739 194.299 200.739H194.28L194.074 200.254C194.363 200.176 194.632 200.122 194.873 200.117C195.005 200.107 195.132 200.117 195.245 200.137C195.333 200.156 195.412 200.181 195.485 200.22C196.073 200.529 196.598 202.641 196.75 203.43C196.764 203.508 196.833 203.562 196.911 203.567C196.926 203.567 198.372 203.636 199.587 203.891C198.831 205.404 199.818 207.248 201.528 207.424ZM191.011 202.337C191.011 202.21 191.104 202.107 191.221 202.077H191.226C191.246 202.072 191.261 202.072 191.28 202.072C191.427 202.072 191.55 202.19 191.55 202.337C191.55 202.489 191.427 202.607 191.28 202.607C191.133 202.607 191.011 202.489 191.011 202.337ZM192.819 201.558C193.179 201.558 193.172 202.092 192.819 202.092C192.477 202.092 192.46 201.558 192.819 201.558ZM194.221 201.097C194.222 201.095 194.226 201.095 194.229 201.094C194.232 201.093 194.237 201.093 194.24 201.092C194.242 201.091 194.243 201.088 194.245 201.087L194.25 201.087C194.357 201.051 194.564 201.152 194.564 201.352C194.564 201.588 194.288 201.705 194.118 201.553C193.955 201.391 194.034 201.157 194.221 201.097ZM200.788 203.891C200.548 203.783 200.244 203.69 199.886 203.606C198.798 203.352 197.485 203.258 197.063 203.234C196.931 202.602 196.411 200.318 195.642 199.916C195.568 199.877 195.49 199.847 195.407 199.828L196.068 198.568L199.45 200.269C200.331 200.716 201.318 200.836 202.165 200.681L200.788 203.891ZM223.832 153.2C223.788 153.244 223.744 153.293 223.705 153.338C223.656 153.387 223.607 153.436 223.563 153.485C223.558 153.489 223.558 153.494 223.553 153.494C223.509 153.543 223.464 153.587 223.425 153.632C220.47 156.749 218.191 158.88 218.127 158.939C218.098 158.964 218.078 158.998 218.074 159.037C218.034 159.282 214.114 183.748 204.89 198.475C203.755 200.285 201.473 200.906 199.602 199.965C195.9 198.081 196.037 198.212 195.946 198.068C195.843 197.946 195.804 197.779 195.848 197.617L206.15 156.724L214.873 131.528C217.911 130.87 223.072 127.99 225.734 126.451C226.538 126.708 229.844 129.374 237.555 132.058C237.726 133.077 237.834 134.155 237.888 135.278C237.574 135.307 237.241 135.332 236.878 135.341C236.996 134.954 237.089 134.582 237.158 134.214C237.177 134.121 237.114 134.033 237.021 134.018C236.932 133.999 236.839 134.062 236.825 134.15C236.751 134.538 236.648 134.935 236.521 135.346C236.506 135.4 236.486 135.459 236.467 135.513C236.452 135.572 236.433 135.626 236.408 135.684C235.666 137.871 234.188 140.368 232.884 142.237C232.879 142.237 232.879 142.242 232.879 142.242C232.879 142.247 232.874 142.247 232.874 142.252V142.257C230.207 146.109 227.042 149.786 223.832 153.2ZM238.824 197.759C238.633 197.804 238.442 197.696 238.378 197.514L226.312 163.468L225.753 161.15L232.737 143.085C234.55 140.507 236.03 137.944 236.775 135.68C237.182 135.67 237.555 135.65 237.898 135.611C238.03 138.948 237.721 142.663 237.403 146.466C237.094 150.127 236.78 153.911 236.873 157.42C236.873 157.44 236.878 157.459 236.883 157.479C236.962 157.665 244.328 176.441 246.019 194.241C246.121 195.239 245.441 196.169 244.485 196.397C244.435 196.409 238.873 197.759 238.824 197.759ZM239.26 198.009L244.568 196.73C244.911 196.647 245.22 196.49 245.479 196.279L246.455 198.691C246.21 198.784 245.93 198.931 245.617 199.127C244.666 199.72 243.676 200.587 243.362 200.872C242.823 200.519 240.838 199.279 240.01 199.543C239.932 199.568 239.853 199.602 239.78 199.646L239.26 198.009ZM236.088 208.563C236.111 208.635 236.179 208.681 236.251 208.681C236.268 208.681 236.287 208.678 236.304 208.672C240.9 207.155 248.5 204.451 250.15 202.674V202.675C250.145 202.974 250.081 203.268 249.959 203.533C249.425 204.704 243.681 207.199 234.595 210.203C234.364 210.281 234.124 210.262 233.908 210.159C233.519 209.964 233.431 209.611 233.31 209.154C233.908 209.091 234.457 208.826 234.889 208.395C235.619 207.659 235.839 206.547 235.462 205.591L235.624 205.488C236.398 204.993 237.128 204.523 237.52 204.057C237.53 204.048 237.534 204.039 237.539 204.03L238.054 204.238C238.02 204.429 238.079 204.636 238.226 204.783C238.64 205.18 239.28 204.853 239.265 204.346C239.265 204 238.99 203.739 238.657 203.739C238.657 203.739 238.657 203.739 238.652 203.739C238.378 203.739 238.263 203.898 238.214 203.932L237.746 203.744C237.942 203.43 238.133 203.028 238.319 202.597L238.775 202.781V202.783C238.741 202.974 238.799 203.18 238.946 203.327C239.174 203.555 239.56 203.571 239.809 203.322C239.927 203.205 239.985 203.053 239.985 202.891C239.985 202.724 239.922 202.572 239.804 202.46C239.427 202.075 238.932 202.417 238.932 202.474L238.461 202.285L238.461 202.283C238.623 201.921 238.794 201.544 238.975 201.196L239.481 201.401C239.476 201.44 239.471 201.474 239.471 201.514C239.471 201.675 239.535 201.827 239.652 201.945C239.867 202.16 240.238 202.201 240.51 201.945L240.515 201.94C240.863 201.584 240.664 200.988 240.181 200.911C239.979 200.869 239.771 200.948 239.647 201.082C239.642 201.087 239.642 201.087 239.637 201.092L239.636 201.094L239.141 200.894L239.142 200.891C239.285 200.636 239.441 200.406 239.603 200.23C239.74 200.078 239.92 199.932 240.113 199.872C240.781 199.671 242.707 200.846 243.284 201.229C243.348 201.274 243.436 201.269 243.495 201.215C243.504 201.205 244.705 200.102 245.798 199.416C246.119 199.215 246.69 198.892 247.067 198.892C247.734 198.897 248.709 199.573 249.376 200.499C249.778 201.043 250.023 201.607 250.116 202.141C250.111 202.148 250.105 202.153 250.101 202.161C249.566 203.336 244.369 205.648 236.197 208.347C236.107 208.376 236.058 208.473 236.088 208.563ZM238.422 204.219C238.425 204.216 238.427 204.211 238.428 204.207L238.43 204.204L238.431 204.202C238.485 204.135 238.575 204.058 238.657 204.082C238.879 204.082 239.017 204.352 238.849 204.537C238.634 204.753 238.278 204.495 238.422 204.219ZM239.378 202.626C239.619 202.626 239.732 202.911 239.569 203.082C239.461 203.185 239.294 203.185 239.187 203.082C239.027 202.922 239.127 202.626 239.378 202.626ZM239.853 201.367C239.955 201.217 240.151 201.21 240.27 201.318C240.373 201.425 240.373 201.592 240.27 201.7C240.164 201.806 239.996 201.804 239.892 201.7C239.837 201.644 239.785 201.47 239.853 201.367Z" fill="#3C4150"/>
<path d="M210.17 76.3149C209.885 76.3149 209.758 76.5502 209.885 76.8344C210.013 77.1235 210.351 77.3539 210.63 77.3539C210.915 77.3539 211.042 77.1236 210.915 76.8344C210.787 76.5502 210.454 76.3149 210.17 76.3149Z" fill="#3C4150"/>
<path d="M209.724 75.1874C209.645 75.2413 209.631 75.3491 209.684 75.4275C209.743 75.501 209.851 75.5206 209.925 75.4618C210.067 75.3589 211.042 75.1237 211.463 75.6823C211.498 75.7264 211.547 75.7509 211.601 75.7509C211.635 75.7509 211.674 75.7411 211.704 75.7166C211.777 75.6627 211.797 75.5549 211.738 75.4765C211.194 74.7512 209.998 74.9815 209.724 75.1874Z" fill="#3C4150"/>
<path d="M220.358 91.2136C220.108 91.2136 219.902 91.493 219.902 91.841C219.902 92.184 220.108 92.4732 220.358 92.4732C220.608 92.4732 220.809 92.184 220.809 91.841C220.809 91.493 220.608 91.2136 220.358 91.2136Z" fill="#3C4150"/>
<path d="M220.068 94.1885C219.818 94.1885 219.617 94.4678 219.617 94.8109C219.617 95.1588 219.818 95.4431 220.068 95.4431C220.318 95.4431 220.524 95.1589 220.524 94.8109C220.524 94.4678 220.318 94.1885 220.068 94.1885Z" fill="#3C4150"/>
<path d="M219.925 97.0115C219.675 97.0115 219.469 97.2908 219.469 97.6339C219.469 97.9818 219.675 98.2661 219.925 98.2661C220.175 98.2661 220.376 97.9819 220.376 97.6339C220.376 97.2908 220.175 97.0115 219.925 97.0115Z" fill="#3C4150"/>
<path d="M219.698 99.3342C219.443 99.3342 219.242 99.6135 219.242 99.9616C219.242 100.305 219.443 100.594 219.698 100.594C219.948 100.594 220.149 100.305 220.149 99.9616C220.149 99.6136 219.948 99.3342 219.698 99.3342Z" fill="#3C4150"/>
<path d="M216.966 72.811C216.872 72.8206 216.803 72.9048 216.813 72.9991C216.823 73.0929 216.91 73.1685 217.002 73.1518C217.002 73.1533 217.077 73.149 217.129 73.1997C217.187 73.2566 217.211 73.3706 217.198 73.529C217.191 73.6233 217.261 73.7061 217.355 73.7138C217.36 73.7142 217.365 73.7142 217.369 73.7142C217.458 73.7142 217.533 73.6462 217.54 73.5568C217.562 73.2892 217.504 73.0868 217.369 72.9542C217.203 72.7914 216.989 72.8067 216.966 72.811Z" fill="#3C4150"/>
<path d="M230.566 68.3604C230.498 68.5368 230.542 68.7329 230.679 68.8653C230.811 69.0024 231.007 69.0466 231.184 68.978L234.34 67.8213C236.232 69.3847 238.614 70.2472 241.054 70.2472C243.808 70.2472 246.367 69.1739 248.254 67.2332C250.057 65.3806 251.037 62.9449 251.037 60.3474C251.037 60.2494 251.037 60.1465 251.032 60.0484C250.866 54.427 246.131 49.8594 240.476 49.8594C237.712 49.8594 235.148 50.9278 233.262 52.8734C231.394 54.7946 230.414 57.348 230.493 60.0581C230.542 61.7343 231.007 63.4006 231.84 64.8758L230.566 68.3604ZM230.836 60.0485C230.757 57.4314 231.708 54.9663 233.507 53.1137C235.33 51.2366 237.805 50.2026 240.476 50.2026C243.211 50.2026 245.725 51.3102 247.572 53.094C249.425 54.878 250.611 57.3383 250.689 60.0582C250.768 62.6754 249.812 65.1405 248.009 66.9931C246.185 68.8702 243.715 69.9042 241.054 69.9042C238.662 69.9042 236.33 69.0466 234.482 67.4979C234.453 67.4685 234.413 67.4587 234.374 67.4587C234.355 67.4587 234.335 67.4587 234.315 67.4685L231.066 68.6594C230.993 68.6839 230.939 68.6447 230.919 68.6251C230.899 68.6055 230.86 68.5516 230.885 68.4781L232.193 64.9201C232.208 64.871 232.208 64.8171 232.179 64.773C231.345 63.3321 230.885 61.6952 230.836 60.0485Z" fill="#3C4150"/>
<path d="M247.979 60.0536C248.094 64.0103 244.955 67.2184 240.968 67.2184C236.978 67.2184 233.653 64.0103 233.538 60.0536C233.423 56.0932 236.562 52.885 240.552 52.885C244.539 52.8851 247.864 56.0932 247.979 60.0536Z" fill="#6ABE55"/>
<path d="M239.75 61.7061C239.701 61.7061 239.652 61.6856 239.619 61.6449L238.033 59.7558C237.971 59.6835 237.981 59.5753 238.054 59.5146C238.126 59.4533 238.235 59.4619 238.295 59.5356L239.772 61.2945L243.257 58.4358C243.329 58.3754 243.438 58.3855 243.498 58.4597C243.559 58.5329 243.548 58.6411 243.474 58.7009L239.858 61.6673C239.827 61.6937 239.788 61.7061 239.75 61.7061Z" fill="white"/>
<path d="M153.5 60.6732V83.0334C153.5 83.7119 154.05 84.262 154.729 84.262H180.922L188.8 90.7094C189.247 91.0753 189.919 90.7573 189.919 90.1794V84.262H194.2C194.878 84.262 195.428 83.7119 195.428 83.0334V60.6732C195.428 59.9946 194.878 59.4446 194.2 59.4446H154.729C154.05 59.4446 153.5 59.9946 153.5 60.6732Z" fill="white"/>
<path d="M189.231 91.0368C189.038 91.0368 188.848 90.9703 188.691 90.8415L180.86 84.433H154.728C153.956 84.433 153.328 83.8051 153.328 83.0331V60.6731C153.328 59.9011 153.956 59.2732 154.728 59.2732H194.199C194.971 59.2732 195.599 59.9011 195.599 60.6731V83.0331C195.599 83.8051 194.971 84.433 194.199 84.433H190.089V90.1791C190.089 90.5132 189.902 90.8099 189.6 90.953C189.481 91.0091 189.356 91.0368 189.231 91.0368ZM154.728 59.6159C154.145 59.6159 153.671 60.0901 153.671 60.6731V83.0331C153.671 83.616 154.145 84.0903 154.728 84.0903H180.921C180.961 84.0903 180.999 84.1037 181.03 84.1291L188.908 90.5764C189.066 90.7047 189.269 90.73 189.453 90.6429C189.637 90.5558 189.747 90.3826 189.747 90.1791V84.2616C189.747 84.1669 189.823 84.0903 189.918 84.0903H194.199C194.782 84.0903 195.256 83.616 195.256 83.0331V60.6731C195.256 60.0901 194.782 59.6159 194.199 59.6159H154.728Z" fill="#3C4150"/>
<path d="M186.254 79.5163H159.235C158.756 79.5163 158.367 79.1277 158.367 78.6482V65.6489C158.367 65.1694 158.756 64.7808 159.235 64.7808H186.254C186.732 64.7808 187.122 65.1694 187.122 65.6489V69.5241H188.553C188.692 69.5241 188.805 69.6367 188.805 69.776V74.5202C188.805 74.6595 188.692 74.7729 188.553 74.7729H187.122V78.6482C187.122 79.1277 186.732 79.5163 186.254 79.5163Z" fill="white"/>
<path d="M186.254 79.6876H159.235C158.661 79.6876 158.195 79.2214 158.195 78.6481V65.6487C158.195 65.0758 158.661 64.6096 159.235 64.6096H186.254C186.827 64.6096 187.293 65.0758 187.293 65.6487V69.3526H188.553C188.786 69.3526 188.976 69.5427 188.976 69.7762V74.5201C188.976 74.7542 188.786 74.9442 188.553 74.9442H187.293V78.6481C187.293 79.2215 186.827 79.6876 186.254 79.6876ZM159.235 64.9523C158.851 64.9523 158.538 65.2649 158.538 65.6487V78.6481C158.538 79.0324 158.851 79.345 159.235 79.345H186.254C186.638 79.345 186.95 79.0324 186.95 78.6481V74.7729C186.95 74.6781 187.027 74.6015 187.122 74.6015H188.553C188.597 74.6015 188.633 74.5651 188.633 74.5202V69.7762C188.633 69.7317 188.597 69.6954 188.553 69.6954H187.122C187.027 69.6954 186.95 69.6188 186.95 69.524V65.6488C186.95 65.2649 186.638 64.9524 186.254 64.9524H159.235V64.9523Z" fill="#3C4150"/>
<path d="M163.486 66.325H159.771C159.746 66.325 159.727 66.4261 159.727 66.5508V77.7464C159.727 77.8711 159.746 77.9722 159.771 77.9722H163.486V66.325Z" fill="#6ABE55"/>
<path d="M163.489 78.1439H159.774C159.559 78.1439 159.559 77.8553 159.559 77.7466V66.5511C159.559 66.4425 159.559 66.1538 159.774 66.1538H163.489C163.584 66.1538 163.661 66.2304 163.661 66.3251V77.9725C163.661 78.0673 163.584 78.1439 163.489 78.1439ZM159.903 77.8012H163.318V66.4965H159.903C159.902 66.5128 159.901 66.5309 159.901 66.551V77.7466C159.901 77.7667 159.902 77.7849 159.903 77.8012Z" fill="#3C4150"/>
<path d="M168.751 66.324H164.992V77.9722H168.751V66.324Z" fill="#6ABE55"/>
<path d="M168.754 78.1435H164.996C164.901 78.1435 164.824 78.067 164.824 77.9722V66.3239C164.824 66.2291 164.901 66.1526 164.996 66.1526H168.754C168.849 66.1526 168.926 66.2291 168.926 66.3239V77.9722C168.926 78.0669 168.849 78.1435 168.754 78.1435ZM165.167 77.8008H168.583V66.4952H165.167V77.8008Z" fill="#3C4150"/>
<path d="M174.021 66.324H170.262V77.9722H174.021V66.324Z" fill="#6ABE55"/>
<path d="M174.02 78.1435H170.261C170.166 78.1435 170.09 78.067 170.09 77.9722V66.3239C170.09 66.2291 170.166 66.1526 170.261 66.1526H174.02C174.115 66.1526 174.192 66.2291 174.192 66.3239V77.9722C174.192 78.0669 174.115 78.1435 174.02 78.1435ZM170.433 77.8008H173.849V66.4952H170.433V77.8008Z" fill="#3C4150"/>
<path d="M179.286 66.3237H175.527V77.972H179.286V66.3237Z" fill="#6ABE55"/>
<path d="M179.285 78.1435H175.527C175.432 78.1435 175.355 78.067 175.355 77.9722V66.3239C175.355 66.2291 175.432 66.1526 175.527 66.1526H179.285C179.38 66.1526 179.457 66.2291 179.457 66.3239V77.9722C179.457 78.0669 179.38 78.1435 179.285 78.1435ZM175.698 77.8008H179.114V66.4952H175.698V77.8008Z" fill="#3C4150"/>
<path d="M187.363 129.764C187.363 136.001 189.314 138.805 191.718 138.805C194.124 138.805 196.074 136.001 196.074 129.764C196.074 123.525 194.124 116.216 191.718 116.216C189.314 116.216 187.363 123.525 187.363 129.764Z" fill="#F5F5F5"/>
<path d="M192.041 135.746H191.398V156.034H192.041V135.746Z" fill="#F5F5F5"/>
<path d="M73.5597 68.7815C73.6709 70.0808 72.7056 71.1363 71.4037 71.1363C70.1018 71.1363 68.9559 70.0808 68.8447 68.7815C68.7333 67.4796 69.6985 66.4241 71.0005 66.4241C72.3024 66.4241 73.4483 67.4797 73.5597 68.7815Z" fill="white"/>
<path d="M71.4035 71.3077C70.0167 71.3077 68.7922 70.1811 68.6735 68.7965C68.6154 68.1164 68.8267 67.477 69.2687 66.9955C69.7085 66.5164 70.3235 66.2527 71.0003 66.2527C72.3868 66.2527 73.6115 67.3803 73.7302 68.7668C73.7884 69.445 73.5771 70.0835 73.1355 70.5645C72.6955 71.044 72.0802 71.3077 71.4035 71.3077ZM71.0003 66.5954C70.4207 66.5954 69.8954 66.8199 69.5214 67.2277C69.1452 67.6374 68.9654 68.1839 69.0152 68.7668C69.1191 69.9791 70.1905 70.965 71.4035 70.965C71.9831 70.965 72.5084 70.7401 72.8829 70.3323C73.2586 69.9231 73.4383 69.3775 73.3885 68.7965C73.2846 67.5827 72.2133 66.5954 71.0003 66.5954Z" fill="#3C4150"/>
<path d="M71.9856 69.672C71.944 69.672 71.9024 69.6572 71.8693 69.6271L70.3052 68.1865C70.2355 68.1223 70.2313 68.0137 70.2954 67.9438C70.3591 67.8734 70.4677 67.8696 70.5378 67.9337L72.1019 69.3743C72.1716 69.4385 72.1758 69.5471 72.1117 69.617C72.078 69.6538 72.0318 69.672 71.9856 69.672Z" fill="#3C4150"/>
<path d="M70.5465 69.6724C70.5051 69.6724 70.4637 69.6576 70.4307 69.6275C70.3608 69.5638 70.356 69.4552 70.42 69.3853L71.7376 67.9447C71.8015 67.8753 71.9097 67.8705 71.98 67.9342C72.0499 67.9978 72.0547 68.1065 71.9908 68.1764L70.6731 69.617C70.6394 69.6538 70.593 69.6724 70.5465 69.6724Z" fill="#3C4150"/>
<path d="M134.474 67.1129H128.32C128.225 67.1129 128.148 67.0364 128.148 66.9416C128.148 66.8468 128.225 66.7703 128.32 66.7703H134.474C134.568 66.7703 134.645 66.8468 134.645 66.9416C134.645 67.0364 134.568 67.1129 134.474 67.1129Z" fill="#3C4150"/>
<path d="M134.63 68.9474H128.476C128.381 68.9474 128.305 68.8708 128.305 68.7761C128.305 68.6813 128.381 68.6047 128.476 68.6047H134.63C134.725 68.6047 134.802 68.6813 134.802 68.7761C134.802 68.8708 134.725 68.9474 134.63 68.9474Z" fill="#3C4150"/>
<path d="M134.782 70.7816H128.629C128.534 70.7816 128.457 70.7051 128.457 70.6103C128.457 70.5155 128.534 70.439 128.629 70.439H134.782C134.877 70.439 134.954 70.5155 134.954 70.6103C134.954 70.7051 134.877 70.7816 134.782 70.7816Z" fill="#3C4150"/>
<path d="M86.1602 185.325L86.3446 188.799H89.923L89.7385 185.325H86.1602Z" fill="#F5F5F5"/>
<path d="M89.9226 188.971H86.3441C86.253 188.971 86.1776 188.9 86.1728 188.809L85.9885 185.334C85.9861 185.288 86.0031 185.242 86.0354 185.207C86.0677 185.173 86.1127 185.154 86.1598 185.154H89.7381C89.8293 185.154 89.9046 185.225 89.9094 185.316L90.094 188.79C90.0964 188.837 90.0794 188.883 90.0471 188.918C90.0148 188.952 89.9698 188.971 89.9226 188.971ZM86.5068 188.628H89.7417L89.5754 185.497H86.3407L86.5068 188.628Z" fill="#3C4150"/>
<path d="M135.246 187.059L132.586 185.326L132.777 188.8L135.246 187.059Z" fill="#F5F5F5"/>
<path d="M132.777 188.971C132.751 188.971 132.726 188.966 132.702 188.954C132.646 188.927 132.609 188.871 132.605 188.809L132.414 185.335C132.411 185.27 132.444 185.209 132.5 185.177C132.556 185.145 132.625 185.145 132.679 185.182L135.339 186.916C135.387 186.947 135.416 187 135.417 187.057C135.418 187.113 135.391 187.167 135.345 187.2L132.875 188.94C132.846 188.96 132.811 188.971 132.777 188.971ZM132.775 185.654L132.931 188.481L134.94 187.065L132.775 185.654Z" fill="#3C4150"/>
<path d="M108.651 187.066C108.702 188.024 109.519 188.8 110.477 188.8C111.435 188.8 112.169 188.024 112.118 187.066C112.067 186.101 111.25 185.326 110.292 185.326C109.334 185.326 108.6 186.101 108.651 187.066Z" fill="#F5F5F5"/>
<path d="M110.476 188.971C109.431 188.971 108.535 188.121 108.479 187.075C108.452 186.56 108.626 186.077 108.97 185.714C109.313 185.353 109.782 185.154 110.292 185.154C111.338 185.154 112.234 186.008 112.29 187.057C112.317 187.568 112.143 188.049 111.799 188.411C111.457 188.773 110.987 188.971 110.476 188.971ZM110.292 185.497C109.877 185.497 109.496 185.658 109.22 185.95C108.941 186.244 108.8 186.637 108.822 187.057C108.868 187.924 109.61 188.629 110.476 188.629C110.892 188.629 111.273 188.467 111.551 188.175C111.828 187.882 111.969 187.491 111.947 187.075C111.901 186.205 111.158 185.497 110.292 185.497Z" fill="#3C4150"/>
</svg>
