<svg width="40" height="53" viewBox="0 0 40 53" fill="none" xmlns="http://www.w3.org/2000/svg">
<path fill-rule="evenodd" clip-rule="evenodd" d="M22.8872 32.1959C22.8847 32.4074 22.7979 32.6094 22.6456 32.758C22.4933 32.9067 22.2878 32.9901 22.0736 32.9901C21.8595 32.9901 21.654 32.9067 21.5017 32.758C21.3494 32.6094 21.2625 32.4074 21.26 32.1959C21.2676 31.8899 21.175 31.5896 20.9961 31.3396C20.8171 31.0896 20.5613 30.9033 20.2666 30.8084C19.7636 30.6324 19.2147 30.6324 18.7118 30.8084C18.4171 30.9034 18.1613 31.0897 17.9823 31.3396C17.8034 31.5896 17.7108 31.8899 17.7184 32.1959C17.7184 33.3341 18.6868 33.5432 19.6564 33.7518C21.2709 34.0996 22.8872 34.448 22.8872 36.8911C22.8872 38.3994 21.9831 39.364 20.826 39.7853C20.6555 39.8472 20.4806 39.8969 20.3028 39.9339V40.6627C20.3003 40.8742 20.2135 41.0762 20.0612 41.2249C19.9089 41.3735 19.7034 41.4569 19.4892 41.4569C19.2751 41.4569 19.0696 41.3735 18.9173 41.2249C18.765 41.0762 18.6781 40.8742 18.6756 40.6627V39.9339C18.4978 39.8969 18.323 39.8472 18.1525 39.7853C16.9953 39.364 16.0912 38.3994 16.0912 36.8911C16.0937 36.6797 16.1806 36.4777 16.3329 36.329C16.4852 36.1804 16.6907 36.097 16.9048 36.097C17.119 36.097 17.3245 36.1804 17.4768 36.329C17.6291 36.4777 17.7159 36.6797 17.7184 36.8911C17.7109 37.1972 17.8035 37.4975 17.9824 37.7474C18.1613 37.9974 18.4171 38.1837 18.7118 38.2787C19.2147 38.4545 19.7636 38.4545 20.2666 38.2787C20.5613 38.1837 20.8171 37.9974 20.996 37.7475C21.175 37.4975 21.2676 37.1972 21.26 36.8911C21.26 35.7407 20.286 35.5308 19.3132 35.3212C17.7013 34.9738 16.0912 34.6268 16.0912 32.196C16.0912 30.6877 16.9953 29.7232 18.1525 29.3019C18.3229 29.2399 18.4975 29.1902 18.6752 29.1532V28.4243C18.6739 28.318 18.694 28.2125 18.7344 28.1139C18.7747 28.0153 18.8344 27.9256 18.9101 27.85C18.9858 27.7744 19.0759 27.7144 19.1752 27.6734C19.2745 27.6324 19.3811 27.6113 19.4888 27.6113C19.5964 27.6113 19.703 27.6324 19.8024 27.6734C19.9017 27.7144 19.9918 27.7744 20.0675 27.85C20.1432 27.9256 20.2029 28.0153 20.2432 28.1139C20.2835 28.2125 20.3036 28.318 20.3024 28.4243V29.1532C20.4802 29.1902 20.655 29.2399 20.8255 29.3018C21.9827 29.7231 22.8872 30.6876 22.8872 32.1959ZM26.1198 27.9949C24.5858 26.4798 22.5673 25.5369 20.4083 25.3268C18.2493 25.1168 16.0833 25.6526 14.2794 26.843C12.4756 28.0334 11.1455 29.8047 10.5157 31.8551C9.88594 33.9054 9.9955 36.1081 10.8257 38.0876C11.6559 40.0672 13.1555 41.7012 15.0688 42.7112C16.9821 43.7212 19.1908 44.0448 21.3185 43.6267C23.4463 43.2087 25.3615 42.075 26.7378 40.4187C28.114 38.7623 28.8662 36.686 28.8662 34.5433C28.8678 33.3269 28.626 32.1222 28.1547 30.9984C27.6833 29.8746 26.9918 28.8539 26.1198 27.9949ZM19.4894 23.6753C16.9435 23.6753 14.4762 24.547 12.5082 26.1422C10.5401 27.7373 9.19289 29.957 8.69614 32.4232C8.19939 34.8893 8.58382 37.4493 9.78392 39.6669C10.984 41.8845 12.9255 43.6225 15.2777 44.5848C17.6298 45.5471 20.247 45.6741 22.6833 44.9442C25.1197 44.2144 27.2244 42.6727 28.6389 40.582C30.0533 38.4913 30.6901 35.9809 30.4405 33.4786C30.191 30.9762 29.0707 28.6367 27.2704 26.8587C26.2498 25.8479 25.0369 25.0464 23.7016 24.5001C22.3662 23.9537 20.9348 23.6735 19.4894 23.6753ZM28.1392 15.2086H11.8659C11.5386 15.2086 11.2247 15.337 10.9932 15.5656C10.7618 15.7942 10.6317 16.1043 10.6317 16.4275C10.6317 16.7508 10.7618 17.0608 10.9932 17.2894C11.2247 17.518 11.5386 17.6464 11.8659 17.6464H28.1391C28.4664 17.6464 28.7803 17.518 29.0118 17.2894C29.2432 17.0608 29.3733 16.7508 29.3733 16.4275C29.3733 16.1043 29.2432 15.7942 29.0118 15.5656C28.7803 15.337 28.4665 15.2086 28.1392 15.2086ZM28.6088 19.2152C16.4773 19.2343 15.8186 19.2534 11.8424 19.2533C8.20857 22.8932 4.84809 28.0902 3.02512 33.0981C1.44065 37.451 1.02371 41.6204 2.64038 44.385C3.5768 45.9862 5.06824 47.3174 6.92151 48.3742C10.4522 50.3877 15.2603 51.397 20.0817 51.3992C24.9031 51.4014 29.7134 50.3965 33.2468 48.3815C35.1012 47.3242 36.5945 45.9913 37.5337 44.385C38.9808 41.9094 38.5036 37.5163 36.8472 32.8412C35.1148 27.9515 32.0953 22.8166 28.6088 19.2152ZM28.8877 13.7002C29.7479 12.3558 30.4855 10.9387 31.0917 9.46542C31.4718 8.53881 33.396 3.81818 31.9486 3.30005C31.2676 3.05457 30.4905 2.53367 29.7135 2.01289C28.4673 1.17771 27.221 0.342316 25.9665 0.310402C24.6501 0.277274 23.6485 1.0897 22.6472 1.90235C21.8794 2.52539 21.1115 3.14832 20.3956 3.1301C19.6179 3.11044 18.5685 2.40701 17.5192 1.70369C16.2729 0.86829 15.0266 0.0328941 13.7719 0.000980063C12.4557 -0.0321487 11.4541 0.780168 10.4527 1.59271C9.75502 2.15877 7.51892 2.9575 7.52149 3.62217C7.53166 5.31361 8.0091 7.21377 8.79535 9.10674C9.46754 10.703 10.2998 12.2288 11.2797 13.6614C10.7421 13.7731 10.2484 14.0353 9.8576 14.4167C9.4668 14.798 9.19541 15.2824 9.07583 15.812C8.95626 16.3416 8.99355 16.8939 9.18326 17.4031C9.37298 17.9124 9.70709 18.3569 10.1457 18.6836C6.57054 22.4382 3.30957 27.5862 1.49968 32.5582C-0.235622 37.3255 -0.645073 41.9712 1.2357 45.1885C2.32127 47.0454 4.01711 48.5692 6.10797 49.7617C9.88718 51.9171 14.9907 52.9972 20.0818 53C25.1729 53.0028 30.2771 51.9263 34.0606 49.7689C36.1525 48.5763 37.85 47.0502 38.9385 45.1885C40.6402 42.2774 40.1806 37.3985 38.3794 32.3139C36.633 27.3847 33.6213 22.2071 30.1199 18.4634C30.4843 18.1168 30.7491 17.681 30.8874 17.2005C31.0258 16.7199 31.0327 16.2118 30.9075 15.7277C30.7823 15.2436 30.5295 14.801 30.1747 14.4448C29.82 14.0887 29.3757 13.8317 28.8877 13.7002ZM13.2158 13.6019C12.04 12.0215 11.0597 10.308 10.2956 8.49784C9.68771 7.03432 9.28385 5.58527 9.17316 4.27591C10.0278 4.00956 10.7553 3.41953 11.4826 2.82929C12.2503 2.20636 13.018 1.58354 13.734 1.60165C14.5118 1.62142 15.5611 2.32485 16.6105 3.02806C17.8567 3.86357 19.1032 4.69897 20.3578 4.73077C21.6741 4.7639 22.6756 3.95158 23.6771 3.13893C24.4447 2.516 25.2126 1.89296 25.9286 1.91107C26.7063 1.93084 27.7556 2.63416 28.8048 3.33737C29.4705 3.78362 30.1363 4.22975 30.802 4.55342C30.6263 5.88155 30.1992 7.36506 29.5856 8.86269C28.9012 10.5288 28.0378 12.1176 27.0104 13.6019H13.2158Z" fill="white"/>
</svg>
