<svg width="38" height="38" viewBox="0 0 38 38" fill="none" xmlns="http://www.w3.org/2000/svg">
<circle cx="19" cy="19" r="19" fill="white" fill-opacity="0.12"/>
<circle cx="19" cy="19" r="18.5865" stroke="white" stroke-opacity="0.6" stroke-width="0.827068"/>
<path d="M19.0122 26.7143C18.9602 26.7143 18.9082 26.7143 18.8558 26.714C17.624 26.717 16.4858 26.6858 15.3789 26.6184C14.3641 26.5566 13.4378 26.2059 12.7 25.6043C11.9881 25.0238 11.5019 24.2389 11.255 23.2716C11.0402 22.4295 11.0288 21.6029 11.0179 20.8033C11.01 20.2296 11.0018 19.5499 11.0001 18.8586C11.0018 18.1644 11.01 17.4846 11.0179 16.9109C11.0288 16.1115 11.0402 15.2849 11.255 14.4426C11.5019 13.4753 11.9881 12.6904 12.7 12.1099C13.4378 11.5083 14.3641 11.1576 15.379 11.0959C16.4859 11.0286 17.6243 10.9972 18.8588 11.0002C20.0909 10.9976 21.2287 11.0286 22.3356 11.0959C23.3504 11.1576 24.2767 11.5083 25.0145 12.1099C25.7266 12.6904 26.2126 13.4753 26.4595 14.4426C26.6744 15.2847 26.6858 16.1115 26.6967 16.9109C26.7046 17.4846 26.7128 18.1644 26.7144 18.8557V18.8586C26.7128 19.5499 26.7046 20.2296 26.6967 20.8033C26.6858 21.6027 26.6745 22.4294 26.4595 23.2716C26.2126 24.2389 25.7266 25.0238 25.0145 25.6043C24.2767 26.2059 23.3504 26.5566 22.3356 26.6184C21.2756 26.6829 20.1867 26.7143 19.0122 26.7143ZM18.8558 25.4864C20.0675 25.4892 21.1802 25.4587 22.261 25.393C23.0284 25.3463 23.6937 25.0973 24.2387 24.6529C24.7425 24.242 25.0895 23.6752 25.2699 22.9681C25.4488 22.2671 25.4591 21.5144 25.4691 20.7865C25.4769 20.2167 25.485 19.5417 25.4867 18.8571C25.485 18.1724 25.4769 17.4976 25.4691 16.9277C25.4591 16.1999 25.4488 15.4472 25.2699 14.7461C25.0895 14.0389 24.7425 13.4721 24.2387 13.0612C23.6937 12.6169 23.0284 12.3679 22.261 12.3213C21.1802 12.2555 20.0675 12.2251 18.8586 12.2278C17.6471 12.2249 16.5344 12.2555 15.4535 12.3213C14.6862 12.3679 14.0209 12.6169 13.4758 13.0612C12.972 13.4721 12.6251 14.0389 12.4446 14.7461C12.2657 15.4472 12.2554 16.1997 12.2455 16.9277C12.2377 17.498 12.2295 18.1734 12.2278 18.8586C12.2295 19.5407 12.2377 20.2162 12.2455 20.7865C12.2554 21.5144 12.2657 22.2671 12.4446 22.9681C12.6251 23.6752 12.972 24.242 13.4758 24.6529C14.0209 25.0972 14.6862 25.3462 15.4535 25.3928C16.5344 25.4587 17.6473 25.4894 18.8558 25.4864ZM18.8265 22.6936C16.7111 22.6936 14.9899 20.9726 14.9899 18.8571C14.9899 16.7416 16.7111 15.0206 18.8265 15.0206C20.9421 15.0206 22.6632 16.7416 22.6632 18.8571C22.6632 20.9726 20.9421 22.6936 18.8265 22.6936ZM18.8265 16.2483C17.388 16.2483 16.2176 17.4187 16.2176 18.8571C16.2176 20.2956 17.388 21.4659 18.8265 21.4659C20.2651 21.4659 21.4354 20.2956 21.4354 18.8571C21.4354 17.4187 20.2651 16.2483 18.8265 16.2483ZM23.0929 13.7929C22.5844 13.7929 22.1721 14.2051 22.1721 14.7137C22.1721 15.2223 22.5844 15.6345 23.0929 15.6345C23.6015 15.6345 24.0137 15.2223 24.0137 14.7137C24.0137 14.2051 23.6015 13.7929 23.0929 13.7929Z" fill="white"/>
</svg>
