<svg width="28" height="56" viewBox="0 0 28 56" fill="none" xmlns="http://www.w3.org/2000/svg">
<path d="M5.60005 2.8H22.4V14H25.2V0H2.80005V14H5.60005V2.8Z" fill="black"/>
<path d="M0 15.4V48.44C0 49.126 3.20747e-07 49.742 0.0140003 50.428L0.042001 51.8H5.6V52.388C5.60233 53.3453 5.98362 54.2626 6.6605 54.9395C7.33738 55.6164 8.25475 55.9977 9.212 56H18.788C19.7452 55.9977 20.6626 55.6164 21.3395 54.9395C22.0164 54.2626 22.3977 53.3453 22.4 52.388V51.8H27.958L27.986 50.428C28 49.742 28 49.126 28 48.44V15.4H0ZM19.6 52.388C19.6 52.6034 19.5144 52.8099 19.3622 52.9622C19.2099 53.1145 19.0034 53.2 18.788 53.2H9.212C8.99664 53.2 8.79011 53.1145 8.63783 52.9622C8.48555 52.8099 8.4 52.6034 8.4 52.388V51.8H19.6V52.388ZM25.2 49H2.8V18.2H25.2V49Z" fill="black"/>
<path d="M8.40002 6.99998V11.2C8.40002 11.5713 8.54752 11.9274 8.81007 12.1899C9.07262 12.4525 9.42872 12.6 9.80002 12.6C10.1713 12.6 10.5274 12.4525 10.79 12.1899C11.0525 11.9274 11.2 11.5713 11.2 11.2V6.99998C11.2 6.62867 11.0525 6.27258 10.79 6.01003C10.5274 5.74748 10.1713 5.59998 9.80002 5.59998C9.42872 5.59998 9.07262 5.74748 8.81007 6.01003C8.54752 6.27258 8.40002 6.62867 8.40002 6.99998Z" fill="black"/>
<path d="M16.8 6.99998V11.2C16.8 11.5713 16.9475 11.9274 17.2101 12.1899C17.4726 12.4525 17.8287 12.6 18.2 12.6C18.5714 12.6 18.9274 12.4525 19.19 12.1899C19.4526 11.9274 19.6 11.5713 19.6 11.2V6.99998C19.6 6.62867 19.4526 6.27258 19.19 6.01003C18.9274 5.74748 18.5714 5.59998 18.2 5.59998C17.8287 5.59998 17.4726 5.74748 17.2101 6.01003C16.9475 6.27258 16.8 6.62867 16.8 6.99998Z" fill="black"/>
</svg>
