<svg width="13" height="13" viewBox="0 0 13 13" fill="none" xmlns="http://www.w3.org/2000/svg">
<path d="M1.46257 6.61057C1.46211 6.93469 1.72449 7.1978 2.04861 7.19826L11.4547 7.21151C11.7788 7.21196 12.0419 6.94963 12.0424 6.6255C12.0428 6.30138 11.7804 6.03825 11.4563 6.03779L2.05026 6.02454C1.72614 6.02408 1.46303 6.28645 1.46257 6.61057Z" fill="black"/>
<path d="M6.05359 12.0118C6.28245 12.2413 6.65403 12.2418 6.88354 12.013L11.8703 7.04026C12.0998 6.8114 12.1003 6.43981 11.8714 6.21031L6.89874 1.22358C6.66988 0.994065 6.29829 0.993553 6.06879 1.22241C5.83924 1.45132 5.83876 1.82285 6.06762 2.05236L10.6259 6.62353L6.05476 11.1818C5.82525 11.4107 5.82469 11.7822 6.05359 12.0118Z" fill="black"/>
</svg>
