<svg width="46" height="46" viewBox="0 0 46 46" fill="none" xmlns="http://www.w3.org/2000/svg">
<g clip-path="url(#clip0_796_1999)">
<path d="M45.3982 35.8846C45.1351 34.9023 44.5023 34.0796 43.6164 33.5681C42.7306 33.0566 41.7017 32.9199 40.7194 33.183L29.2096 36.267C29.317 35.6758 29.2942 35.0618 29.1357 34.4609C28.8521 33.3856 28.1709 32.4875 27.2175 31.932L16.8677 25.902C16.8398 25.8858 16.8111 25.8715 16.7814 25.8592C15.1724 25.1913 13.5402 25.1898 11.9306 25.8548L8.24827 27.376V26.3057C8.24827 25.3428 7.46484 24.5594 6.50198 24.5594H2.21895C1.25609 24.5594 0.472656 25.3428 0.472656 26.3057V42.3755C0.472656 43.3384 1.25609 44.1218 2.21895 44.1218H6.50198C7.46484 44.1218 8.24827 43.3384 8.24827 42.3755V41.5542C10.1868 40.7667 11.7579 40.8182 13.4436 41.7112L19.4454 44.8905C20.506 45.4524 21.549 45.7317 22.6009 45.7316C23.141 45.7316 23.6837 45.6579 24.2318 45.511L42.697 40.5635C44.7314 40.0183 45.9432 37.9195 45.3982 35.8846ZM6.50198 42.6843H2.21895C2.05157 42.6843 1.91016 42.5428 1.91016 42.3754V26.3057C1.91016 26.1383 2.05148 25.9969 2.21895 25.9969H6.50198C6.66936 25.9969 6.81077 26.1383 6.81077 26.3057V42.3755C6.81068 42.5428 6.66936 42.6843 6.50198 42.6843ZM42.3249 39.1749L23.8598 44.1224C22.6113 44.457 21.3875 44.2927 20.1182 43.6202L14.1164 40.4408C12.2032 39.4272 10.3609 39.2874 8.24818 40.0182V28.9313L12.4795 27.1833C13.727 26.6678 14.9403 26.6631 16.187 27.169L26.4939 33.1739C27.1156 33.5361 27.5601 34.1233 27.7458 34.8273C27.9314 35.5313 27.8342 36.2613 27.472 36.883C26.7192 38.175 25.0556 38.6139 23.7633 37.8611L18.2346 34.6399C17.8916 34.4401 17.4515 34.5562 17.2518 34.8991C17.0519 35.2421 17.168 35.6821 17.511 35.8819L23.0397 39.1031C23.6952 39.4849 24.4127 39.6664 25.1217 39.6664C26.4221 39.6663 27.6909 39.0536 28.4894 37.9481L41.0915 34.5716C41.7029 34.4078 42.3442 34.4935 42.8977 34.813C43.4509 35.1325 43.8459 35.6452 44.0097 36.2566C44.3496 37.5258 43.5938 38.835 42.3249 39.1749ZM8.95777 1.57211C10.2489 2.49193 10.8474 4.82805 11.481 7.30127C12.3075 10.5276 13.1622 13.8638 15.8023 15.0883C16.4548 15.3909 17.1749 15.5425 17.9698 15.5425C19.0983 15.5425 20.3778 15.2355 21.8255 14.6217C23.2123 17.3017 24.2386 20.6704 24.7278 24.386C24.7282 24.3894 24.729 24.3925 24.7296 24.3958C24.4176 25.4942 24.2388 26.6084 24.2043 27.7088C24.1919 28.1056 24.5035 28.4373 24.9003 28.4497C24.9079 28.4499 24.9155 28.45 24.9232 28.45C25.3097 28.45 25.6289 28.1429 25.6411 27.7537C25.7271 25.0043 26.7757 22.4242 28.2981 20.3141C30.0919 21.3754 31.6614 21.9025 33.045 21.9025C33.598 21.9025 34.1218 21.8183 34.6181 21.6508C37.3753 20.7196 38.5865 17.4956 39.7578 14.3778C40.6556 11.9878 41.5038 9.73028 42.8869 8.95583C43.1693 8.79771 43.3112 8.47041 43.2335 8.15631C43.1558 7.84222 42.8778 7.6186 42.5543 7.61024C33.5291 7.3762 28.6265 10.6218 27.0466 13.7372C26.1168 15.5709 26.2044 17.5588 27.2656 19.2881C26.6812 20.0768 26.1734 20.9081 25.7483 21.7662C25.1781 18.9249 24.2903 16.286 23.1358 14.0325C23.1127 13.9874 23.0892 13.9431 23.0659 13.8985C24.558 12.2338 24.9678 10.1128 24.1866 8.04185C22.9538 4.77361 18.431 1.01571 9.43412 0.270547C9.11239 0.243773 8.81105 0.435949 8.69983 0.739801C8.58851 1.04365 8.69417 1.38434 8.95777 1.57211ZM28.3287 14.3872C29.5476 11.9832 33.4939 9.27199 40.6987 9.05044C39.7536 10.301 39.0959 12.0518 38.4121 13.8722C37.3586 16.6762 36.2694 19.5757 34.1581 20.2887C32.8736 20.7224 31.2478 20.3588 29.2017 19.1781C30.7184 17.4454 32.5453 16.1403 34.3262 15.4839C34.6987 15.3466 34.8894 14.9334 34.752 14.5609C34.6148 14.1884 34.2013 13.9979 33.8291 14.1351C31.85 14.8644 29.8713 16.2739 28.2455 18.0871C27.6823 16.9009 27.7047 15.6177 28.3287 14.3872ZM22.8416 8.54911C23.3759 9.96541 23.1829 11.3663 22.3059 12.5577C20.894 10.2707 19.2182 8.6067 17.4008 7.70242C17.0458 7.52579 16.614 7.67026 16.4372 8.02577C16.2603 8.38119 16.4051 8.81262 16.7605 8.98943C18.375 9.79273 19.861 11.3171 21.1155 13.3619C19.1186 14.1867 17.5718 14.3244 16.4071 13.7842C14.3855 12.8466 13.6168 9.84618 12.8735 6.9445C12.391 5.06066 11.9268 3.24887 11.1229 1.90337C18.2602 2.9045 21.8904 6.02729 22.8416 8.54911Z" fill="white"/>
</g>
<defs>
<clipPath id="clip0_796_1999">
<rect width="46" height="46" fill="white"/>
</clipPath>
</defs>
</svg>
