<svg width="28" height="29" viewBox="0 0 28 29" fill="none" xmlns="http://www.w3.org/2000/svg">
<path d="M19.288 18.219C20.6412 14.9522 19.0899 11.207 15.8231 9.85386C12.5563 8.50071 8.81106 10.052 7.45791 13.3188C6.10476 16.5856 7.65607 20.3308 10.9229 21.684C14.1897 23.0371 17.9349 21.4858 19.288 18.219Z" stroke="white" stroke-width="1.84925" stroke-miterlimit="10"/>
<path d="M17.7076 3.05273V5.29405C22.1147 6.85914 25.2701 10.9548 25.2701 15.7436C25.2701 21.8806 20.0962 26.8736 13.7368 26.8736C7.37743 26.8736 2.20354 21.8806 2.20354 15.7436C2.20354 11.5119 4.66268 7.82882 8.27207 5.94475V3.58436C3.40666 5.62578 0 10.3083 0 15.7436C0 23.0545 6.16108 29.0001 13.7368 29.0001C21.3126 29.0001 27.4737 23.0545 27.4737 15.7436C27.4737 9.76817 23.3531 4.70289 17.7076 3.05273Z" fill="white"/>
<path d="M11.7337 0L10.6836 5.4H12.4859V9.1579L15.2625 4.10921L13.4905 4.22763L15.2625 0H11.7337Z" fill="white"/>
</svg>
