<svg width="18" height="39" viewBox="0 0 18 39" fill="none" xmlns="http://www.w3.org/2000/svg">
<path d="M15.3717 10.0964V2.57875C15.3717 1.54082 14.5303 0.699341 13.4923 0.699341H4.72171C3.68378 0.699341 2.8423 1.54082 2.8423 2.57875V10.0964C1.80437 10.0964 0.962891 10.9379 0.962891 11.9758V30.7699C0.962891 31.8079 1.80437 32.6493 2.8423 32.6493H5.34816V37.0346C5.34816 37.7266 5.90912 38.2876 6.60112 38.2876H11.6129C12.3049 38.2876 12.8659 37.7266 12.8659 37.0346V32.6493H15.3717C16.4097 32.6493 17.2511 31.8079 17.2511 30.7699V11.9758C17.2511 10.9379 16.4097 10.0964 15.3717 10.0964ZM4.09519 2.57875C4.09519 2.23275 4.37571 1.95231 4.72164 1.95231H13.4923C13.8383 1.95231 14.1187 2.23282 14.1187 2.57875V10.0964H4.09519V2.57875ZM11.6128 37.0346H6.60105V32.6493H11.6128V37.0346ZM15.9982 30.7699C15.9982 31.1159 15.7177 31.3964 15.3717 31.3964H2.8423C2.4963 31.3964 2.21586 31.1159 2.21586 30.7699V11.9758C2.21586 11.6298 2.4963 11.3494 2.8423 11.3494H15.3717C15.7177 11.3494 15.9982 11.6298 15.9982 11.9758V30.7699Z" fill="black"/>
</svg>
