<svg width="76" height="75" viewBox="0 0 76 75" fill="none" xmlns="http://www.w3.org/2000/svg">
<path d="M31.2732 39.4675C31.0573 39.03 30.5967 38.7512 30.0904 38.7512H23.9433L28.7388 21.5737C28.8972 21.0049 28.6196 20.4087 28.0727 20.1399C27.5257 19.87 26.8558 20.0024 26.4647 20.4562L8.14656 41.7064C7.82471 42.0789 7.75802 42.5964 7.97391 43.0338C8.1898 43.4714 8.65041 43.7501 9.15672 43.7501H15.3039L10.5084 60.9276C10.35 61.4964 10.6275 62.0926 11.1744 62.3614C11.3641 62.4552 11.5696 62.5001 11.7724 62.5001C12.1545 62.5001 12.5274 62.3413 12.7826 62.0451L31.1009 40.7951C31.4224 40.4226 31.4891 39.9051 31.2732 39.4675ZM14.5879 56.0188L18.2712 42.8226C18.3759 42.4476 18.2922 42.0475 18.0448 41.7389C17.7975 41.4314 17.4142 41.2502 17.0072 41.2502H11.9291L24.6603 26.4815L20.977 39.6777C20.8723 40.0527 20.956 40.4528 21.2034 40.7614C21.4507 41.0689 21.834 41.2502 22.241 41.2502H27.3191L14.5879 56.0188Z" fill="#6ABE55"/>
<path d="M26.9866 22.8516C21.671 28.9062 10.7946 41.1328 9.81323 41.6016L17.1732 43.9453L12.2666 60.9375L29.4399 39.8438H22.0799L24.5332 31.3477L26.9866 22.8516Z" fill="#6ABE55"/>
<path d="M27.4841 0H11.7828C11.0606 0 10.4744 0.56001 10.4744 1.24995V6.2499C10.4744 6.93984 11.0606 7.49985 11.7828 7.49985H27.4841C28.2063 7.49985 28.7925 6.93984 28.7925 6.2499V1.24995C28.7925 0.56001 28.2063 0 27.4841 0ZM26.1757 4.99995H13.0913V2.50005H26.1757V4.99995Z" fill="#2D2929"/>
<path d="M34.2407 4.99988H5.01262C2.24787 4.99988 0 7.14866 0 9.78875V70.2112C0 72.8512 2.25047 74.9999 5.01262 74.9999H34.2407C37.0041 74.9999 39.2533 72.8512 39.2533 70.2112V9.78875C39.2533 7.14866 37.0041 4.99988 34.2407 4.99988ZM36.6352 70.2112C36.6352 71.4738 35.5609 72.5 34.2393 72.5H5.01139C3.68981 72.5 2.61556 71.4738 2.61556 70.2112V9.78875C2.61556 8.5262 3.69104 7.49993 5.01139 7.49993H34.2393C35.5609 7.49993 36.6352 8.5262 36.6352 9.78875V70.2112Z" fill="#2D2929"/>
</svg>
