<svg width="230" height="67" viewBox="0 0 230 67" fill="none" xmlns="http://www.w3.org/2000/svg">
<g clip-path="url(#clip0_796_3311)">
<path d="M0 2.19395C0 1.48321 0.571681 0.911531 1.28242 0.911531C1.99316 0.911531 2.56484 1.48321 2.56484 2.19395C2.56484 2.90469 1.99316 3.47637 1.28242 3.47637C0.571681 3.47637 0 2.90469 0 2.19395ZM0.139058 8.42579H2.38458V31.3291H0.139058V8.42579Z" fill="white"/>
<path d="M10.26 19.8751C10.26 13.0974 15.297 7.87498 22.2138 7.87498C26.2465 7.87498 29.6817 9.66212 31.6955 12.2733V12.5051L30.3203 13.6021H30.0937C28.2139 11.3566 25.5151 9.93509 22.2601 9.93509C16.5794 9.93509 12.5467 14.1944 12.5467 19.9215C12.5467 25.6486 16.4403 29.8152 22.3941 29.8152C25.4173 29.8152 28.2139 28.5791 30.0886 26.1482H30.3152L31.6903 27.2452V27.4769C29.6765 30.0881 26.2413 31.8753 22.2086 31.8753C15.2918 31.8753 10.2548 26.6529 10.2548 19.8751" fill="white"/>
<path d="M58.4519 17.1711V31.3241H56.2064V17.3514C56.2064 12.8604 53.3222 9.92985 48.8775 9.92985C44.4329 9.92985 41.0903 13.0921 41.0903 17.5317V31.319H38.8448V0.360628L40.8586 0.0876631L41.0903 0.226721V12.0003C42.6921 9.48178 45.535 7.87489 49.1969 7.87489C54.7849 7.87489 58.4519 11.6294 58.4519 17.1763" fill="white"/>
<path d="M84.9295 16.759V31.324H82.7304V27.796C80.8969 30.3609 77.6934 31.8751 74.2994 31.8751C69.077 31.8751 65.5027 28.9446 65.5027 24.5926C65.5027 20.2406 69.3499 17.1247 74.9843 17.1247C77.9612 17.1247 80.6188 17.9951 82.7252 19.1384V16.3882C82.7252 12.5409 79.9286 9.92972 75.6693 9.92972C72.8315 9.92972 70.0349 11.1194 68.0212 12.9529H67.7946L66.7851 11.5315V11.346C68.9843 9.23958 72.3268 7.86445 75.6693 7.86445C81.5355 7.86445 84.9244 11.2997 84.9244 16.7538M82.7252 23.0732V21.2397C81.0308 20.2766 78.0539 19.1333 75.0307 19.1333C70.7251 19.1333 67.8409 21.3324 67.8409 24.6286C67.8409 27.6982 70.4985 29.8046 74.4384 29.8046C78.6513 29.8046 82.7304 27.3325 82.7304 23.0681" fill="white"/>
<path d="M105.81 8.69902L105.032 10.4398L104.847 10.5325C104.162 10.1205 103.379 9.98144 102.509 9.98144C99.1197 9.98144 96.3695 13.3703 96.3695 18.1807V31.3294H94.1239V8.42606H96.2768V12.3197C97.6055 9.56942 99.9386 7.87498 102.828 7.87498C103.879 7.87498 104.842 8.06039 105.712 8.51362L105.805 8.69902H105.81Z" fill="white"/>
<path d="M130.643 8.42597V28.2134C130.643 35.2229 125.832 38.6581 119.786 38.6581C115.387 38.6581 111.586 36.7319 109.48 33.6211V33.3945L110.901 32.2048H111.082C112.869 34.8624 115.846 36.6032 119.832 36.6032C124.874 36.6032 128.351 33.719 128.351 28.2649V24.9223C126.471 27.5335 123.401 29.1816 119.647 29.1816C113.327 29.1816 108.744 24.5567 108.744 18.5514C108.744 12.5462 113.322 7.88004 119.693 7.88004C123.494 7.88004 126.61 9.57449 128.443 12.232V8.43113H130.643V8.42597ZM128.443 18.5514C128.443 13.6484 124.869 9.94016 119.739 9.94016C114.61 9.94016 111.082 13.6484 111.082 18.5514C111.082 23.4545 114.563 27.1163 119.739 27.1163C124.915 27.1163 128.443 23.4957 128.443 18.5514Z" fill="white"/>
<path d="M138.659 21.5695C139.952 27.1576 144.68 29.9078 149.516 29.1095C152.591 28.5996 155.779 26.5447 157.179 23.8047L157.406 23.7687L158.951 24.6751L158.987 24.9017C157.349 28.1928 153.6 30.5258 149.897 31.1387C143.706 32.1636 137.495 28.5945 136.285 21.2708C135.162 14.493 138.973 8.61654 145.529 7.52983C149.099 6.93755 152.194 7.96245 154.45 10.0947C156.453 11.8046 157.895 14.354 158.379 17.2896C158.457 17.7428 158.457 18.021 158.452 18.2991L138.659 21.5695ZM138.36 19.4836L155.897 16.584C155.397 14.6733 154.481 13.0561 153.265 11.9127C151.457 9.98136 148.939 9.05431 145.864 9.55904C140.894 10.3831 137.938 14.4003 138.36 19.4836Z" fill="white"/>
<path d="M229.409 2.77087V33.0082H228.173L208.381 7.35462V32.5498H206.094V2.77087H207.33L227.118 28.4708V2.77087H229.409Z" fill="#6ABE55"/>
<path d="M188.032 21.9594C189.627 18.1095 187.799 13.6958 183.949 12.1011C180.099 10.5065 175.685 12.3347 174.091 16.1845C172.496 20.0344 174.324 24.4481 178.174 26.0428C182.024 27.6374 186.438 25.8092 188.032 21.9594Z" stroke="#6ABE55" stroke-width="1.84925" stroke-miterlimit="10"/>
<path d="M186.265 3.70319V6.41739C191.416 8.31269 195.103 13.2724 195.103 19.0716C195.103 26.5035 189.057 32.5499 181.625 32.5499C174.193 32.5499 168.147 26.5035 168.147 19.0716C168.147 13.9471 171.02 9.48696 175.239 7.20538V4.34698C169.553 6.81911 165.571 12.4896 165.571 19.0716C165.571 27.925 172.772 35.1251 181.625 35.1251C190.478 35.1251 197.678 27.925 197.678 19.0716C197.678 11.8355 192.863 5.7015 186.265 3.70319Z" fill="#6ABE55"/>
<path d="M179.831 0L178.76 7.04558H180.598V11.9487L183.431 5.36144L181.623 5.51595L183.431 0H179.831Z" fill="#6ABE55"/>
<path d="M20.6835 61.8858C20.0294 61.5871 19.5144 61.1699 19.1436 60.6343C18.7676 60.0986 18.5719 59.5012 18.5461 58.842H19.9264C19.9882 59.4754 20.2663 60.0317 20.7659 60.5106C21.2655 60.9896 21.9917 61.2265 22.9496 61.2265C23.8355 61.2265 24.5308 60.9999 25.051 60.5467C25.566 60.0935 25.8286 59.5166 25.8286 58.8214C25.8286 58.26 25.6844 57.8119 25.4012 57.4668C25.1128 57.1269 24.7574 56.8694 24.3351 56.6994C23.9127 56.5295 23.3256 56.3492 22.5788 56.1484C21.7084 55.9114 21.0183 55.6797 20.5084 55.4582C19.9985 55.2368 19.5608 54.8865 19.2002 54.4127C18.8397 53.9389 18.6595 53.3002 18.6595 52.4917C18.6595 51.817 18.8346 51.2195 19.1796 50.6891C19.5299 50.1586 20.0191 49.7466 20.6526 49.4478C21.2861 49.1491 22.0174 48.9998 22.8363 48.9998C24.0415 48.9998 25.0201 49.2933 25.7565 49.8856C26.4982 50.4779 26.9257 51.2401 27.0338 52.1723H25.6175C25.5299 51.6367 25.2364 51.1629 24.7419 50.7457C24.2424 50.3285 23.5728 50.1225 22.7282 50.1225C21.9453 50.1225 21.2913 50.3285 20.7659 50.7457C20.2406 51.1629 19.9831 51.7294 19.9831 52.4556C19.9831 53.0015 20.1273 53.4445 20.4106 53.7792C20.699 54.114 21.0543 54.3715 21.4818 54.5466C21.9093 54.7217 22.4913 54.9071 23.2278 55.108C24.0724 55.3449 24.7574 55.5767 25.2827 55.8084C25.8029 56.0402 26.2458 56.3904 26.6063 56.8642C26.9669 57.3381 27.1471 57.9716 27.1471 58.7698C27.1471 59.3776 26.9823 59.9596 26.663 60.5055C26.3385 61.0514 25.8595 61.4943 25.2261 61.8343C24.5926 62.169 23.8303 62.339 22.9496 62.339C22.0689 62.339 21.3376 62.1896 20.6835 61.8909" fill="white"/>
<path d="M31.3704 53.1097V59.4394C31.3704 60.0626 31.4888 60.4901 31.7257 60.727C31.9626 60.9639 32.3798 61.0823 32.9773 61.0823H34.1721V62.2H32.7712C31.8493 62.2 31.1644 61.9836 30.7163 61.5562C30.2682 61.1287 30.0467 60.4231 30.0467 59.4394V53.1097H28.6253V52.0076H30.0467V49.453H31.3704V52.0076H34.1721V53.1097H31.3704Z" fill="white"/>
<path d="M36.3469 54.3303C36.7641 53.5423 37.3409 52.9294 38.0826 52.5019C38.8242 52.0744 39.6586 51.8581 40.5959 51.8581C41.5333 51.8581 42.4037 52.0796 43.1093 52.5277C43.8148 52.9757 44.3196 53.5474 44.6286 54.2427V52.0023H45.9368V62.1947H44.6286V59.9338C44.3041 60.6291 43.7942 61.2059 43.0887 61.6591C42.3882 62.1123 41.5487 62.339 40.5753 62.339C39.6019 62.339 38.8242 62.1226 38.0826 61.6849C37.3409 61.2471 36.7641 60.6342 36.3469 59.8359C35.9298 59.0376 35.7238 58.1209 35.7238 57.0754C35.7238 56.0299 35.9298 55.1131 36.3469 54.32M44.1239 54.9277C43.7891 54.3045 43.3307 53.8255 42.7539 53.4908C42.1771 53.156 41.5384 52.986 40.838 52.986C40.1375 52.986 39.468 53.1509 38.8963 53.4702C38.3246 53.7946 37.8714 54.2633 37.5418 54.8813C37.2122 55.4994 37.0474 56.2307 37.0474 57.0754C37.0474 57.92 37.2122 58.6411 37.5418 59.2694C37.8714 59.8977 38.3246 60.3767 38.8963 60.7063C39.468 61.0359 40.1169 61.2007 40.838 61.2007C41.559 61.2007 42.1719 61.0308 42.7539 60.696C43.3307 60.3612 43.7891 59.8823 44.1239 59.2591C44.4586 58.6359 44.6286 57.9149 44.6286 57.096C44.6286 56.2771 44.4586 55.5509 44.1239 54.9277Z" fill="white"/>
<path d="M57.3229 52.0076L51.2713 67.0001H49.9065L51.8893 62.1485L47.7073 52.0076H49.1442L52.6155 60.7064L55.9786 52.0076H57.3229Z" fill="white"/>
<path d="M65.5163 61.139H70.203V62.1999H64.2081V49.1543H65.5163V61.139Z" fill="white"/>
<path d="M72.0542 49.8034C71.8688 49.618 71.776 49.3862 71.776 49.1132C71.776 48.8403 71.8688 48.6137 72.0542 48.4334C72.2396 48.2531 72.4662 48.1656 72.7237 48.1656C72.9812 48.1656 73.2078 48.2531 73.3932 48.4334C73.5786 48.6137 73.6713 48.8403 73.6713 49.1132C73.6713 49.3862 73.5786 49.618 73.3932 49.8034C73.2078 49.9888 72.9812 50.0815 72.7237 50.0815C72.4662 50.0815 72.2396 49.9888 72.0542 49.8034ZM73.3778 62.2001H72.0696V52.0077H73.3778V62.2001Z" fill="white"/>
<path d="M79.9627 60.933L83.3979 52.0076H84.7834L80.694 62.2H79.2159L75.1318 52.0076H76.5275L79.9627 60.933Z" fill="white"/>
<path d="M95.738 57.6109H87.2812C87.3173 58.3835 87.5027 59.0427 87.8426 59.5886C88.1774 60.1346 88.6203 60.5517 89.1662 60.8298C89.7122 61.108 90.3096 61.2522 90.9585 61.2522C91.8032 61.2522 92.5191 61.0462 93.0959 60.6341C93.6727 60.2221 94.059 59.671 94.2444 58.9706H95.6247C95.3775 59.9646 94.8418 60.7783 94.0281 61.4067C93.2144 62.035 92.1894 62.3492 90.9585 62.3492C90.0006 62.3492 89.1405 62.1329 88.3834 61.7054C87.6263 61.2779 87.0289 60.665 86.6014 59.877C86.1739 59.089 85.9576 58.162 85.9576 57.1062C85.9576 56.0504 86.1688 55.1233 86.5911 54.325C87.0134 53.5267 87.6057 52.919 88.3628 52.4967C89.1199 52.0744 89.9851 51.8632 90.9585 51.8632C91.9319 51.8632 92.7817 52.0744 93.5079 52.4967C94.2341 52.919 94.7955 53.4907 95.1869 54.2066C95.5783 54.9225 95.774 55.7156 95.774 56.586C95.774 57.0341 95.7637 57.3792 95.738 57.6109ZM93.992 54.6031C93.6727 54.0675 93.2401 53.6658 92.6942 53.3877C92.1482 53.1147 91.5508 52.9757 90.9019 52.9757C89.9336 52.9757 89.1044 53.2847 88.4194 53.9079C87.7345 54.531 87.3533 55.4066 87.2812 56.5397H94.4504C94.4607 55.7826 94.3114 55.1336 93.992 54.598" fill="white"/>
<path d="M99.3631 60.0369L97.4215 64.9297H96.5253L97.9056 60.0369H99.3631Z" fill="white"/>
<path d="M108.202 61.8858C107.548 61.5871 107.033 61.1699 106.662 60.6343C106.286 60.0986 106.09 59.5012 106.064 58.842H107.445C107.507 59.4754 107.79 60.0317 108.284 60.5106C108.784 60.9896 109.51 61.2265 110.468 61.2265C111.349 61.2265 112.049 60.9999 112.569 60.5467C113.084 60.0935 113.342 59.5166 113.342 58.8214C113.342 58.26 113.198 57.8119 112.914 57.4668C112.631 57.1269 112.276 56.8694 111.848 56.6994C111.426 56.5295 110.839 56.3492 110.092 56.1484C109.222 55.9114 108.531 55.6797 108.022 55.4582C107.512 55.2368 107.074 54.8865 106.713 54.4127C106.353 53.9389 106.173 53.3002 106.173 52.4917C106.173 51.817 106.348 51.2195 106.693 50.6891C107.043 50.1586 107.532 49.7466 108.166 49.4478C108.799 49.1491 109.531 48.9998 110.349 48.9998C111.555 48.9998 112.533 49.2933 113.27 49.8856C114.011 50.4779 114.439 51.2401 114.552 52.1723H113.131C113.043 51.6367 112.75 51.1629 112.255 50.7457C111.756 50.3285 111.086 50.1225 110.236 50.1225C109.453 50.1225 108.799 50.3285 108.274 50.7457C107.749 51.1629 107.491 51.7294 107.491 52.4556C107.491 53.0015 107.635 53.4445 107.919 53.7792C108.202 54.114 108.562 54.3715 108.99 54.5466C109.417 54.7217 109.999 54.9071 110.736 55.108C111.58 55.3449 112.265 55.5767 112.791 55.8084C113.316 56.0402 113.754 56.3904 114.114 56.8642C114.475 57.3381 114.655 57.9716 114.655 58.7698C114.655 59.3776 114.49 59.9596 114.171 60.5055C113.847 61.0514 113.368 61.4943 112.734 61.8343C112.101 62.169 111.338 62.339 110.458 62.339C109.577 62.339 108.846 62.1896 108.192 61.8909" fill="white"/>
<path d="M118.887 53.1097V59.4394C118.887 60.0626 119.006 60.4901 119.243 60.727C119.479 60.9639 119.897 61.0823 120.494 61.0823H121.689V62.2H120.288C119.366 62.2 118.681 61.9836 118.233 61.5562C117.785 61.1287 117.564 60.4231 117.564 59.4394V53.1097H116.147V52.0076H117.564V49.453H118.887V52.0076H121.689V53.1097H118.887Z" fill="white"/>
<path d="M123.865 54.3303C124.282 53.5423 124.859 52.9294 125.601 52.5019C126.342 52.0744 127.177 51.8581 128.114 51.8581C129.051 51.8581 129.922 52.0796 130.627 52.5277C131.333 52.9757 131.838 53.5474 132.147 54.2427V52.0023H133.455V62.1947H132.147V59.9338C131.822 60.6291 131.312 61.2059 130.607 61.6591C129.906 62.1123 129.067 62.339 128.093 62.339C127.12 62.339 126.342 62.1226 125.601 61.6849C124.859 61.2471 124.282 60.6342 123.865 59.8359C123.448 59.0376 123.242 58.1209 123.242 57.0754C123.242 56.0299 123.448 55.1131 123.865 54.32M131.642 54.9277C131.307 54.3045 130.849 53.8255 130.272 53.4908C129.695 53.156 129.057 52.986 128.356 52.986C127.656 52.986 126.986 53.1509 126.414 53.4702C125.843 53.7946 125.39 54.2633 125.06 54.8813C124.73 55.4994 124.566 56.2307 124.566 57.0754C124.566 57.92 124.73 58.6411 125.06 59.2694C125.39 59.8977 125.838 60.3767 126.414 60.7063C126.986 61.0359 127.635 61.2007 128.356 61.2007C129.077 61.2007 129.69 61.0308 130.272 60.696C130.849 60.3612 131.307 59.8823 131.642 59.2591C131.977 58.6359 132.147 57.9149 132.147 57.096C132.147 56.2771 131.977 55.5509 131.642 54.9277Z" fill="white"/>
<path d="M144.841 52.0076L138.789 67.0001H137.425L139.407 62.1485L135.225 52.0076H136.662L140.134 60.7064L143.497 52.0076H144.841Z" fill="white"/>
<path d="M159.287 59.1046H153.349L152.211 62.2051H150.831L155.589 49.3242H157.062L161.806 62.2051H160.426L159.287 59.1046ZM158.896 58.023L156.321 50.9671L153.746 58.023H158.901H158.896Z" fill="white"/>
<path d="M170.838 52.3063C171.456 52.6308 171.94 53.1252 172.295 53.7896C172.651 54.454 172.826 55.2677 172.826 56.2257V62.2H171.538V56.375C171.538 55.2677 171.26 54.4231 170.709 53.8359C170.153 53.2488 169.401 52.9604 168.443 52.9604C167.485 52.9604 166.676 53.2694 166.089 53.8926C165.502 54.5158 165.214 55.4274 165.214 56.6377V62.2H163.905V48.3869H165.214V53.7432C165.538 53.1355 166.012 52.6617 166.64 52.3217C167.268 51.987 167.974 51.817 168.757 51.817C169.54 51.817 170.225 51.9767 170.838 52.3012" fill="white"/>
<path d="M184.903 57.6109H176.446C176.482 58.3835 176.667 59.0427 177.007 59.5886C177.342 60.1346 177.785 60.5517 178.331 60.8298C178.877 61.108 179.474 61.2522 180.123 61.2522C180.968 61.2522 181.684 61.0462 182.261 60.6341C182.837 60.2221 183.224 59.671 183.409 58.9706H184.789C184.542 59.9646 184.007 60.7783 183.193 61.4067C182.379 62.035 181.354 62.3492 180.123 62.3492C179.165 62.3492 178.305 62.1329 177.548 61.7054C176.791 61.2779 176.194 60.665 175.766 59.877C175.339 59.089 175.122 58.162 175.122 57.1062C175.122 56.0504 175.333 55.1233 175.756 54.325C176.178 53.5267 176.77 52.919 177.527 52.4967C178.285 52.0744 179.15 51.8632 180.123 51.8632C181.097 51.8632 181.941 52.0744 182.673 52.4967C183.399 52.919 183.96 53.4907 184.352 54.2066C184.743 54.9225 184.939 55.7156 184.939 56.586C184.939 57.0341 184.928 57.3792 184.903 57.6109ZM183.157 54.6031C182.837 54.0675 182.405 53.6658 181.859 53.3877C181.313 53.1147 180.716 52.9757 180.067 52.9757C179.093 52.9757 178.269 53.2847 177.584 53.9079C176.899 54.531 176.518 55.4066 176.446 56.5397H183.615C183.625 55.7826 183.476 55.1336 183.157 54.598" fill="white"/>
<path d="M187.357 54.3303C187.775 53.5423 188.351 52.9294 189.093 52.5019C189.835 52.0744 190.669 51.8581 191.606 51.8581C192.544 51.8581 193.414 52.0796 194.12 52.5277C194.825 52.9757 195.33 53.5474 195.639 54.2427V52.0023H196.947V62.1947H195.639V59.9338C195.315 60.6291 194.805 61.2059 194.099 61.6591C193.399 62.1123 192.559 62.339 191.586 62.339C190.612 62.339 189.835 62.1226 189.093 61.6849C188.351 61.2471 187.775 60.6342 187.357 59.8359C186.94 59.0376 186.734 58.1209 186.734 57.0754C186.734 56.0299 186.94 55.1131 187.357 54.32M195.134 54.9277C194.8 54.3045 194.341 53.8255 193.764 53.4908C193.188 53.156 192.549 52.986 191.849 52.986C191.148 52.986 190.479 53.1509 189.907 53.4702C189.335 53.7946 188.882 54.2633 188.552 54.8813C188.223 55.4994 188.058 56.2307 188.058 57.0754C188.058 57.92 188.223 58.6411 188.552 59.2694C188.882 59.8977 189.335 60.3767 189.907 60.7063C190.479 61.0359 191.127 61.2007 191.849 61.2007C192.57 61.2007 193.182 61.0308 193.764 60.696C194.341 60.3612 194.8 59.8823 195.134 59.2591C195.469 58.6359 195.639 57.9149 195.639 57.096C195.639 56.2771 195.469 55.5509 195.134 54.9277Z" fill="white"/>
<path d="M199.969 54.3304C200.392 53.5424 200.974 52.9295 201.715 52.502C202.457 52.0745 203.291 51.8582 204.229 51.8582C205.166 51.8582 205.933 52.0745 206.654 52.5123C207.375 52.9501 207.906 53.5166 208.241 54.2119V48.3869H209.549V62.2051H208.241V59.9287C207.932 60.6395 207.422 61.2214 206.711 61.6747C206 62.1279 205.166 62.3545 204.208 62.3545C203.25 62.3545 202.436 62.1382 201.695 61.7004C200.953 61.2626 200.376 60.6498 199.959 59.8515C199.542 59.0532 199.336 58.1364 199.336 57.0909C199.336 56.0454 199.547 55.1287 199.969 54.3355M207.736 54.9432C207.401 54.3201 206.943 53.8411 206.366 53.5063C205.789 53.1715 205.15 53.0016 204.45 53.0016C203.75 53.0016 203.08 53.1664 202.508 53.4857C201.937 53.8102 201.483 54.2789 201.154 54.8969C200.824 55.5149 200.659 56.2463 200.659 57.0909C200.659 57.9356 200.824 58.6566 201.154 59.2849C201.483 59.9133 201.937 60.3922 202.508 60.7219C203.08 61.0515 203.729 61.2163 204.45 61.2163C205.171 61.2163 205.784 61.0463 206.366 60.7116C206.943 60.3768 207.401 59.8978 207.736 59.2746C208.071 58.6514 208.241 57.9304 208.241 57.1115C208.241 56.2926 208.071 55.5664 207.736 54.9432Z" fill="white"/>
</g>
<defs>
<clipPath id="clip0_796_3311">
<rect width="229.126" height="66.9173" fill="white" transform="scale(1.00124)"/>
</clipPath>
</defs>
</svg>
