<svg width="58" height="58" viewBox="0 0 58 58" fill="none" xmlns="http://www.w3.org/2000/svg">
<path d="M40.7393 3.625H17.2617C16.3006 3.62602 15.3792 4.00827 14.6996 4.68787C14.02 5.36746 13.6377 6.2889 13.6367 7.25V50.75C13.6377 51.7111 14.02 52.6325 14.6996 53.3121C15.3792 53.9917 16.3006 54.374 17.2617 54.375H40.7393C41.7004 54.374 42.6218 53.9917 43.3014 53.3121C43.981 52.6325 44.3632 51.7111 44.3643 50.75V7.25C44.3632 6.2889 43.981 5.36747 43.3014 4.68787C42.6218 4.00827 41.7004 3.62602 40.7393 3.625ZM33.8778 5.4375L32.9715 7.25H25.0294L24.1232 5.4375H33.8778ZM42.5518 50.75C42.5512 51.2305 42.3601 51.6912 42.0203 52.031C41.6805 52.3708 41.2198 52.5619 40.7393 52.5625H17.2617C16.7812 52.562 16.3205 52.3708 15.9807 52.031C15.6409 51.6912 15.4498 51.2305 15.4492 50.75V7.25C15.4498 6.76946 15.6409 6.30877 15.9807 5.96898C16.3205 5.62918 16.7812 5.43805 17.2617 5.4375H22.0966L23.6586 8.56159C23.7339 8.71209 23.8496 8.83867 23.9928 8.92713C24.136 9.0156 24.3009 9.06247 24.4692 9.0625H33.5317C33.7 9.06248 33.865 9.01561 34.0082 8.92714C34.1514 8.83868 34.2671 8.7121 34.3424 8.56159L35.9044 5.4375H40.7393C41.2198 5.43805 41.6805 5.62919 42.0203 5.96898C42.3601 6.30877 42.5512 6.76946 42.5518 7.25L42.5518 50.75Z" fill="white"/>
<path d="M35.343 26.5077H30.1533L33.0518 14.6127C33.1033 14.4014 33.077 14.1786 32.9779 13.985C32.8788 13.7914 32.7133 13.6399 32.5117 13.5581C32.3101 13.4764 32.0859 13.4699 31.8799 13.5398C31.6739 13.6096 31.4999 13.7513 31.3897 13.9388L21.8741 30.1265C21.7953 30.2645 21.7538 30.4207 21.7539 30.5796C21.754 30.7386 21.7955 30.8947 21.8745 31.0327C21.9534 31.1706 22.067 31.2855 22.204 31.3661C22.341 31.4467 22.4966 31.4901 22.6555 31.492L27.8452 31.4921L24.9468 43.3871C24.8954 43.5984 24.9216 43.8212 25.0208 44.0148C25.1199 44.2083 25.2854 44.3598 25.4869 44.4415C25.6885 44.5233 25.9127 44.5298 26.1187 44.4599C26.3247 44.3901 26.4986 44.2485 26.6089 44.061L36.1245 27.8733C36.2033 27.7353 36.2447 27.5791 36.2447 27.4202C36.2446 27.2612 36.203 27.1051 36.1241 26.9672C36.0451 26.8292 35.9316 26.7143 35.7946 26.6337C35.6576 26.5531 35.502 26.5097 35.343 26.5077ZM28.1647 37.8368L29.8799 30.8005C29.9111 30.6672 29.912 30.5286 29.8824 30.395C29.8528 30.2613 29.7935 30.1361 29.7089 30.0284C29.6244 29.9208 29.5167 29.8335 29.3939 29.7732C29.271 29.7128 29.1362 29.6808 28.9993 29.6796H24.2397L29.8339 20.1631L28.1187 27.1993C28.0863 27.3327 28.0846 27.4717 28.1137 27.6058C28.1428 27.7399 28.202 27.8657 28.2868 27.9736C28.3716 28.0816 28.4797 28.1688 28.6032 28.2289C28.7266 28.2889 28.862 28.3201 28.9993 28.3202H33.7589L28.1647 37.8368Z" fill="white"/>
</svg>
