<svg width="50" height="50" viewBox="0 0 50 50" fill="none" xmlns="http://www.w3.org/2000/svg">
<path d="M6.09166 6.37436V43.6702C6.09147 43.6879 6.08899 43.7051 6.08899 43.7229C6.08899 46.3226 8.20386 48.4375 10.8032 48.4375H39.1998C41.7923 48.4375 43.902 46.3334 43.913 43.7431C43.9132 43.736 43.9171 43.7301 43.9171 43.7229V6.27708C43.9171 6.24237 43.9148 6.20804 43.9102 6.17447C43.8537 3.62167 41.7671 1.5625 39.2101 1.5625H10.8043C9.54892 1.5625 8.3656 2.0546 7.4783 2.94189C6.58032 3.81851 6.08594 5.00412 6.08594 6.2809C6.08594 6.31256 6.08784 6.34384 6.09166 6.37436ZM39.1998 46.875H10.8032C9.06822 46.875 7.65726 45.4656 7.6524 43.7317C7.65244 43.7286 7.65416 43.7261 7.65416 43.7229V43.6965C7.6687 41.971 9.07428 40.5708 10.8032 40.5708H39.1998C40.9378 40.5708 42.3515 41.9849 42.3515 43.7229C42.3515 45.4609 40.9378 46.875 39.1998 46.875ZM8.57655 4.05312C9.17508 3.45459 9.96625 3.125 10.8043 3.125H39.2101C40.9408 3.125 42.3488 4.54063 42.3488 6.2809C42.3488 6.31256 42.3507 6.34384 42.3546 6.37436V40.2297C41.5181 39.4734 40.4136 39.0083 39.1998 39.0083H10.8032C9.59222 39.0083 8.48996 39.4713 7.65416 40.2245V6.27708C7.65416 6.24886 7.65263 6.22101 7.64958 6.19354C7.67133 5.37491 7.99634 4.61998 8.57655 4.05312Z" fill="white"/>
<path d="M15.0001 42.9419H11.7812C11.3498 42.9419 11 43.2917 11 43.7231C11 44.1546 11.3498 44.5044 11.7812 44.5044H15.0001C15.4315 44.5044 15.7813 44.1546 15.7813 43.7231C15.7813 43.2917 15.4315 42.9419 15.0001 42.9419Z" fill="white"/>
<path d="M22.7384 42.9419H19.5195C19.0881 42.9419 18.7383 43.2917 18.7383 43.7231C18.7383 44.1546 19.0881 44.5044 19.5195 44.5044H22.7384C23.1698 44.5044 23.5196 44.1546 23.5196 43.7231C23.5196 43.2917 23.1698 42.9419 22.7384 42.9419Z" fill="white"/>
<path d="M30.4806 42.9419H27.2617C26.8303 42.9419 26.4805 43.2917 26.4805 43.7231C26.4805 44.1546 26.8303 44.5044 27.2617 44.5044H30.4806C30.912 44.5044 31.2618 44.1546 31.2618 43.7231C31.2618 43.2917 30.912 42.9419 30.4806 42.9419Z" fill="white"/>
<path d="M38.2188 42.9419H35C34.5686 42.9419 34.2188 43.2917 34.2188 43.7231C34.2188 44.1546 34.5686 44.5044 35 44.5044H38.2188C38.6503 44.5044 39.0001 44.1546 39.0001 43.7231C39.0001 43.2917 38.6503 42.9419 38.2188 42.9419Z" fill="white"/>
<path d="M17.7383 23.0392H22.657V31.6513C22.657 31.9893 22.8744 32.2891 23.196 32.394C23.2757 32.42 23.3574 32.4325 23.4382 32.4325C23.6828 32.4325 23.9193 32.3173 24.0692 32.1121L32.8949 20.0245C33.0684 19.7868 33.0936 19.4721 32.9605 19.2097C32.8274 18.9476 32.558 18.7824 32.2639 18.7824H27.3453V10.1703C27.3453 9.83237 27.1278 9.53253 26.8062 9.42763C26.4862 9.32425 26.1326 9.4364 25.9331 9.70953L17.1074 21.7972C16.9338 22.0348 16.9086 22.3495 17.0418 22.612C17.1749 22.8741 17.4442 23.0392 17.7383 23.0392ZM25.7828 12.5652V19.5637C25.7828 19.9951 26.1326 20.3449 26.564 20.3449H30.7262L24.2195 29.2564V22.258C24.2195 21.8265 23.8697 21.4767 23.4382 21.4767H19.276L25.7828 12.5652Z" fill="white"/>
</svg>
