<svg width="23" height="39" viewBox="0 0 23 39" fill="none" xmlns="http://www.w3.org/2000/svg">
<path fill-rule="evenodd" clip-rule="evenodd" d="M3.48102 3.38397C3.48102 1.90115 4.68307 0.699097 6.16589 0.699097H16.9054C18.3881 0.699097 19.5903 1.90115 19.5903 3.38397V9.64867C21.073 9.64867 22.2751 10.8507 22.2751 12.3335V30.2327C22.2751 31.7155 21.073 32.9176 19.5903 32.9176H16.0104V34.7075C16.0104 35.2017 15.6097 35.6025 15.1155 35.6025H14.2205V37.3924C14.2205 37.8866 13.8197 38.2873 13.3256 38.2873H9.74572C9.25152 38.2873 8.85076 37.8866 8.85076 37.3924V35.6025H7.9558C7.46154 35.6025 7.06085 35.2017 7.06085 34.7075V32.9176H3.48102C1.9982 32.9176 0.796143 31.7155 0.796143 30.2327V12.3335C0.796143 10.8507 1.9982 9.64867 3.48102 9.64867V3.38397ZM14.2205 33.8125H8.85076V32.9176H14.2205V33.8125ZM12.4306 36.4974V35.6025H10.6407V36.4974H12.4306ZM3.48102 31.1277C2.98675 31.1277 2.58606 30.7269 2.58606 30.2327V12.3335C2.58606 11.8393 2.98675 11.4386 3.48102 11.4386H19.5903C20.0845 11.4386 20.4852 11.8393 20.4852 12.3335V30.2327C20.4852 30.7269 20.0845 31.1277 19.5903 31.1277H3.48102ZM17.8003 3.38397V9.64867H5.27093V3.38397C5.27093 2.8897 5.67162 2.48901 6.16589 2.48901H16.9054C17.3996 2.48901 17.8003 2.8897 17.8003 3.38397Z" fill="black"/>
</svg>
